<svg width="103" height="204" viewBox="0 0 103 204" fill="none" xmlns="http://www.w3.org/2000/svg">
<mask id="mask0" mask-type="alpha" maskUnits="userSpaceOnUse" x="0" y="0" width="103" height="204">
<path fill-rule="evenodd" clip-rule="evenodd" d="M0 0H103V204H0V0Z" fill="white"/>
</mask>
<g mask="url(#mask0)">
<path fill-rule="evenodd" clip-rule="evenodd" d="M92.2188 155.66H11.152L6.48451 139.932H96.8838L92.2188 155.66ZM73.3032 198.68H31.2958L19.75 160.517H83.8664L73.3032 198.68ZM53.1593 6.70748C57.3355 12.9524 64.9484 28.9116 51.931 41.8639H51.6854C39.6482 27.9864 48.4918 12.7211 53.1593 6.70748ZM12.6259 115.646C14.3455 113.333 17.5391 110.095 21.4696 107.32C29.8219 101.306 38.6656 100.15 48.0005 103.619C38.9112 119.578 20.2413 117.497 12.6259 115.646ZM12.6259 89.0476C17.2934 83.034 30.0676 70.3129 48.0005 77.0204C38.9112 92.9796 20.2413 90.6667 12.6259 89.0476ZM12.6259 49.4966C15.5738 48.8027 19.9956 48.1088 25.1544 48.3401C35.7177 48.8027 43.333 53.4286 48.0005 61.5238C30.0676 68.2313 17.2934 55.5102 12.6259 49.4966ZM90.9905 49.4966C86.323 55.5102 73.5464 68.2313 55.6159 61.5238C64.7052 45.7959 83.1294 47.8776 90.9905 49.4966ZM90.7423 89.0476C87.7945 89.7415 83.3726 90.4354 78.2163 90.2041C67.6531 89.7415 60.0352 85.1156 55.3702 77.0204C73.3032 70.3129 86.0773 83.034 90.7423 89.0476ZM90.7423 115.646C87.7945 116.34 83.3726 117.034 78.2163 116.803C67.6531 116.34 60.0352 111.714 55.3702 103.619C73.5464 96.9116 86.0773 109.864 90.7423 115.646ZM102.534 135.769C102.045 135.075 101.306 134.844 100.325 134.844H54.3876V110.789C61.7573 119.578 72.3181 121.66 80.6729 121.66C89.2709 121.66 95.9036 119.578 95.9036 119.578C96.6406 119.347 97.1319 118.884 97.6207 117.959C97.8689 117.265 97.8689 116.571 97.3775 115.878C97.3775 115.646 80.4248 89.5102 54.3876 98.7619V84.1905C61.7573 92.9796 72.3181 95.0612 80.6729 95.0612C89.2709 95.0612 95.9036 92.9796 95.9036 92.9796C96.6406 92.7483 97.1319 92.2857 97.6207 91.3605C97.8689 90.6667 97.8689 89.9728 97.3775 89.2789C97.1319 89.0476 80.4248 62.9116 54.1419 72.1633V66.6122C58.0724 68 61.7573 68.6939 65.1965 68.6939C84.849 68.6939 97.1319 49.7279 97.1319 49.4966C97.6207 48.8027 97.6207 48.1088 97.3775 47.415C97.1319 46.7211 96.3924 46.2585 95.6555 45.7959C95.4123 45.7959 68.6332 37.2381 53.8938 54.585V46.7211C75.7597 27.0612 55.1221 1.15646 54.8789 0.92517C54.3876 0.231292 53.6506 0 52.9137 0C52.1767 0 51.4373 0.231292 50.9484 0.92517C50.7027 1.15646 28.0999 25.6735 48.7375 46.7211V54.3537C33.9981 37.2381 7.46714 45.7959 7.21902 45.7959C6.48451 46.0272 5.99074 46.4898 5.50188 47.415C5.25622 48.1088 5.25622 48.8027 5.74754 49.4966C5.99074 49.7279 18.0304 68.6939 37.6829 68.6939C41.1221 68.6939 44.807 68 48.4918 66.8435V72.1633C22.4522 63.1429 5.74754 89.2789 5.50188 89.5102C5.01057 90.2041 5.01057 90.898 5.25622 91.5918C5.50188 92.2857 6.23885 92.7483 6.97582 93.2109C7.21902 93.2109 13.8542 95.2925 22.2065 95.2925C30.8045 95.2925 40.8765 93.2109 48.2462 84.6531V98.7619C22.2065 89.7415 5.50188 115.878 5.25622 116.109C4.76245 116.803 4.76245 117.497 5.01057 118.19C5.25622 118.884 5.99074 119.347 6.73017 119.81C6.97582 119.81 13.6086 121.891 21.9584 121.891C30.5564 121.891 40.6308 119.81 48.0005 111.252V134.844H2.79966C2.06269 134.844 1.0776 135.306 0.588745 135.769C0.0974309 136.463 -0.150683 137.156 0.0974308 138.082L6.48451 158.898C6.73017 160.054 7.95845 160.748 8.94108 160.748H14.0999L26.6284 202.15C26.8716 203.306 27.8567 204 29.0849 204H75.0228C76.2511 204 77.2312 203.306 77.4793 202.15L88.7795 160.98H93.6927C94.921 160.98 95.9036 160.286 96.1493 159.129L102.534 138.313C103.273 137.156 103.025 136.463 102.534 135.769Z" fill="black" fill-opacity="0.01"/>
<path d="M92.2188 155.66V156.66H92.9652L93.1775 155.944L92.2188 155.66ZM11.152 155.66L10.1933 155.944L10.4056 156.66H11.152V155.66ZM6.48451 139.932V138.932H5.14464L5.52583 140.216L6.48451 139.932ZM96.8838 139.932L97.8425 140.216L98.2234 138.932H96.8838V139.932ZM73.3032 198.68V199.68H74.064L74.2669 198.947L73.3032 198.68ZM31.2958 198.68L30.3387 198.97L30.5536 199.68H31.2958V198.68ZM19.75 160.517V159.517H18.4027L18.7928 160.807L19.75 160.517ZM83.8664 160.517L84.8302 160.784L85.1808 159.517H83.8664V160.517ZM51.931 41.8639V42.8639H52.3438L52.6364 42.5728L51.931 41.8639ZM51.6854 41.8639L50.9299 42.5192L51.229 42.8639H51.6854V41.8639ZM21.4696 107.32L22.0464 108.137L22.0539 108.131L21.4696 107.32ZM48.0005 103.619L48.8695 104.114L49.4517 103.092L48.3489 102.682L48.0005 103.619ZM48.0005 77.0204L48.8695 77.5153L49.4505 76.4951L48.3508 76.0838L48.0005 77.0204ZM25.1544 48.3401L25.1096 49.3391L25.1107 49.3392L25.1544 48.3401ZM48.0005 61.5238L48.3508 62.4604L49.4564 62.0469L48.8668 61.0243L48.0005 61.5238ZM55.6159 61.5238L54.7501 61.0234L54.1589 62.0464L55.2655 62.4604L55.6159 61.5238ZM78.2163 90.2041L78.2611 89.2051L78.2601 89.205L78.2163 90.2041ZM55.3702 77.0204L55.0199 76.0838L53.9146 76.4972L54.5038 77.5197L55.3702 77.0204ZM78.2163 116.803L78.2611 115.804L78.2601 115.804L78.2163 116.803ZM55.3702 103.619L55.024 102.681L53.9119 103.091L54.5038 104.118L55.3702 103.619ZM54.3876 134.844H53.3876V135.844H54.3876V134.844ZM54.3876 110.789L55.1539 110.147L53.3876 108.04V110.789H54.3876ZM95.9036 119.578L95.6042 118.624L95.9036 119.578ZM97.6207 117.959L98.5049 118.426L98.5383 118.363L98.5623 118.296L97.6207 117.959ZM97.3775 115.878H96.3775V116.196L96.5614 116.455L97.3775 115.878ZM54.3876 98.7619H53.3876V100.178L54.7224 99.7042L54.3876 98.7619ZM54.3876 84.1905L55.1539 83.548L53.3876 81.4415V84.1905H54.3876ZM95.9036 92.9796L95.6042 92.0255L95.9036 92.9796ZM97.6207 91.3605L98.5049 91.8277L98.5383 91.7645L98.5623 91.6972L97.6207 91.3605ZM97.3775 89.2789L98.1937 88.701L98.1359 88.6194L98.063 88.5508L97.3775 89.2789ZM54.1419 72.1633H53.1419V73.5754L54.474 73.1065L54.1419 72.1633ZM54.1419 66.6122L54.4749 65.6693L53.1419 65.1987V66.6122H54.1419ZM97.1319 49.4966L96.3144 48.9207L96.1319 49.1797V49.4966H97.1319ZM97.3775 47.415L98.3213 47.0842L98.3202 47.0812L97.3775 47.415ZM95.6555 45.7959L96.1871 44.9489L95.9433 44.7959H95.6555V45.7959ZM53.8938 54.585H52.8938V57.3063L54.6559 55.2325L53.8938 54.585ZM53.8938 46.7211L53.2252 45.9775L52.8938 46.2754V46.7211H53.8938ZM54.8789 0.92517L54.0628 1.50304L54.1191 1.58261L54.1898 1.64979L54.8789 0.92517ZM50.9484 0.92517L51.6339 1.65324L51.7076 1.58386L51.7659 1.50111L50.9484 0.92517ZM48.7375 46.7211H49.7375V46.3126L49.4515 46.021L48.7375 46.7211ZM48.7375 54.3537L47.9797 55.0063L49.7375 57.0474V54.3537H48.7375ZM7.21902 45.7959V44.7959H7.0653L6.91867 44.8421L7.21902 45.7959ZM5.50188 47.415L4.61772 46.9478L4.58359 47.0124L4.55921 47.0812L5.50188 47.415ZM5.74754 49.4966L4.93141 50.0745L4.98775 50.154L5.05839 50.2212L5.74754 49.4966ZM48.4918 66.8435H49.4918V65.4816L48.1924 65.8894L48.4918 66.8435ZM48.4918 72.1633L48.1645 73.1082L49.4918 73.568V72.1633H48.4918ZM5.50188 89.5102L4.81638 88.7821L4.74356 88.8507L4.68576 88.9323L5.50188 89.5102ZM6.97582 93.2109L6.44419 94.0579L6.68798 94.2109H6.97582V93.2109ZM48.2462 84.6531H49.2462V81.9594L47.4884 84.0005L48.2462 84.6531ZM48.2462 98.7619L47.9188 99.7068L49.2462 100.167V98.7619H48.2462ZM5.25622 116.109L4.57072 115.381L4.49876 115.449L4.44146 115.529L5.25622 116.109ZM5.01057 118.19L5.95324 117.857L5.95218 117.854L5.01057 118.19ZM6.73017 119.81L6.1998 120.657L6.44314 120.81H6.73017V119.81ZM48.0005 111.252H49.0005V108.558L47.2428 110.599L48.0005 111.252ZM48.0005 134.844V135.844H49.0005V134.844H48.0005ZM0.588745 135.769L-0.098575 135.042L-0.17031 135.11L-0.227381 135.191L0.588745 135.769ZM0.0974308 138.082L-0.868439 138.341L-0.863815 138.358L-0.85858 138.375L0.0974308 138.082ZM6.48451 158.898L7.46268 158.69L7.45349 158.647L7.44052 158.605L6.48451 158.898ZM14.0999 160.748L15.057 160.459L14.842 159.748H14.0999V160.748ZM26.6284 202.15L27.607 201.944L27.598 201.901L27.5855 201.86L26.6284 202.15ZM77.4793 202.15L76.515 201.885L76.5075 201.912L76.5016 201.94L77.4793 202.15ZM88.7795 160.98V159.98H88.017L87.8152 160.715L88.7795 160.98ZM96.1493 159.129L95.1932 158.836L95.1803 158.878L95.1711 158.921L96.1493 159.129ZM102.534 138.313L101.691 137.774L101.618 137.889L101.578 138.02L102.534 138.313ZM92.2188 154.66H11.152V156.66H92.2188V154.66ZM12.1107 155.375L7.44318 139.647L5.52583 140.216L10.1933 155.944L12.1107 155.375ZM6.48451 140.932H96.8838V138.932H6.48451V140.932ZM95.9251 139.648L91.26 155.376L93.1775 155.944L97.8425 140.216L95.9251 139.648ZM73.3032 197.68H31.2958V199.68H73.3032V197.68ZM32.253 198.391L20.7071 160.227L18.7928 160.807L30.3387 198.97L32.253 198.391ZM19.75 161.517H83.8664V159.517H19.75V161.517ZM82.9026 160.25L72.3394 198.414L74.2669 198.947L84.8302 160.784L82.9026 160.25ZM52.328 7.26337C54.3678 10.3136 57.2287 15.7157 58.0004 21.8944C58.7665 28.0272 57.4813 34.9306 51.2257 41.1551L52.6364 42.5728C59.3981 35.8449 60.8152 28.2925 59.985 21.6465C59.1606 15.0462 56.127 9.34628 53.9906 6.15159L52.328 7.26337ZM51.931 40.8639H51.6854V42.8639H51.931V40.8639ZM52.4408 41.2087C46.6567 34.5403 45.9003 27.5845 47.1378 21.5372C48.3847 15.4434 51.6644 10.2645 53.9493 7.32062L52.3693 6.09434C49.9868 9.16404 46.5108 14.6247 45.1784 21.1363C43.8364 27.6944 44.6768 35.31 50.9299 42.5192L52.4408 41.2087ZM13.4284 116.243C15.0788 114.023 18.1935 110.857 22.0464 108.137L20.8927 106.503C16.8846 109.333 13.6122 112.644 11.8234 115.05L13.4284 116.243ZM22.0539 108.131C30.1386 102.31 38.6329 101.204 47.6521 104.556L48.3489 102.682C38.6982 99.0949 29.5052 100.302 20.8853 106.508L22.0539 108.131ZM47.1316 103.124C42.7653 110.79 36.1161 114.125 29.5795 115.328C23.0122 116.536 16.5929 115.581 12.862 114.675L12.3898 116.618C16.2743 117.562 22.9977 118.573 29.9415 117.295C36.916 116.011 44.1464 112.407 48.8695 104.114L47.1316 103.124ZM13.4159 89.6608C15.7 86.7179 19.9545 82.1554 25.7958 79.153C31.6067 76.1662 38.9894 74.7176 47.6502 77.957L48.3508 76.0838C39.0786 72.6157 31.1078 74.1739 24.8815 77.3742C18.6857 80.5588 14.2193 85.3637 11.836 88.4345L13.4159 89.6608ZM47.1316 76.5255C42.7674 84.1882 36.1219 87.4664 29.5836 88.6416C23.0138 89.8225 16.5897 88.868 12.8339 88.0695L12.418 90.0258C16.2775 90.8463 22.9961 91.8577 29.9374 90.6101C36.9102 89.3567 44.1443 85.8118 48.8695 77.5153L47.1316 76.5255ZM12.8551 50.47C15.7348 49.7922 20.0626 49.1129 25.1096 49.3391L25.1992 47.3411C19.9286 47.1048 15.4129 47.8133 12.3968 48.5232L12.8551 50.47ZM25.1107 49.3392C35.3581 49.7879 42.65 54.2459 47.1342 62.0233L48.8668 61.0243C44.0161 52.6112 36.0772 47.8175 25.1982 47.3411L25.1107 49.3392ZM47.6502 60.5872C38.9894 63.8266 31.6067 62.378 25.7958 59.3912C19.9545 56.3888 15.7 51.8263 13.4159 48.8835L11.836 50.1097C14.2193 53.1805 18.6857 57.9854 24.8815 61.17C31.1078 64.3703 39.0786 65.9285 48.3508 62.4604L47.6502 60.5872ZM90.2005 48.8835C87.9164 51.8262 83.6614 56.3888 77.8197 59.3912C72.0084 62.378 64.6257 63.8266 55.9662 60.5872L55.2655 62.4604C64.5365 65.9285 72.5074 64.3703 78.7339 61.17C84.93 57.9854 89.397 53.1806 91.7804 50.1097L90.2005 48.8835ZM56.4817 62.0242C60.8466 54.4713 67.4356 51.1919 73.9456 49.9884C80.486 48.7793 86.9108 49.6773 90.7887 50.476L91.1922 48.5172C87.2091 47.6968 80.4913 46.7445 73.582 48.0218C66.6422 49.3047 59.4745 52.8485 54.7501 61.0234L56.4817 62.0242ZM90.5132 88.0742C87.6335 88.7521 83.3056 89.4314 78.2611 89.2051L78.1715 91.2031C83.4397 91.4394 87.9554 90.7309 90.9715 90.021L90.5132 88.0742ZM78.2601 89.205C68.0124 88.7563 60.7183 84.2982 56.2367 76.5211L54.5038 77.5197C59.3522 85.9331 67.2937 90.7267 78.1726 91.2031L78.2601 89.205ZM55.7205 77.957C64.3813 74.7176 71.764 76.1662 77.5746 79.153C83.4156 82.1554 87.6694 86.7179 89.9522 89.6606L91.5325 88.4347C89.1502 85.3638 84.6844 80.5589 78.4889 77.3742C72.2629 74.1739 64.2921 72.6157 55.0199 76.0838L55.7205 77.957ZM90.5132 114.673C87.6335 115.351 83.3056 116.03 78.2611 115.804L78.1715 117.802C83.4397 118.038 87.9554 117.33 90.9715 116.62L90.5132 114.673ZM78.2601 115.804C68.0124 115.355 60.7183 110.897 56.2367 103.12L54.5038 104.118C59.3522 112.532 67.2937 117.325 78.1726 117.802L78.2601 115.804ZM55.7164 104.557C73.2146 98.0999 85.3202 110.518 89.9641 116.274L91.5206 115.018C86.8345 109.21 73.8782 95.7232 55.024 102.681L55.7164 104.557ZM103.351 135.193C102.594 134.118 101.458 133.844 100.325 133.844V135.844C101.153 135.844 101.496 136.032 101.716 136.345L103.351 135.193ZM100.325 133.844H54.3876V135.844H100.325V133.844ZM55.3876 134.844V110.789H53.3876V134.844H55.3876ZM53.6213 111.432C61.2642 120.546 72.1823 122.66 80.6729 122.66V120.66C72.4539 120.66 62.2504 118.61 55.1539 110.147L53.6213 111.432ZM80.6729 122.66C85.0498 122.66 88.9219 122.13 91.6995 121.601C93.0895 121.337 94.2083 121.072 94.9828 120.872C95.3701 120.772 95.6715 120.688 95.8779 120.629C95.9811 120.599 96.0605 120.576 96.1151 120.559C96.1424 120.551 96.1634 120.545 96.1781 120.54C96.1855 120.538 96.1913 120.536 96.1954 120.535C96.1975 120.534 96.1992 120.534 96.2004 120.533C96.2011 120.533 96.2016 120.533 96.202 120.533C96.2023 120.533 96.2025 120.533 96.2026 120.532C96.2028 120.532 96.203 120.532 95.9036 119.578C95.6042 118.624 95.6043 118.624 95.6044 118.624C95.6044 118.624 95.6045 118.624 95.6045 118.624C95.6046 118.624 95.6045 118.624 95.6043 118.624C95.604 118.624 95.6032 118.624 95.6021 118.625C95.5998 118.625 95.5959 118.627 95.5905 118.628C95.5795 118.632 95.5623 118.637 95.5389 118.644C95.4921 118.658 95.4207 118.679 95.3257 118.707C95.1358 118.761 94.8518 118.84 94.483 118.935C93.7451 119.126 92.6684 119.381 91.3254 119.637C88.6372 120.149 84.8939 120.66 80.6729 120.66V122.66ZM96.203 120.532C97.2696 120.198 97.9374 119.5 98.5049 118.426L96.7366 117.492C96.3264 118.268 96.0115 118.496 95.6042 118.624L96.203 120.532ZM98.5623 118.296C98.8943 117.367 98.9139 116.317 98.1937 115.3L96.5614 116.455C96.8238 116.826 96.8434 117.163 96.6791 117.622L98.5623 118.296ZM98.3775 115.878C98.3775 115.723 98.3405 115.605 98.3331 115.581C98.3193 115.536 98.3051 115.501 98.297 115.482C98.2804 115.442 98.2638 115.409 98.2543 115.39C98.2338 115.35 98.2108 115.31 98.1903 115.275C98.1476 115.203 98.0902 115.11 98.0206 115.003C97.8801 114.785 97.6762 114.484 97.4114 114.114C96.8814 113.374 96.1 112.347 95.0824 111.155C93.049 108.774 90.0588 105.714 86.2316 102.953C78.5694 97.424 67.4788 93.049 54.0528 97.8196L54.7224 99.7042C67.3335 95.2231 77.7379 99.2903 85.0614 104.575C88.7271 107.22 91.6023 110.159 93.5613 112.454C94.5399 113.6 95.2863 114.581 95.7851 115.278C96.0347 115.627 96.2204 115.902 96.341 116.089C96.402 116.183 96.4428 116.249 96.4659 116.288C96.4783 116.31 96.48 116.313 96.476 116.306C96.4747 116.303 96.4644 116.283 96.4519 116.253C96.4458 116.239 96.4332 116.208 96.4205 116.166C96.4141 116.145 96.3775 116.03 96.3775 115.878H98.3775ZM55.3876 98.7619V84.1905H53.3876V98.7619H55.3876ZM53.6213 84.833C61.2642 93.9478 72.1823 96.0612 80.6729 96.0612V94.0612C72.4539 94.0612 62.2504 92.0113 55.1539 83.548L53.6213 84.833ZM80.6729 96.0612C85.0498 96.0612 88.9219 95.5317 91.6995 95.0028C93.0895 94.7381 94.2083 94.473 94.9828 94.2731C95.3701 94.1732 95.6715 94.0894 95.8779 94.0302C95.9811 94.0005 96.0605 93.977 96.1151 93.9606C96.1424 93.9524 96.1634 93.9459 96.1781 93.9414C96.1855 93.9392 96.1913 93.9374 96.1954 93.9361C96.1975 93.9354 96.1992 93.9349 96.2004 93.9345C96.2011 93.9343 96.2016 93.9342 96.202 93.934C96.2023 93.934 96.2025 93.9339 96.2026 93.9338C96.2028 93.9338 96.203 93.9337 95.9036 92.9796C95.6042 92.0255 95.6043 92.0254 95.6044 92.0254C95.6044 92.0254 95.6045 92.0254 95.6045 92.0254C95.6046 92.0253 95.6045 92.0254 95.6043 92.0254C95.604 92.0255 95.6032 92.0258 95.6021 92.0261C95.5998 92.0268 95.5959 92.028 95.5905 92.0297C95.5795 92.0331 95.5623 92.0383 95.5389 92.0454C95.4921 92.0594 95.4207 92.0806 95.3257 92.1079C95.1358 92.1625 94.8518 92.2414 94.483 92.3366C93.7451 92.527 92.6684 92.7823 91.3254 93.0381C88.6372 93.55 84.8939 94.0612 80.6729 94.0612V96.0612ZM96.203 93.9337C97.2696 93.599 97.9374 92.9018 98.5049 91.8277L96.7366 90.8934C96.3264 91.6696 96.0115 91.8976 95.6042 92.0255L96.203 93.9337ZM98.5623 91.6972C98.8943 90.7688 98.9139 89.7183 98.1937 88.701L96.5614 89.8568C96.8238 90.2273 96.8434 90.5645 96.6791 91.0238L98.5623 91.6972ZM98.063 88.5508C98.1396 88.623 98.1911 88.6995 98.1581 88.6549C98.1528 88.6476 98.1419 88.6326 98.1226 88.6053C98.083 88.5493 98.0329 88.4776 97.9576 88.3708C97.8126 88.1651 97.603 87.8704 97.3312 87.5029C96.7877 86.7682 95.9969 85.7447 94.9724 84.5538C92.9257 82.1746 89.9361 79.1156 86.1088 76.354C78.4445 70.8238 67.3556 66.4518 53.8099 71.22L54.474 73.1065C67.2111 68.623 77.6172 72.6932 84.9385 77.9759C88.6041 80.6208 91.48 83.5609 93.4563 85.8581C94.4433 87.0055 95.2034 87.9896 95.7233 88.6923C95.9831 89.0436 96.1833 89.325 96.3229 89.523C96.3899 89.6181 96.4508 89.7052 96.4904 89.7611C96.5107 89.7898 96.5315 89.819 96.5499 89.8438C96.5588 89.8559 96.5715 89.8729 96.5859 89.8909C96.5889 89.8947 96.6317 89.9502 96.692 90.007L98.063 88.5508ZM55.1419 72.1633V66.6122H53.1419V72.1633H55.1419ZM53.809 67.5552C57.8245 68.973 61.6227 69.6939 65.1965 69.6939V67.6939C61.8919 67.6939 58.3204 67.027 54.4749 65.6693L53.809 67.5552ZM65.1965 69.6939C75.354 69.6939 83.5621 64.7939 89.1873 59.939C92.0055 57.5067 94.1962 55.0684 95.6844 53.2211C96.4288 52.297 96.9999 51.5177 97.388 50.957C97.5817 50.6772 97.7322 50.4482 97.8371 50.2803C97.8888 50.1976 97.934 50.1224 97.969 50.0598C97.9856 50.0301 98.0068 49.991 98.0266 49.9492C98.0359 49.9295 98.0522 49.8941 98.0683 49.8502C98.0693 49.8475 98.1319 49.6945 98.1319 49.4966H96.1319C96.1319 49.3771 96.1539 49.2861 96.1622 49.2537C96.173 49.2113 96.1844 49.1785 96.1909 49.1607C96.2041 49.125 96.2159 49.0999 96.2192 49.0928C96.227 49.0763 96.2303 49.0713 96.2231 49.0843C96.2104 49.1069 96.1842 49.1514 96.1411 49.2203C96.0566 49.3556 95.924 49.5579 95.7434 49.8188C95.3831 50.3395 94.841 51.0799 94.1269 51.9664C92.6979 53.7403 90.5896 56.0868 87.8805 58.4249C82.4511 63.1109 74.6916 67.6939 65.1965 67.6939V69.6939ZM97.9494 50.0725C98.6654 49.0562 98.6453 48.0087 98.3213 47.0842L96.4338 47.7457C96.5962 48.209 96.5761 48.5492 96.3144 48.9207L97.9494 50.0725ZM98.3202 47.0812C98.1147 46.5008 97.723 46.0735 97.3465 45.7551C96.9745 45.4406 96.5413 45.1713 96.1871 44.9489L95.1238 46.6429C95.5066 46.8831 95.8116 47.0764 96.055 47.2823C96.2939 47.4843 96.3947 47.6353 96.4349 47.7487L98.3202 47.0812ZM95.6555 44.7959C95.7289 44.7959 95.7852 44.8044 95.7973 44.8062C95.8187 44.8094 95.8348 44.8125 95.8418 44.8139C95.8561 44.8168 95.8645 44.8189 95.8615 44.8182C95.8571 44.8171 95.8437 44.8137 95.8158 44.8062C95.7607 44.7914 95.6834 44.77 95.5728 44.7397C95.3568 44.6804 95.0431 44.5952 94.643 44.4931C93.8429 44.289 92.6993 44.0177 91.2884 43.7476C88.4693 43.208 84.5722 42.6707 80.2074 42.6854C71.4961 42.7148 60.7694 44.9487 53.1318 53.9375L54.6559 55.2325C61.7577 46.8744 71.7902 44.7138 80.2141 44.6854C84.4168 44.6712 88.1814 45.1892 90.9123 45.712C92.2765 45.9731 93.38 46.2349 94.1485 46.431C94.5327 46.5291 94.8337 46.6108 95.0438 46.6684C95.1464 46.6966 95.235 46.7211 95.2965 46.7376C95.3268 46.7458 95.3593 46.7543 95.3881 46.7614C95.4017 46.7647 95.4235 46.7699 95.4481 46.7748C95.4602 46.7772 95.4807 46.7812 95.5056 46.7848C95.5212 46.7871 95.5802 46.7959 95.6555 46.7959V44.7959ZM54.8938 54.585V46.7211H52.8938V54.585H54.8938ZM54.5624 47.4647C65.8538 37.3125 66.1676 25.4885 63.6417 16.2731C62.3835 11.6825 60.4216 7.72579 58.7646 4.90692C57.9349 3.49556 57.1785 2.36404 56.6191 1.5748C56.3395 1.18016 56.1084 0.87011 55.9412 0.652467C55.8578 0.543836 55.7892 0.456897 55.7377 0.393078C55.7141 0.363737 55.6358 0.264983 55.5681 0.200546L54.1898 1.64979C54.1372 1.59981 54.114 1.56566 54.1813 1.64911C54.2209 1.69809 54.2793 1.77214 54.3551 1.87074C54.5063 2.06758 54.7221 2.35698 54.9874 2.73121C55.5178 3.47971 56.2427 4.56354 57.0404 5.92046C58.638 8.63816 60.5145 12.4298 61.7129 16.8018C64.1001 25.5115 63.7997 36.4698 53.2252 45.9775L54.5624 47.4647ZM55.695 0.347296C54.9575 -0.69434 53.8579 -1 52.9137 -1V1C53.4434 1 53.8177 1.15692 54.0628 1.50304L55.695 0.347296ZM52.9137 -1C51.9712 -1 50.8668 -0.695327 50.1309 0.349225L51.7659 1.50111C52.0077 1.15791 52.3821 1 52.9137 1V-1ZM50.2629 0.197097C50.1301 0.322158 48.6257 1.96089 46.7734 4.65149C44.9094 7.35922 42.6574 11.1825 41.0687 15.6842C37.8793 24.7218 37.3638 36.5498 48.0235 47.4212L49.4515 46.021C39.4735 35.8448 39.9407 24.8904 42.9547 16.3498C44.4678 12.0624 46.6227 8.39758 48.4208 5.78558C50.2308 3.15646 51.6439 1.64383 51.6339 1.65324L50.2629 0.197097ZM47.7375 46.7211V54.3537H49.7375V46.7211H47.7375ZM49.4952 53.7012C41.8566 44.8311 31.1933 42.6565 22.544 42.6565C18.2101 42.6565 14.3439 43.2012 11.5475 43.7446C10.148 44.0165 9.01372 44.2887 8.22006 44.4933C7.82315 44.5956 7.51203 44.6809 7.29771 44.7402C7.18815 44.7705 7.11131 44.7919 7.05699 44.8066C7.02937 44.8141 7.01638 44.8174 7.01237 44.8184C7.00966 44.819 7.01832 44.8168 7.03303 44.8139C7.04028 44.8124 7.05658 44.8093 7.0782 44.8061C7.091 44.8042 7.14656 44.7959 7.21902 44.7959V46.7959C7.29342 46.7959 7.35173 46.7874 7.36806 46.785C7.39322 46.7813 7.41386 46.7773 7.42623 46.7749C7.4512 46.7698 7.47329 46.7646 7.48715 46.7612C7.51626 46.7541 7.54895 46.7454 7.57925 46.7372C7.64078 46.7206 7.7288 46.696 7.83079 46.6678C8.03956 46.6101 8.33828 46.5282 8.71936 46.43C9.48167 46.2334 10.576 45.9707 11.929 45.7078C14.6375 45.1815 18.3717 44.6565 22.544 44.6565C30.9071 44.6565 40.879 46.7608 47.9797 55.0063L49.4952 53.7012ZM6.91867 44.8421C5.85618 45.1767 5.1859 45.8725 4.61772 46.9478L6.38604 47.8822C6.79558 47.1071 7.11283 46.8778 7.51937 46.7497L6.91867 44.8421ZM4.55921 47.0812C4.23116 48.0079 4.21128 49.0574 4.93141 50.0745L6.56366 48.9187C6.30117 48.548 6.28129 48.2098 6.44455 47.7487L4.55921 47.0812ZM5.05839 50.2212C5.01303 50.1781 4.98328 50.1409 4.98173 50.139C4.9773 50.1336 4.97415 50.1296 4.97258 50.1276C4.97224 50.1272 4.97076 50.1252 4.97067 50.1251C4.97069 50.1252 4.96979 50.124 4.97001 50.1243C4.96998 50.1242 4.97047 50.1249 4.97155 50.1263C4.97262 50.1278 4.97409 50.1298 4.976 50.1324C4.97989 50.1377 4.98493 50.1447 4.99135 50.1537C5.01848 50.1916 5.05694 50.2465 5.11165 50.3245C5.21868 50.4771 5.37337 50.6974 5.57309 50.9737C5.97262 51.5264 6.55107 52.3015 7.30006 53.2241C8.79682 55.0676 10.9786 57.505 13.7813 59.9372C19.3759 64.7924 27.5239 69.6939 37.6829 69.6939V67.6939C28.1894 67.6939 20.4913 63.1123 15.0922 58.4267C12.398 56.0886 10.296 53.741 8.85275 51.9634C8.13175 51.0754 7.57616 50.3308 7.19397 49.8021C7.00281 49.5376 6.85471 49.3267 6.74906 49.1761C6.69743 49.1025 6.65209 49.0377 6.61819 48.9903C6.60148 48.967 6.58287 48.9412 6.56511 48.9178C6.55635 48.9062 6.54374 48.8898 6.52906 48.8718C6.52084 48.8618 6.48585 48.8187 6.43668 48.772L5.05839 50.2212ZM37.6829 69.6939C41.2509 69.6939 45.0394 68.9751 48.7913 67.7977L48.1924 65.8894C44.5745 67.0249 40.9933 67.6939 37.6829 67.6939V69.6939ZM47.4918 66.8435V72.1633H49.4918V66.8435H47.4918ZM48.8192 71.2184C35.3914 66.5668 24.3644 71.0018 16.7353 76.5591C12.9247 79.3348 9.94386 82.4005 7.90165 84.7828C6.87944 85.9753 6.08997 86.9994 5.5472 87.7344C5.27572 88.102 5.06634 88.3967 4.92147 88.6024C4.84648 88.7089 4.79607 88.7811 4.75667 88.8368C4.73739 88.864 4.72657 88.879 4.72124 88.8862C4.68823 88.9309 4.73974 88.8543 4.81638 88.7821L6.18738 90.2383C6.24773 90.1814 6.29057 90.126 6.29361 90.1221C6.30794 90.1041 6.32068 90.0871 6.32961 90.075C6.34797 90.0501 6.36883 90.0209 6.38916 89.9922C6.42897 89.936 6.48948 89.8494 6.55669 89.7539C6.69623 89.5558 6.89635 89.2741 7.15601 88.9225C7.67551 88.2191 8.43483 87.2339 9.4201 86.0845C11.3928 83.7832 14.2617 80.8353 17.9129 78.1756C25.2075 72.8621 35.5526 68.7393 48.1645 73.1082L48.8192 71.2184ZM4.68576 88.9323C3.96562 89.9494 3.9855 90.9989 4.31356 91.9256L6.19889 91.2581C6.03564 90.797 6.05552 90.4588 6.31801 90.0881L4.68576 88.9323ZM4.31356 91.9256C4.51876 92.5052 4.90914 92.9323 5.2853 93.251C5.65688 93.5659 6.08941 93.8352 6.44419 94.0579L7.50745 92.3639C7.12526 92.124 6.82082 91.9307 6.57827 91.7252C6.34028 91.5235 6.23934 91.3724 6.19889 91.2581L4.31356 91.9256ZM6.97582 94.2109C6.9068 94.2109 6.85568 94.2031 6.84845 94.202C6.8397 94.2008 6.83322 94.1997 6.8297 94.1991C6.82603 94.1984 6.82383 94.198 6.82344 94.1979C6.82294 94.1978 6.82594 94.1984 6.83354 94.2001C6.84087 94.2017 6.85069 94.204 6.86343 94.207C6.91721 94.2198 6.99641 94.24 7.10812 94.2687C7.32644 94.325 7.64401 94.4078 8.04292 94.5067C8.84256 94.7051 9.97423 94.9696 11.3632 95.2341C14.1385 95.7625 17.9504 96.2925 22.2065 96.2925V94.2925C18.1104 94.2925 14.4285 93.7818 11.7373 93.2693C10.3931 93.0134 9.2983 92.7575 8.52443 92.5656C8.13658 92.4693 7.83063 92.3895 7.60691 92.3319C7.4976 92.3038 7.40116 92.2792 7.32694 92.2615C7.29042 92.2528 7.24977 92.2435 7.21097 92.2358C7.20271 92.2342 7.0959 92.2109 6.97582 92.2109V94.2109ZM22.2065 96.2925C30.9487 96.2925 41.3657 94.1752 49.0039 85.3056L47.4884 84.0005C40.3872 92.2466 30.6604 94.2925 22.2065 94.2925V96.2925ZM47.2462 84.6531V98.7619H49.2462V84.6531H47.2462ZM48.5735 97.817C35.1458 93.1655 24.1188 97.6005 16.4897 103.158C12.6791 105.933 9.69821 108.999 7.65599 111.381C6.63378 112.574 5.84432 113.598 5.30154 114.333C5.03006 114.701 4.82068 114.995 4.67581 115.201C4.60082 115.308 4.55042 115.38 4.51101 115.435C4.49173 115.463 4.48091 115.478 4.47558 115.485C4.44257 115.53 4.49408 115.453 4.57072 115.381L5.94172 116.837C6.00208 116.78 6.04491 116.725 6.04795 116.721C6.06229 116.703 6.07502 116.686 6.08395 116.674C6.10232 116.649 6.12318 116.62 6.1435 116.591C6.18331 116.535 6.24382 116.448 6.31104 116.353C6.45057 116.154 6.65069 115.873 6.91035 115.521C7.42985 114.818 8.18918 113.833 9.17444 112.683C11.1472 110.382 14.016 107.434 17.6672 104.774C24.9618 99.4607 35.3069 95.3379 47.9188 99.7068L48.5735 97.817ZM4.44146 115.529C3.71722 116.547 3.73687 117.598 4.06895 118.527L5.95218 117.854C5.78804 117.395 5.80769 117.059 6.07099 116.689L4.44146 115.529ZM4.0679 118.524C4.27284 119.103 4.66193 119.53 5.03834 119.849C5.41015 120.165 5.84275 120.434 6.1998 120.657L7.26053 118.962C6.87816 118.723 6.57379 118.529 6.33206 118.324C6.09494 118.123 5.99395 117.972 5.95323 117.857L4.0679 118.524ZM6.73017 120.81C6.6617 120.81 6.61104 120.802 6.60363 120.801C6.59489 120.8 6.58842 120.798 6.5849 120.798C6.58123 120.797 6.57903 120.797 6.57863 120.797C6.57812 120.797 6.5811 120.797 6.5887 120.799C6.59602 120.8 6.60583 120.803 6.61858 120.806C6.67236 120.819 6.75159 120.839 6.86334 120.867C7.08169 120.924 7.39941 121.006 7.79829 121.105C8.59795 121.304 9.72945 121.568 11.1181 121.833C13.8928 122.361 17.7035 122.891 21.9584 122.891V120.891C17.8635 120.891 14.1829 120.38 11.4923 119.868C10.1484 119.612 9.05374 119.356 8.27975 119.164C7.8918 119.068 7.58579 118.988 7.36178 118.931C7.25235 118.902 7.15574 118.878 7.08129 118.86C7.04465 118.851 7.00387 118.842 6.9649 118.834C6.95602 118.833 6.84976 118.81 6.73017 118.81V120.81ZM21.9584 122.891C30.7005 122.891 41.12 120.774 48.7583 111.904L47.2428 110.599C40.1416 118.845 30.4123 120.891 21.9584 120.891V122.891ZM47.0005 111.252V134.844H49.0005V111.252H47.0005ZM48.0005 133.844H2.79966V135.844H48.0005V133.844ZM2.79966 133.844C2.24635 133.844 1.67521 134.01 1.20287 134.215C0.726931 134.422 0.251403 134.711 -0.098575 135.042L1.27606 136.495C1.41494 136.364 1.67639 136.19 1.99945 136.05C2.32611 135.908 2.616 135.844 2.79966 135.844V133.844ZM-0.227381 135.191C-0.832386 136.045 -1.21638 137.043 -0.868439 138.341L1.0633 137.823C0.915016 137.27 1.02725 136.88 1.40487 136.347L-0.227381 135.191ZM-0.85858 138.375L5.5285 159.191L7.44052 158.605L1.05344 137.788L-0.85858 138.375ZM5.50633 159.106C5.69339 159.986 6.24618 160.65 6.86825 161.08C7.48366 161.505 8.23241 161.748 8.94108 161.748V159.748C8.66711 159.748 8.31042 159.645 8.00461 159.434C7.70546 159.227 7.52128 158.966 7.46268 158.69L5.50633 159.106ZM8.94108 161.748H14.0999V159.748H8.94108V161.748ZM13.1427 161.038L25.6712 202.439L27.5855 201.86L15.057 160.459L13.1427 161.038ZM25.6498 202.355C26.0058 204.049 27.4634 205 29.0849 205V203C28.2499 203 27.7373 202.564 27.607 201.944L25.6498 202.355ZM29.0849 205H75.0228V203H29.0849V205ZM75.0228 205C76.6478 205 78.0952 204.046 78.4571 202.359L76.5016 201.94C76.3672 202.566 75.8543 203 75.0228 203V205ZM78.4437 202.414L89.7439 161.244L87.8152 160.715L76.515 201.885L78.4437 202.414ZM88.7795 161.98H93.6927V159.98H88.7795V161.98ZM93.6927 161.98C95.316 161.98 96.7685 161.027 97.1274 159.337L95.1711 158.921C95.0387 159.545 94.526 159.98 93.6927 159.98V161.98ZM97.1053 159.422L103.49 138.606L101.578 138.02L95.1932 158.836L97.1053 159.422ZM103.376 138.852C103.821 138.156 104.045 137.478 103.992 136.791C103.941 136.117 103.633 135.591 103.35 135.191L101.718 136.347C101.926 136.641 101.988 136.808 101.998 136.944C102.008 137.066 101.986 137.314 101.691 137.774L103.376 138.852Z" fill="#EEE1E1"/>
</g>
</svg>
