        <svg className='going-up' width="37" height="471" viewBox="0 0 37 471" fill="none" xmlns="http://www.w3.org/2000/svg">
        <path className='going-up' d="M38 43.7C37.1333 47.7667 35.1 51.0333 31.9 53.5C28.7667 55.9667 25.1667 57.2 21.1 57.2C15.2333 57.2 10.5667 55.1333 7.1 51C3.7 46.9333 2 41.2333 2 33.9L2 1.2L72.2 1.2V32.8C72.2 39.9333 70.5667 45.5 67.3 49.5C64.0333 53.5667 59.6 55.6 54 55.6C49.8667 55.6 46.4333 54.5 43.7 52.3C40.9667 50.1667 39.0667 47.3 38 43.7ZM43.8 18.3V29.5C43.8 32.3 44.4 34.4333 45.6 35.9C46.8667 37.4333 48.7 38.2 51.1 38.2C53.5 38.2 55.3333 37.4333 56.6 35.9C57.8667 34.4333 58.5 32.3 58.5 29.5L58.5 18.3L43.8 18.3ZM15.8 30.9C15.8 33.7667 16.4333 35.9667 17.7 37.5C19.0333 39.1 20.9333 39.9 23.4 39.9C25.8667 39.9 27.8 39.0667 29.2 37.4C30.6 35.8 31.3 33.5667 31.3 30.7V18.3L15.8 18.3V30.9ZM76 84.218L2 84.218V67.118L76 67.118V84.218ZM1.2 122.01C1.2 116.543 2.36667 111.61 4.7 107.21C7.03333 102.877 10.3667 99.4435 14.7 96.9102C19.0333 94.4435 24.1 93.2102 29.9 93.2102C35.6333 93.2102 40.6667 94.4768 45 97.0102C49.4 99.5435 52.7667 103.01 55.1 107.41C57.4333 111.81 58.6 116.743 58.6 122.21C58.6 127.677 57.4333 132.61 55.1 137.01C52.7667 141.41 49.4 144.877 45 147.41C40.6667 149.943 35.6333 151.21 29.9 151.21C24.1667 151.21 19.1 149.91 14.7 147.31C10.3667 144.777 7.03333 141.277 4.7 136.81C2.36667 132.41 1.2 127.477 1.2 122.01ZM16 122.01C16 125.277 17.2 128.043 19.6 130.31C22 132.643 25.4333 133.81 29.9 133.81C34.3667 133.81 37.8 132.677 40.2 130.41C42.6 128.21 43.8 125.477 43.8 122.21C43.8 118.877 42.6 116.11 40.2 113.91C37.8667 111.71 34.4333 110.61 29.9 110.61C25.4333 110.61 22 111.677 19.6 113.81C17.2 116.01 16 118.743 16 122.01ZM58.4 231.482C58.4 238.415 56.3 243.915 52.1 247.982C47.9 252.115 42.0667 254.182 34.6 254.182H2V237.182L32.3 237.182C35.9 237.182 38.6667 236.215 40.6 234.282C42.6 232.415 43.6 229.815 43.6 226.482C43.6 223.149 42.6 220.515 40.6 218.582C38.6667 216.715 35.9 215.782 32.3 215.782L2 215.782V198.782L32.3 198.782C35.9 198.782 38.6667 197.815 40.6 195.882C42.6 194.015 43.6 191.415 43.6 188.082C43.6 184.749 42.6 182.115 40.6 180.182C38.6667 178.315 35.9 177.382 32.3 177.382L2 177.382V160.282L57.8 160.282V177.382H50.8C53.1333 179.115 54.9667 181.382 56.3 184.182C57.7 186.982 58.4 190.149 58.4 193.682C58.4 197.882 57.5 201.615 55.7 204.882C53.9 208.215 51.3333 210.815 48 212.682C51.0667 214.615 53.5667 217.249 55.5 220.582C57.4333 223.915 58.4 227.549 58.4 231.482ZM58.4 337.341C58.4 344.275 56.3 349.775 52.1 353.841C47.9 357.975 42.0667 360.041 34.6 360.041H2L2 343.041H32.3C35.9 343.041 38.6667 342.075 40.6 340.141C42.6 338.275 43.6 335.675 43.6 332.341C43.6 329.008 42.6 326.375 40.6 324.441C38.6667 322.575 35.9 321.641 32.3 321.641H2V304.641H32.3C35.9 304.641 38.6667 303.675 40.6 301.741C42.6 299.875 43.6 297.275 43.6 293.941C43.6 290.608 42.6 287.975 40.6 286.041C38.6667 284.175 35.9 283.241 32.3 283.241H2V266.141H57.8L57.8 283.241H50.8C53.1333 284.975 54.9667 287.241 56.3 290.041C57.7 292.841 58.4 296.008 58.4 299.541C58.4 303.741 57.5 307.475 55.7 310.741C53.9 314.075 51.3333 316.675 48 318.541C51.0667 320.475 53.5667 323.108 55.5 326.441C57.4333 329.775 58.4 333.408 58.4 337.341ZM1.2 397.401C1.2 391.934 2.36667 387.001 4.7 382.601C7.03333 378.267 10.3667 374.834 14.7 372.301C19.0333 369.834 24.1 368.601 29.9 368.601C35.6333 368.601 40.6667 369.867 45 372.401C49.4 374.934 52.7667 378.401 55.1 382.801C57.4333 387.201 58.6 392.134 58.6 397.601C58.6 403.067 57.4333 408.001 55.1 412.401C52.7667 416.801 49.4 420.267 45 422.801C40.6667 425.334 35.6333 426.601 29.9 426.601C24.1667 426.601 19.1 425.301 14.7 422.701C10.3667 420.167 7.03333 416.667 4.7 412.201C2.36667 407.801 1.2 402.867 1.2 397.401ZM16 397.401C16 400.667 17.2 403.434 19.6 405.701C22 408.034 25.4333 409.201 29.9 409.201C34.3667 409.201 37.8 408.067 40.2 405.801C42.6 403.601 43.8 400.867 43.8 397.601C43.8 394.267 42.6 391.501 40.2 389.301C37.8667 387.101 34.4333 386.001 29.9 386.001C25.4333 386.001 22 387.067 19.6 389.201C17.2 391.401 16 394.134 16 397.401ZM48.5 452.773C51.5667 454.773 53.9667 457.273 55.7 460.273C57.5 463.273 58.4 466.606 58.4 470.273H40.3V465.573C40.3 461.306 39.3667 458.106 37.5 455.973C35.7 453.839 32.5 452.773 27.9 452.773H2V435.673H57.8V452.773H48.5Z" fill="#D8D8D8" fill-opacity="0.01"/>
        <path className='going-up' d="M38 43.7L38.4794 43.558L37.511 43.5958L38 43.7ZM31.9 53.5L31.5947 53.104L31.5907 53.1071L31.9 53.5ZM7.1 51L6.71641 51.3207L6.7169 51.3213L7.1 51ZM2 1.2V0.7H1.5V1.2H2ZM72.2 1.2H72.7V0.7H72.2V1.2ZM67.3 49.5L66.9127 49.1837L66.9102 49.1869L67.3 49.5ZM43.7 52.3L44.0135 51.9104L44.0076 51.9058L43.7 52.3ZM43.8 18.3V17.8H43.3V18.3H43.8ZM45.6 35.9L45.213 36.2166L45.2145 36.2184L45.6 35.9ZM56.6 35.9L56.2215 35.5731L56.2145 35.5816L56.6 35.9ZM58.5 18.3H59V17.8H58.5V18.3ZM17.7 37.5L17.3145 37.8184L17.3159 37.8201L17.7 37.5ZM29.2 37.4L28.8236 37.0707L28.8172 37.0784L29.2 37.4ZM31.3 18.3H31.8V17.8H31.3V18.3ZM15.8 18.3V17.8H15.3V18.3H15.8ZM37.511 43.5958C36.6682 47.5502 34.6979 50.712 31.5947 53.104L32.2053 53.896C35.5021 51.3547 37.5984 47.9832 38.489 43.8042L37.511 43.5958ZM31.5907 53.1071C28.5474 55.5029 25.0569 56.7 21.1 56.7V57.7C25.2765 57.7 28.9859 56.4304 32.2093 53.8929L31.5907 53.1071ZM21.1 56.7C15.3665 56.7 10.8457 54.688 7.48309 50.6787L6.7169 51.3213C10.2876 55.5787 15.1002 57.7 21.1 57.7V56.7ZM7.4836 50.6793C4.18318 46.7317 2.5 41.1608 2.5 33.9H1.5C1.5 41.3059 3.21681 47.1349 6.71641 51.3207L7.4836 50.6793ZM2.5 33.9L2.5 1.2L1.5 1.2L1.5 33.9H2.5ZM2 1.7L72.2 1.7V0.7L2 0.7V1.7ZM71.7 1.2V32.8H72.7V1.2H71.7ZM71.7 32.8C71.7 39.8616 70.083 45.3017 66.9127 49.1837L67.6873 49.8163C71.0503 45.6983 72.7 40.0051 72.7 32.8H71.7ZM66.9102 49.1869C63.7462 53.1258 59.4613 55.1 54 55.1V56.1C59.7387 56.1 64.3205 54.0076 67.6898 49.8131L66.9102 49.1869ZM54 55.1C49.9595 55.1 46.6428 54.0267 44.0135 51.9105L43.3865 52.6895C46.2239 54.9733 49.7738 56.1 54 56.1V55.1ZM44.0076 51.9058C41.3633 49.842 39.5191 47.0668 38.4794 43.558L37.5206 43.842C38.6143 47.5332 40.57 50.4914 43.3924 52.6942L44.0076 51.9058ZM43.3 18.3V29.5H44.3V18.3H43.3ZM43.3 29.5C43.3 32.3622 43.9121 34.6266 45.213 36.2166L45.987 35.5834C44.8879 34.24 44.3 32.2379 44.3 29.5H43.3ZM45.2145 36.2184C46.5959 37.8906 48.5849 38.7 51.1 38.7V37.7C48.8151 37.7 47.1374 36.976 45.9855 35.5816L45.2145 36.2184ZM51.1 38.7C53.6151 38.7 55.6041 37.8906 56.9855 36.2184L56.2145 35.5816C55.0626 36.976 53.3849 37.7 51.1 37.7V38.7ZM56.9784 36.2268C58.3521 34.6363 59 32.3676 59 29.5H58C58 32.2324 57.3813 34.2304 56.2216 35.5732L56.9784 36.2268ZM59 29.5L59 18.3H58L58 29.5H59ZM58.5 17.8L43.8 17.8V18.8L58.5 18.8V17.8ZM15.3 30.9C15.3 33.8328 15.9472 36.1633 17.3145 37.8184L18.0855 37.1816C16.9195 35.7701 16.3 33.7006 16.3 30.9H15.3ZM17.3159 37.8201C18.762 39.5555 20.8152 40.4 23.4 40.4V39.4C21.0514 39.4 19.3046 38.6445 18.0841 37.1799L17.3159 37.8201ZM23.4 40.4C25.9923 40.4 28.0745 39.5172 29.5829 37.7216L28.8172 37.0784C27.5255 38.6161 25.741 39.4 23.4 39.4V40.4ZM29.5763 37.7293C31.0802 36.0105 31.8 33.6452 31.8 30.7H30.8C30.8 33.4881 30.1198 35.5895 28.8237 37.0708L29.5763 37.7293ZM31.8 30.7V18.3H30.8V30.7H31.8ZM31.3 17.8L15.8 17.8V18.8L31.3 18.8V17.8ZM15.3 18.3V30.9H16.3V18.3H15.3ZM76 84.218V84.718H76.5V84.218H76ZM2 84.218H1.5V84.718H2V84.218ZM2 67.118V66.618H1.5V67.118H2ZM76 67.118H76.5V66.618H76V67.118ZM76 83.718L2 83.718V84.718L76 84.718V83.718ZM2.5 84.218V67.118H1.5V84.218H2.5ZM2 67.618L76 67.618V66.618L2 66.618V67.618ZM75.5 67.118V84.218H76.5V67.118H75.5ZM4.7 107.21L4.25976 106.973L4.25827 106.976L4.7 107.21ZM14.7 96.9102L14.4526 96.4756L14.4477 96.4785L14.7 96.9102ZM45 97.0102L44.7476 97.4418L44.7505 97.4435L45 97.0102ZM55.1 107.41L54.6583 107.644L55.1 107.41ZM55.1 137.01L54.6583 136.776L55.1 137.01ZM45 147.41L44.7505 146.977L44.7477 146.979L45 147.41ZM14.7 147.31L14.9544 146.88L14.9523 146.879L14.7 147.31ZM4.7 136.81L5.14318 136.579L5.14173 136.576L4.7 136.81ZM19.6 130.31L19.9486 129.952L19.9433 129.947L19.6 130.31ZM40.2 130.41L39.8621 130.042L39.8567 130.047L40.2 130.41ZM40.2 113.91L39.857 114.274L39.8621 114.279L40.2 113.91ZM19.6 113.81L19.2678 113.436L19.2621 113.442L19.6 113.81ZM1.7 122.01C1.7 116.617 2.8503 111.765 5.14173 107.444L4.25827 106.976C1.88303 111.455 0.699997 116.47 0.699997 122.01H1.7ZM5.14024 107.447C7.42911 103.196 10.6967 99.8297 14.9523 97.3418L14.4477 96.4785C10.0367 99.0572 6.63757 102.557 4.25977 106.973L5.14024 107.447ZM14.9473 97.3447C19.1938 94.9275 24.1724 93.7102 29.9 93.7102V92.7102C24.0276 92.7102 18.8729 93.9595 14.4527 96.4756L14.9473 97.3447ZM29.9 93.7102C35.5575 93.7102 40.5012 94.9593 44.7477 97.4418L45.2523 96.5785C40.8321 93.9944 35.7092 92.7102 29.9 92.7102V93.7102ZM44.7505 97.4435C49.0707 99.9308 52.3699 103.329 54.6583 107.644L55.5417 107.176C53.1634 102.691 49.7293 99.1562 45.2495 96.5768L44.7505 97.4435ZM54.6583 107.644C56.9497 111.965 58.1 116.817 58.1 122.21H59.1C59.1 116.67 57.917 111.655 55.5417 107.176L54.6583 107.644ZM58.1 122.21C58.1 127.603 56.9497 132.455 54.6583 136.776L55.5417 137.244C57.917 132.765 59.1 127.75 59.1 122.21H58.1ZM54.6583 136.776C52.3699 141.091 49.0707 144.49 44.7505 146.977L45.2495 147.843C49.7293 145.264 53.1634 141.729 55.5417 137.244L54.6583 136.776ZM44.7477 146.979C40.5012 149.461 35.5575 150.71 29.9 150.71V151.71C35.7092 151.71 40.8321 150.426 45.2523 147.842L44.7477 146.979ZM29.9 150.71C24.245 150.71 19.2683 149.429 14.9544 146.88L14.4456 147.741C18.9317 150.392 24.0883 151.71 29.9 151.71V150.71ZM14.9523 146.879C10.7005 144.393 7.43316 140.962 5.14317 136.579L4.25683 137.042C6.63351 141.591 10.0328 145.161 14.4477 147.742L14.9523 146.879ZM5.14173 136.576C2.8503 132.255 1.7 127.403 1.7 122.01H0.699997C0.699997 127.55 1.88303 132.565 4.25827 137.044L5.14173 136.576ZM15.5 122.01C15.5 125.416 16.7579 128.314 19.2567 130.674L19.9433 129.947C17.6421 127.773 16.5 125.138 16.5 122.01H15.5ZM19.2515 130.669C21.7726 133.12 25.3479 134.31 29.9 134.31V133.31C25.5187 133.31 22.2274 132.167 19.9485 129.952L19.2515 130.669ZM29.9 134.31C34.4484 134.31 38.0218 133.155 40.5433 130.774L39.8567 130.047C37.5782 132.199 34.2849 133.31 29.9 133.31V134.31ZM40.5379 130.779C43.0416 128.484 44.3 125.616 44.3 122.21H43.3C43.3 125.337 42.1584 127.937 39.8621 130.042L40.5379 130.779ZM44.3 122.21C44.3 118.74 43.0439 115.839 40.5379 113.542L39.8621 114.279C42.1561 116.381 43.3 119.013 43.3 122.21H44.3ZM40.543 113.546C38.0845 111.228 34.508 110.11 29.9 110.11V111.11C34.3587 111.11 37.6488 112.192 39.857 114.274L40.543 113.546ZM29.9 110.11C25.3588 110.11 21.7897 111.195 19.2678 113.436L19.9322 114.184C22.2103 112.159 25.5079 111.11 29.9 111.11V110.11ZM19.2621 113.442C16.7584 115.737 15.5 118.604 15.5 122.01H16.5C16.5 118.883 17.6416 116.284 19.9379 114.179L19.2621 113.442ZM52.1 247.982L51.7522 247.623L51.7493 247.626L52.1 247.982ZM2 254.182H1.5V254.682H2V254.182ZM2 237.182V236.682H1.5V237.182H2ZM40.6 234.282L40.2588 233.917L40.2525 233.922L40.2464 233.928L40.6 234.282ZM40.6 218.582L40.9475 218.223L40.9473 218.222L40.6 218.582ZM2 215.782H1.5V216.282H2V215.782ZM2 198.782V198.282H1.5V198.782H2ZM40.6 195.882L40.2588 195.517L40.2525 195.522L40.2464 195.528L40.6 195.882ZM40.6 180.182L40.9475 179.823L40.9473 179.822L40.6 180.182ZM2 177.382H1.5V177.882H2V177.382ZM2 160.282V159.782H1.5V160.282H2ZM57.8 160.282H58.3V159.782H57.8V160.282ZM57.8 177.382V177.882H58.3V177.382H57.8ZM50.8 177.382V176.882H49.2885L50.5018 177.783L50.8 177.382ZM56.3 184.182L55.8485 184.397L55.8528 184.406L56.3 184.182ZM55.7 204.882L55.2621 204.641L55.26 204.644L55.7 204.882ZM48 212.682L47.7557 212.246L47.0221 212.657L47.7333 213.105L48 212.682ZM55.5 220.582L55.0675 220.833L55.5 220.582ZM57.9 231.482C57.9 238.307 55.837 243.668 51.7522 247.623L52.4478 248.341C56.763 244.163 58.9 238.524 58.9 231.482H57.9ZM51.7493 247.626C47.6661 251.644 41.9722 253.682 34.6 253.682V254.682C42.1611 254.682 48.1339 252.587 52.4507 248.338L51.7493 247.626ZM34.6 253.682H2V254.682H34.6V253.682ZM2.5 254.182V237.182H1.5V254.182H2.5ZM2 237.682L32.3 237.682V236.682L2 236.682V237.682ZM32.3 237.682C35.989 237.682 38.8996 236.69 40.9536 234.636L40.2464 233.928C38.4338 235.741 35.811 236.682 32.3 236.682V237.682ZM40.9412 234.648C43.0641 232.666 44.1 229.921 44.1 226.482H43.1C43.1 229.709 42.1359 232.165 40.2588 233.917L40.9412 234.648ZM44.1 226.482C44.1 223.042 43.064 220.268 40.9475 218.223L40.2525 218.942C42.136 220.762 43.1 223.255 43.1 226.482H44.1ZM40.9473 218.222C38.8927 216.239 35.9844 215.282 32.3 215.282V216.282C35.8156 216.282 38.4407 217.192 40.2527 218.942L40.9473 218.222ZM32.3 215.282L2 215.282V216.282L32.3 216.282V215.282ZM2.5 215.782V198.782H1.5V215.782H2.5ZM2 199.282L32.3 199.282V198.282L2 198.282V199.282ZM32.3 199.282C35.989 199.282 38.8996 198.29 40.9536 196.236L40.2464 195.528C38.4338 197.341 35.811 198.282 32.3 198.282V199.282ZM40.9412 196.248C43.0641 194.266 44.1 191.521 44.1 188.082H43.1C43.1 191.309 42.1359 193.765 40.2588 195.517L40.9412 196.248ZM44.1 188.082C44.1 184.642 43.064 181.868 40.9475 179.823L40.2525 180.542C42.136 182.362 43.1 184.855 43.1 188.082H44.1ZM40.9473 179.822C38.8927 177.839 35.9844 176.882 32.3 176.882V177.882C35.8156 177.882 38.4407 178.792 40.2527 180.542L40.9473 179.822ZM32.3 176.882L2 176.882V177.882L32.3 177.882V176.882ZM2.5 177.382V160.282H1.5V177.382H2.5ZM2 160.782L57.8 160.782V159.782L2 159.782V160.782ZM57.3 160.282V177.382H58.3V160.282H57.3ZM57.8 176.882H50.8V177.882H57.8V176.882ZM50.5018 177.783C52.7653 179.465 54.5479 181.666 55.8486 184.397L56.7514 183.967C55.3854 181.098 53.5014 178.766 51.0982 176.981L50.5018 177.783ZM55.8528 184.406C57.2138 187.128 57.9 190.216 57.9 193.682H58.9C58.9 190.081 58.1862 186.836 56.7472 183.958L55.8528 184.406ZM57.9 193.682C57.9 197.808 57.0164 201.457 55.2621 204.641L56.1379 205.123C57.9836 201.774 58.9 197.956 58.9 193.682H57.9ZM55.26 204.644C53.5055 207.894 51.007 210.425 47.7557 212.246L48.2443 213.118C51.6596 211.206 54.2945 208.537 56.14 205.12L55.26 204.644ZM47.7333 213.105C50.7273 214.993 53.1721 217.565 55.0675 220.833L55.9325 220.331C53.9613 216.932 51.406 214.238 48.2667 212.259L47.7333 213.105ZM55.0675 220.833C56.9557 224.088 57.9 227.635 57.9 231.482H58.9C58.9 227.463 57.911 223.742 55.9325 220.331L55.0675 220.833ZM52.1 353.841L51.7522 353.482L51.7493 353.485L52.1 353.841ZM2 360.041H1.5V360.541H2V360.041ZM2 343.041V342.541H1.5V343.041H2ZM40.6 340.141L40.2588 339.776L40.2525 339.782L40.2464 339.788L40.6 340.141ZM40.6 324.441L40.9475 324.082L40.9473 324.082L40.6 324.441ZM2 321.641H1.5V322.141H2V321.641ZM2 304.641V304.141H1.5V304.641H2ZM40.6 301.741L40.2588 301.376L40.2525 301.382L40.2464 301.388L40.6 301.741ZM40.6 286.041L40.9475 285.682L40.9473 285.682L40.6 286.041ZM2 283.241H1.5V283.741H2V283.241ZM2 266.141L2 265.641H1.5L1.5 266.141H2ZM57.8 266.141H58.3V265.641H57.8V266.141ZM57.8 283.241V283.741H58.3V283.241H57.8ZM50.8 283.241V282.741H49.2885L50.5018 283.643L50.8 283.241ZM56.3 290.041L55.8485 290.256L55.8528 290.265L56.3 290.041ZM55.7 310.741L55.2621 310.5L55.26 310.504L55.7 310.741ZM48 318.541L47.7557 318.105L47.0221 318.516L47.7333 318.964L48 318.541ZM55.5 326.441L55.0675 326.692L55.5 326.441ZM57.9 337.341C57.9 344.167 55.837 349.527 51.7522 353.482L52.4478 354.201C56.763 350.022 58.9 344.383 58.9 337.341H57.9ZM51.7493 353.485C47.6661 357.503 41.9722 359.541 34.6 359.541V360.541C42.1611 360.541 48.1339 358.446 52.4507 354.198L51.7493 353.485ZM34.6 359.541H2V360.541H34.6V359.541ZM2.5 360.041L2.5 343.041H1.5L1.5 360.041H2.5ZM2 343.541H32.3V342.541H2L2 343.541ZM32.3 343.541C35.989 343.541 38.8996 342.549 40.9536 340.495L40.2464 339.788C38.4338 341.601 35.811 342.541 32.3 342.541V343.541ZM40.9412 340.507C43.0641 338.526 44.1 335.781 44.1 332.341H43.1C43.1 335.569 42.1359 338.024 40.2588 339.776L40.9412 340.507ZM44.1 332.341C44.1 328.901 43.064 326.128 40.9475 324.082L40.2525 324.801C42.136 326.622 43.1 329.115 43.1 332.341H44.1ZM40.9473 324.082C38.8927 322.098 35.9844 321.141 32.3 321.141V322.141C35.8156 322.141 38.4407 323.052 40.2527 324.801L40.9473 324.082ZM32.3 321.141H2V322.141H32.3V321.141ZM2.5 321.641V304.641H1.5V321.641H2.5ZM2 305.141H32.3V304.141H2V305.141ZM32.3 305.141C35.989 305.141 38.8996 304.149 40.9536 302.095L40.2464 301.388C38.4338 303.201 35.811 304.141 32.3 304.141V305.141ZM40.9412 302.107C43.0641 300.126 44.1 297.381 44.1 293.941H43.1C43.1 297.169 42.1359 299.624 40.2588 301.376L40.9412 302.107ZM44.1 293.941C44.1 290.501 43.064 287.728 40.9475 285.682L40.2525 286.401C42.136 288.222 43.1 290.715 43.1 293.941H44.1ZM40.9473 285.682C38.8927 283.698 35.9844 282.741 32.3 282.741V283.741C35.8156 283.741 38.4407 284.652 40.2527 286.401L40.9473 285.682ZM32.3 282.741H2V283.741H32.3V282.741ZM2.5 283.241V266.141H1.5V283.241H2.5ZM2 266.641H57.8V265.641H2L2 266.641ZM57.3 266.141L57.3 283.241H58.3L58.3 266.141H57.3ZM57.8 282.741H50.8V283.741H57.8V282.741ZM50.5018 283.643C52.7653 285.324 54.5479 287.525 55.8486 290.256L56.7514 289.826C55.3854 286.958 53.5014 284.625 51.0982 282.84L50.5018 283.643ZM55.8528 290.265C57.2138 292.987 57.9 296.076 57.9 299.541H58.9C58.9 295.941 58.1862 292.696 56.7472 289.818L55.8528 290.265ZM57.9 299.541C57.9 303.668 57.0164 307.316 55.2621 310.5L56.1379 310.983C57.9836 307.633 58.9 303.815 58.9 299.541H57.9ZM55.26 310.504C53.5055 313.753 51.007 316.284 47.7557 318.105L48.2443 318.978C51.6596 317.065 54.2945 314.397 56.14 310.979L55.26 310.504ZM47.7333 318.964C50.7273 320.852 53.1721 323.424 55.0675 326.692L55.9325 326.191C53.9613 322.792 51.406 320.098 48.2667 318.118L47.7333 318.964ZM55.0675 326.692C56.9557 329.948 57.9 333.494 57.9 337.341H58.9C58.9 333.322 57.911 329.602 55.9325 326.191L55.0675 326.692ZM4.7 382.601L4.25976 382.364L4.25827 382.367L4.7 382.601ZM14.7 372.301L14.4526 371.866L14.4477 371.869L14.7 372.301ZM45 372.401L44.7476 372.832L44.7505 372.834L45 372.401ZM55.1 382.801L54.6583 383.035L55.1 382.801ZM55.1 412.401L54.6583 412.167L55.1 412.401ZM45 422.801L44.7505 422.367L44.7477 422.369L45 422.801ZM14.7 422.701L14.9544 422.27L14.9523 422.269L14.7 422.701ZM4.7 412.201L5.14318 411.969L5.14173 411.967L4.7 412.201ZM19.6 405.701L19.9486 405.342L19.9433 405.337L19.6 405.701ZM40.2 405.801L39.8621 405.432L39.8567 405.437L40.2 405.801ZM40.2 389.301L39.857 389.665L39.8621 389.669L40.2 389.301ZM19.6 389.201L19.2678 388.827L19.2621 388.832L19.6 389.201ZM1.7 397.401C1.7 392.008 2.8503 387.156 5.14173 382.835L4.25827 382.367C1.88303 386.846 0.699997 391.861 0.699997 397.401H1.7ZM5.14024 382.838C7.42911 378.587 10.6967 375.22 14.9523 372.732L14.4477 371.869C10.0367 374.448 6.63757 377.948 4.25977 382.364L5.14024 382.838ZM14.9473 372.735C19.1938 370.318 24.1724 369.101 29.9 369.101V368.101C24.0276 368.101 18.8729 369.35 14.4527 371.866L14.9473 372.735ZM29.9 369.101C35.5575 369.101 40.5012 370.35 44.7477 372.832L45.2523 371.969C40.8321 369.385 35.7092 368.101 29.9 368.101V369.101ZM44.7505 372.834C49.0707 375.321 52.3699 378.72 54.6583 383.035L55.5417 382.567C53.1634 378.082 49.7293 374.547 45.2495 371.967L44.7505 372.834ZM54.6583 383.035C56.9497 387.356 58.1 392.208 58.1 397.601H59.1C59.1 392.061 57.917 387.046 55.5417 382.567L54.6583 383.035ZM58.1 397.601C58.1 402.994 56.9497 407.846 54.6583 412.167L55.5417 412.635C57.917 408.156 59.1 403.141 59.1 397.601H58.1ZM54.6583 412.167C52.3699 416.482 49.0707 419.88 44.7505 422.367L45.2495 423.234C49.7293 420.655 53.1634 417.12 55.5417 412.635L54.6583 412.167ZM44.7477 422.369C40.5012 424.852 35.5575 426.101 29.9 426.101V427.101C35.7092 427.101 40.8321 425.817 45.2523 423.232L44.7477 422.369ZM29.9 426.101C24.245 426.101 19.2683 424.819 14.9544 422.27L14.4456 423.131C18.9317 425.782 24.0883 427.101 29.9 427.101V426.101ZM14.9523 422.269C10.7005 419.783 7.43316 416.353 5.14317 411.969L4.25683 412.432C6.63351 416.982 10.0328 420.551 14.4477 423.132L14.9523 422.269ZM5.14173 411.967C2.8503 407.646 1.7 402.794 1.7 397.401H0.699997C0.699997 402.941 1.88303 407.956 4.25827 412.435L5.14173 411.967ZM15.5 397.401C15.5 400.807 16.7579 403.704 19.2567 406.064L19.9433 405.337C17.6421 403.164 16.5 400.528 16.5 397.401H15.5ZM19.2515 406.059C21.7726 408.51 25.3479 409.701 29.9 409.701V408.701C25.5187 408.701 22.2274 407.558 19.9485 405.342L19.2515 406.059ZM29.9 409.701C34.4484 409.701 38.0218 408.546 40.5433 406.164L39.8567 405.437C37.5782 407.589 34.2849 408.701 29.9 408.701V409.701ZM40.5379 406.169C43.0416 403.874 44.3 401.007 44.3 397.601H43.3C43.3 400.728 42.1584 403.327 39.8621 405.432L40.5379 406.169ZM44.3 397.601C44.3 394.131 43.0439 391.229 40.5379 388.932L39.8621 389.669C42.1561 391.772 43.3 394.404 43.3 397.601H44.3ZM40.543 388.937C38.0845 386.619 34.508 385.501 29.9 385.501V386.501C34.3587 386.501 37.6488 387.583 39.857 389.665L40.543 388.937ZM29.9 385.501C25.3588 385.501 21.7897 386.585 19.2678 388.827L19.9322 389.574C22.2103 387.549 25.5079 386.501 29.9 386.501V385.501ZM19.2621 388.832C16.7584 391.127 15.5 393.995 15.5 397.401H16.5C16.5 394.274 17.6416 391.674 19.9379 389.569L19.2621 388.832ZM48.5 452.773V452.273H46.818L48.2269 453.191L48.5 452.773ZM55.7 460.273L55.267 460.523L55.2713 460.53L55.7 460.273ZM58.4 470.273V470.773H58.9V470.273H58.4ZM40.3 470.273H39.8V470.773H40.3V470.273ZM37.5 455.973L37.1178 456.295L37.1237 456.302L37.5 455.973ZM2 452.773H1.5V453.273H2V452.773ZM2 435.673V435.173H1.5V435.673H2ZM57.8 435.673H58.3V435.173H57.8V435.673ZM57.8 452.773V453.273H58.3V452.773H57.8ZM48.2269 453.191C51.2316 455.151 53.5752 457.595 55.2671 460.523L56.1329 460.023C54.3581 456.951 51.9017 454.394 48.7731 452.354L48.2269 453.191ZM55.2713 460.53C57.0223 463.448 57.9 466.692 57.9 470.273H58.9C58.9 466.52 57.9777 463.097 56.1287 460.015L55.2713 460.53ZM58.4 469.773H40.3V470.773H58.4V469.773ZM40.8 470.273V465.573H39.8V470.273H40.8ZM40.8 465.573C40.8 461.244 39.8546 457.904 37.8763 455.643L37.1237 456.302C38.8788 458.308 39.8 461.368 39.8 465.573H40.8ZM37.8821 455.65C35.9401 453.349 32.5541 452.273 27.9 452.273V453.273C32.4459 453.273 35.4599 454.33 37.1179 456.295L37.8821 455.65ZM27.9 452.273H2V453.273H27.9V452.273ZM2.5 452.773V435.673H1.5V452.773H2.5ZM2 436.173H57.8V435.173H2V436.173ZM57.3 435.673V452.773H58.3V435.673H57.3ZM57.8 452.273H48.5V453.273H57.8V452.273Z" fill="#EEE1E1"/>
        </svg>