  <svg width="37" height="385" viewBox="0 0 37 385" fill="none" xmlns="http://www.w3.org/2000/svg">
<path d="M72.6998 356.4C72.6998 361.533 71.8664 366.133 70.1998 370.2C68.5331 374.267 66.0664 377.533 62.7998 380C59.5331 382.4 55.5998 383.667 50.9998 383.8L50.9998 365.6C53.5998 365.333 55.5998 364.433 56.9998 362.9C58.3331 361.367 58.9998 359.367 58.9998 356.9C58.9998 354.367 58.4331 352.367 57.2998 350.9C56.0998 349.433 54.4664 348.7 52.3998 348.7C50.6664 348.7 49.2331 349.3 48.0998 350.5C46.9664 351.633 46.0331 353.067 45.2998 354.8C44.5664 356.467 43.7331 358.867 42.7998 362C41.3998 366.533 39.9998 370.233 38.5998 373.1C37.1998 375.967 35.1331 378.433 32.3998 380.5C29.6664 382.567 26.0998 383.6 21.6998 383.6C15.1664 383.6 10.0664 381.233 6.39975 376.5C2.66642 371.767 0.799755 365.6 0.799755 358C0.799755 350.267 2.66642 344.033 6.39975 339.3C10.0664 334.567 15.1998 332.033 21.7998 331.7L21.7998 350.2C19.5331 350.333 17.7664 351.167 16.4998 352.7C15.1664 354.233 14.4998 356.2 14.4998 358.6C14.4998 360.667 15.0664 362.333 16.1998 363.6C17.2664 364.867 18.8331 365.5 20.8998 365.5C23.1664 365.5 24.9331 364.433 26.1998 362.3C27.4664 360.167 28.8331 356.833 30.2998 352.3C31.8331 347.767 33.2998 344.1 34.6998 341.3C36.0998 338.433 38.1331 335.967 40.7998 333.9C43.4664 331.833 46.8998 330.8 51.0998 330.8C55.0998 330.8 58.7331 331.833 61.9998 333.9C65.2664 335.9 67.8664 338.833 69.7998 342.7C71.7331 346.567 72.6998 351.133 72.6998 356.4ZM57.4998 289.177H71.9998V297.877C71.9998 304.077 70.4998 308.91 67.4998 312.377C64.4331 315.843 59.4664 317.577 52.5998 317.577H30.3998L30.3998 324.377H16.1998V317.577H2.59976L2.59976 300.477H16.1998L16.1998 289.277H30.3998L30.3998 300.477H52.7998C54.4664 300.477 55.6664 300.077 56.3998 299.277C57.1331 298.477 57.4998 297.143 57.4998 295.277V289.177ZM25.4998 262.552C22.4331 260.552 20.0331 258.052 18.2998 255.052C16.4998 252.052 15.5998 248.718 15.5998 245.052H33.6998V249.752C33.6998 254.018 34.6331 257.218 36.4998 259.352C38.2998 261.485 41.4998 262.552 46.0998 262.552H71.9998V279.652H16.1998L16.1998 262.552H25.4998ZM43.9998 240.278C38.2664 240.278 33.2331 239.211 28.8998 237.078C24.5664 234.878 21.2331 231.911 18.8998 228.178C16.5664 224.445 15.3998 220.278 15.3998 215.678C15.3998 211.745 16.1998 208.311 17.7998 205.378C19.3998 202.378 21.4998 200.078 24.0998 198.478H16.1998L16.1998 181.378L71.9998 181.378L71.9998 198.478H64.0998C66.6998 200.145 68.7998 202.478 70.3998 205.478C71.9998 208.411 72.7998 211.845 72.7998 215.778C72.7998 220.311 71.6331 224.445 69.2998 228.178C66.8998 231.911 63.5331 234.878 59.1998 237.078C54.7998 239.211 49.7331 240.278 43.9998 240.278ZM44.0998 198.478C39.8331 198.478 36.4664 199.678 33.9998 202.078C31.5331 204.411 30.2998 207.278 30.2998 210.678C30.2998 214.078 31.5331 216.978 33.9998 219.378C36.3998 221.711 39.7331 222.878 43.9998 222.878C48.2664 222.878 51.6664 221.711 54.1998 219.378C56.6664 216.978 57.8998 214.078 57.8998 210.678C57.8998 207.278 56.6664 204.411 54.1998 202.078C51.7331 199.678 48.3664 198.478 44.0998 198.478ZM16.1998 113.907H71.9998V131.007H64.3998C66.8664 132.74 68.8664 135.107 70.3998 138.107C71.8664 141.04 72.5998 144.307 72.5998 147.907C72.5998 152.174 71.6664 155.94 69.7998 159.207C67.8664 162.474 65.0998 165.007 61.4998 166.807C57.8998 168.607 53.6664 169.507 48.7998 169.507L16.1998 169.507L16.1998 152.507L46.4998 152.507C50.2331 152.507 53.1331 151.54 55.1998 149.607C57.2664 147.674 58.2998 145.074 58.2998 141.807C58.2998 138.474 57.2664 135.84 55.1998 133.907C53.1331 131.974 50.2331 131.007 46.4998 131.007H16.1998L16.1998 113.907ZM72.7998 78.9242C72.7998 83.7909 71.9664 88.1242 70.2998 91.9242C68.6331 95.7242 66.3664 98.7242 63.4998 100.924C60.5664 103.124 57.2998 104.358 53.6998 104.624V87.7242C55.6331 87.5242 57.1998 86.6242 58.3998 85.0242C59.5998 83.4242 60.1998 81.4576 60.1998 79.1242C60.1998 76.9909 59.7998 75.3576 58.9998 74.2242C58.1331 73.0242 57.0331 72.4242 55.6998 72.4242C54.0998 72.4242 52.9331 73.2576 52.1998 74.9242C51.3998 76.5909 50.5331 79.2909 49.5998 83.0242C48.6664 87.0242 47.6998 90.3576 46.6998 93.0242C45.6331 95.6909 43.9998 97.9909 41.7998 99.9242C39.5331 101.858 36.4998 102.824 32.6998 102.824C29.4998 102.824 26.5998 101.958 23.9998 100.224C21.3331 98.4242 19.2331 95.8242 17.6998 92.4242C16.1664 88.9576 15.3998 84.8576 15.3998 80.1242C15.3998 73.1242 17.1331 67.6242 20.5998 63.6242C24.0664 59.5575 28.6664 57.2242 34.3998 56.6242L34.3998 72.4242C32.4664 72.6909 30.9331 73.5576 29.7998 75.0242C28.6664 76.4242 28.0998 78.2909 28.0998 80.6242C28.0998 82.6242 28.4998 84.1576 29.2998 85.2242C30.0331 86.2909 31.0664 86.8242 32.3998 86.8242C33.9998 86.8242 35.1998 85.9909 35.9998 84.3242C36.7998 82.5909 37.5998 79.9242 38.3998 76.3242C39.4664 72.1909 40.5331 68.8242 41.5998 66.2242C42.5998 63.6242 44.2664 61.3576 46.5998 59.4242C48.8664 57.4242 51.9331 56.3909 55.7998 56.3242C59.0664 56.3242 61.9998 57.2575 64.5998 59.1242C67.1331 60.9242 69.1331 63.5576 70.5998 67.0242C72.0664 70.4242 72.7998 74.3909 72.7998 78.9242ZM72.7998 23.1625C72.7998 28.0292 71.9664 32.3625 70.2998 36.1625C68.6331 39.9625 66.3664 42.9625 63.4998 45.1625C60.5664 47.3625 57.2998 48.5958 53.6998 48.8625V31.9625C55.6331 31.7625 57.1998 30.8625 58.3998 29.2625C59.5998 27.6625 60.1998 25.6958 60.1998 23.3625C60.1998 21.2292 59.7998 19.5958 58.9998 18.4625C58.1331 17.2625 57.0331 16.6625 55.6998 16.6625C54.0998 16.6625 52.9331 17.4958 52.1998 19.1625C51.3998 20.8292 50.5331 23.5292 49.5998 27.2625C48.6664 31.2625 47.6998 34.5958 46.6998 37.2625C45.6331 39.9292 43.9998 42.2292 41.7998 44.1625C39.5331 46.0958 36.4998 47.0625 32.6998 47.0625C29.4998 47.0625 26.5998 46.1958 23.9998 44.4625C21.3331 42.6625 19.2331 40.0625 17.6998 36.6625C16.1664 33.1958 15.3998 29.0958 15.3998 24.3625C15.3998 17.3625 17.1331 11.8625 20.5998 7.8625C24.0664 3.79583 28.6664 1.4625 34.3998 0.862498L34.3998 16.6625C32.4664 16.9292 30.9331 17.7958 29.7998 19.2625C28.6664 20.6625 28.0998 22.5292 28.0998 24.8625C28.0998 26.8625 28.4998 28.3958 29.2998 29.4625C30.0331 30.5292 31.0664 31.0625 32.3998 31.0625C33.9998 31.0625 35.1998 30.2292 35.9998 28.5625C36.7998 26.8292 37.5998 24.1625 38.3998 20.5625C39.4664 16.4292 40.5331 13.0625 41.5998 10.4625C42.5998 7.8625 44.2664 5.59583 46.5998 3.6625C48.8664 1.6625 51.9331 0.629165 55.7998 0.562495C59.0664 0.562495 61.9998 1.49583 64.5998 3.3625C67.1331 5.1625 69.1331 7.79583 70.5998 11.2625C72.0664 14.6625 72.7998 18.6292 72.7998 23.1625Z" fill="#D8D8D8" fill-opacity="0.01"/>
<path d="M70.1998 370.2L70.6624 370.39L70.1998 370.2ZM62.7998 380L63.0958 380.403L63.1011 380.399L62.7998 380ZM50.9998 383.8H50.4998V384.315L51.0142 384.3L50.9998 383.8ZM50.9998 365.6L50.9487 365.103L50.4998 365.149V365.6H50.9998ZM56.9998 362.9L57.3691 363.237L57.3771 363.228L56.9998 362.9ZM57.2998 350.9L57.6955 350.594L57.6867 350.583L57.2998 350.9ZM48.0998 350.5L48.4533 350.854L48.4584 350.848L48.4633 350.843L48.0998 350.5ZM45.2998 354.8L45.7575 355.001L45.7602 354.995L45.2998 354.8ZM42.7998 362L43.2775 362.148L43.2789 362.143L42.7998 362ZM38.5998 373.1L39.049 373.319L38.5998 373.1ZM32.3998 380.5L32.0982 380.101L32.3998 380.5ZM6.39975 376.5L6.79504 376.194L6.79234 376.19L6.39975 376.5ZM6.39975 339.3L6.79235 339.61L6.79503 339.606L6.39975 339.3ZM21.7998 331.7H22.2998V331.174L21.7745 331.201L21.7998 331.7ZM21.7998 350.2L21.8291 350.699L22.2998 350.671V350.2H21.7998ZM16.4998 352.7L16.8772 353.028L16.8852 353.018L16.4998 352.7ZM16.1998 363.6L16.5822 363.278L16.5774 363.272L16.5724 363.267L16.1998 363.6ZM26.1998 362.3L25.7698 362.045L26.1998 362.3ZM30.2998 352.3L29.8261 352.14L29.824 352.146L30.2998 352.3ZM34.6998 341.3L35.147 341.524L35.149 341.519L34.6998 341.3ZM40.7998 333.9L41.106 334.295L40.7998 333.9ZM61.9998 333.9L61.7324 334.323L61.7387 334.326L61.9998 333.9ZM69.7998 342.7L69.3525 342.924L69.7998 342.7ZM72.1998 356.4C72.1998 361.479 71.3753 366.013 69.7371 370.01L70.6624 370.39C72.3575 366.254 73.1998 361.588 73.1998 356.4H72.1998ZM69.7371 370.01C68.1019 374 65.6882 377.192 62.4985 379.601L63.1011 380.399C66.4446 377.874 68.9643 374.533 70.6624 370.39L69.7371 370.01ZM62.5037 379.597C59.3297 381.929 55.498 383.169 50.9853 383.3L51.0142 384.3C55.7015 384.164 59.7365 382.871 63.0958 380.403L62.5037 379.597ZM51.4998 383.8V365.6H50.4998L50.4998 383.8H51.4998ZM51.0508 366.097C53.7402 365.822 55.8664 364.883 57.369 363.237L56.6305 362.563C55.3331 363.984 53.4593 364.845 50.9487 365.103L51.0508 366.097ZM57.3771 363.228C58.8056 361.585 59.4998 359.46 59.4998 356.9H58.4998C58.4998 359.273 57.8606 361.148 56.6225 362.572L57.3771 363.228ZM59.4998 356.9C59.4998 354.296 58.9174 352.176 57.6954 350.594L56.9041 351.206C57.9488 352.558 58.4998 354.437 58.4998 356.9H59.4998ZM57.6867 350.583C56.3824 348.989 54.6009 348.2 52.3998 348.2V349.2C54.3319 349.2 55.8171 349.877 56.9128 351.217L57.6867 350.583ZM52.3998 348.2C50.5366 348.2 48.9692 348.851 47.7362 350.157L48.4633 350.843C49.4969 349.749 50.7962 349.2 52.3998 349.2V348.2ZM47.7462 350.146C46.5601 351.333 45.5934 352.823 44.8393 354.605L45.7602 354.995C46.4728 353.311 47.3727 351.934 48.4533 350.854L47.7462 350.146ZM44.8421 354.599C44.0963 356.294 43.256 358.717 42.3206 361.857L43.2789 362.143C44.2102 359.016 45.0366 356.64 45.7574 355.001L44.8421 354.599ZM42.322 361.852C40.9263 366.372 39.5351 370.045 38.1505 372.881L39.049 373.319C40.4644 370.421 41.8732 366.695 43.2775 362.148L42.322 361.852ZM38.1505 372.881C36.7875 375.672 34.7736 378.078 32.0982 380.101L32.7013 380.899C35.4925 378.788 37.612 376.262 39.049 373.319L38.1505 372.881ZM32.0982 380.101C29.4736 382.086 26.022 383.1 21.6998 383.1V384.1C26.1775 384.1 29.8592 383.048 32.7013 380.899L32.0982 380.101ZM21.6998 383.1C15.3048 383.1 10.3575 380.793 6.79503 376.194L6.00448 376.806C9.77535 381.674 15.028 384.1 21.6998 384.1V383.1ZM6.79234 376.19C3.14504 371.566 1.29976 365.517 1.29976 358H0.299755C0.299755 365.683 2.1878 371.967 6.00717 376.81L6.79234 376.19ZM1.29976 358C1.29976 350.347 3.14618 344.232 6.79234 339.61L6.00717 338.99C2.18666 343.834 0.299755 350.186 0.299755 358H1.29976ZM6.79503 339.606C10.3625 335.001 15.3536 332.526 21.825 332.199L21.7745 331.201C15.0459 331.54 9.77036 334.132 6.00448 338.994L6.79503 339.606ZM21.2998 331.7L21.2998 350.2H22.2998L22.2998 331.7H21.2998ZM21.7704 349.701C19.3867 349.841 17.4823 350.726 16.1143 352.382L16.8852 353.018C18.0505 351.608 19.6795 350.826 21.8291 350.699L21.7704 349.701ZM16.1225 352.372C14.6961 354.012 13.9998 356.102 13.9998 358.6H14.9998C14.9998 356.298 15.6367 354.454 16.8771 353.028L16.1225 352.372ZM13.9998 358.6C13.9998 360.762 14.5949 362.556 15.8271 363.933L16.5724 363.267C15.5379 362.11 14.9998 360.571 14.9998 358.6H13.9998ZM15.8173 363.922C17.0019 365.329 18.7254 366 20.8998 366V365C18.9408 365 17.5309 364.405 16.5822 363.278L15.8173 363.922ZM20.8998 366C23.3621 366 25.2832 364.823 26.6297 362.555L25.7698 362.045C24.583 364.044 22.9707 365 20.8998 365V366ZM26.6297 362.555C27.9255 360.373 29.3058 356.997 30.7755 352.454L29.824 352.146C28.3604 356.67 27.0073 359.961 25.7698 362.045L26.6297 362.555ZM30.7734 352.46C32.3028 347.939 33.7611 344.295 35.147 341.524L34.2525 341.076C32.8384 343.905 31.3634 347.595 29.8261 352.14L30.7734 352.46ZM35.149 341.519C36.5135 338.725 38.4963 336.318 41.106 334.295L40.4935 333.505C37.7699 335.616 35.686 338.141 34.2505 341.081L35.149 341.519ZM41.106 334.295C43.6654 332.312 46.9829 331.3 51.0998 331.3V330.3C46.8166 330.3 43.2674 331.355 40.4935 333.505L41.106 334.295ZM51.0998 331.3C55.0086 331.3 58.5486 332.308 61.7324 334.323L62.2671 333.477C58.9175 331.358 55.1909 330.3 51.0998 330.3V331.3ZM61.7387 334.326C64.9156 336.271 67.4555 339.13 69.3525 342.924L70.247 342.476C68.2773 338.537 65.6172 335.529 62.2608 333.474L61.7387 334.326ZM69.3525 342.924C71.2444 346.707 72.1998 351.194 72.1998 356.4H73.1998C73.1998 351.072 72.2218 346.426 70.247 342.476L69.3525 342.924ZM57.4998 289.177V288.677H56.9998V289.177H57.4998ZM71.9998 289.177H72.4998V288.677H71.9998V289.177ZM67.4998 312.377L67.8743 312.708L67.8778 312.704L67.4998 312.377ZM30.3998 317.577V317.077H29.8998V317.577H30.3998ZM30.3998 324.377V324.877H30.8998V324.377H30.3998ZM16.1998 324.377H15.6998V324.877H16.1998V324.377ZM16.1998 317.577H16.6998V317.077H16.1998V317.577ZM2.59976 317.577H2.09976V318.077H2.59976V317.577ZM2.59976 300.477V299.977H2.09976V300.477H2.59976ZM16.1998 300.477V300.977H16.6998V300.477H16.1998ZM16.1998 289.277V288.777H15.6998V289.277H16.1998ZM30.3998 289.277H30.8998V288.777H30.3998V289.277ZM30.3998 300.477H29.8998V300.977H30.3998V300.477ZM56.3998 299.277L56.7683 299.614L56.3998 299.277ZM57.4998 289.677H71.9998V288.677H57.4998V289.677ZM71.4998 289.177V297.877H72.4998V289.177H71.4998ZM71.4998 297.877C71.4998 303.999 70.019 308.701 67.1217 312.049L67.8778 312.704C70.9805 309.118 72.4998 304.154 72.4998 297.877H71.4998ZM67.1253 312.045C64.1917 315.361 59.3933 317.077 52.5998 317.077V318.077C59.5396 318.077 64.6745 316.325 67.8743 312.708L67.1253 312.045ZM52.5998 317.077H30.3998V318.077H52.5998V317.077ZM29.8998 317.577L29.8998 324.377H30.8998L30.8998 317.577H29.8998ZM30.3998 323.877H16.1998V324.877H30.3998V323.877ZM16.6998 324.377V317.577H15.6998V324.377H16.6998ZM16.1998 317.077H2.59976V318.077H16.1998V317.077ZM3.09975 317.577L3.09975 300.477H2.09976L2.09976 317.577H3.09975ZM2.59976 300.977H16.1998V299.977H2.59976V300.977ZM16.6998 300.477L16.6998 289.277H15.6998L15.6998 300.477H16.6998ZM16.1998 289.777H30.3998V288.777H16.1998V289.777ZM29.8998 289.277L29.8998 300.477H30.8998L30.8998 289.277H29.8998ZM30.3998 300.977H52.7998V299.977H30.3998V300.977ZM52.7998 300.977C54.5321 300.977 55.8996 300.562 56.7683 299.614L56.0312 298.939C55.4333 299.591 54.4008 299.977 52.7998 299.977V300.977ZM56.7683 299.614C57.6292 298.675 57.9998 297.185 57.9998 295.277H56.9998C56.9998 297.101 56.637 298.278 56.0312 298.939L56.7683 299.614ZM57.9998 295.277V289.177H56.9998V295.277H57.9998ZM25.4998 262.552L25.4998 263.052H27.1817L25.7729 262.133L25.4998 262.552ZM18.2998 255.052L18.7327 254.801L18.7285 254.794L18.2998 255.052ZM15.5998 245.052V244.552H15.0998V245.052H15.5998ZM33.6998 245.052H34.1998V244.552H33.6998V245.052ZM36.4998 259.352L36.882 259.029L36.876 259.022L36.4998 259.352ZM71.9998 262.552H72.4998V262.052H71.9998V262.552ZM71.9998 279.652V280.152H72.4998V279.652H71.9998ZM16.1998 279.652H15.6998V280.152H16.1998V279.652ZM16.1998 262.552V262.052H15.6998V262.552H16.1998ZM25.7729 262.133C22.7682 260.173 20.4245 257.73 18.7327 254.801L17.8668 255.302C19.6417 258.374 22.098 260.93 25.2266 262.97L25.7729 262.133ZM18.7285 254.794C16.9774 251.876 16.0998 248.632 16.0998 245.052H15.0998C15.0998 248.804 16.0221 252.227 17.871 255.309L18.7285 254.794ZM15.5998 245.552H33.6998V244.552H15.5998V245.552ZM33.1998 245.052V249.752H34.1998V245.052H33.1998ZM33.1998 249.752C33.1998 254.08 34.1452 257.42 36.1235 259.681L36.876 259.022C35.121 257.017 34.1998 253.956 34.1998 249.752H33.1998ZM36.1176 259.674C38.0596 261.976 41.4456 263.052 46.0998 263.052L46.0998 262.052C41.5539 262.052 38.5399 260.994 36.8819 259.029L36.1176 259.674ZM46.0998 263.052H71.9998V262.052H46.0998L46.0998 263.052ZM71.4998 262.552V279.652H72.4998V262.552H71.4998ZM71.9998 279.152H16.1998V280.152H71.9998V279.152ZM16.6998 279.652L16.6998 262.552H15.6998L15.6998 279.652H16.6998ZM16.1998 263.052H25.4998L25.4998 262.052H16.1998V263.052ZM28.8998 237.078L28.6734 237.524L28.6789 237.527L28.8998 237.078ZM18.8998 228.178L19.3238 227.913L18.8998 228.178ZM17.7998 205.378L18.2387 205.618L18.2409 205.613L17.7998 205.378ZM24.0998 198.478L24.3618 198.904L25.8663 197.978H24.0998V198.478ZM16.1998 198.478H15.6998V198.978H16.1998V198.478ZM16.1998 181.378V180.878H15.6998V181.378H16.1998ZM71.9998 181.378H72.4998V180.878H71.9998V181.378ZM71.9998 198.478V198.978H72.4998V198.478H71.9998ZM64.0998 198.478V197.978H62.3933L63.8299 198.899L64.0998 198.478ZM70.3998 205.478L69.9586 205.713L69.9608 205.718L70.3998 205.478ZM69.2998 228.178L69.7204 228.449L69.7238 228.443L69.2998 228.178ZM59.1998 237.078L59.4179 237.528L59.4261 237.524L59.1998 237.078ZM33.9998 202.078L34.3434 202.441L34.3484 202.436L33.9998 202.078ZM33.9998 219.378L33.6511 219.736L33.6512 219.737L33.9998 219.378ZM54.1998 219.378L54.5386 219.746L54.5484 219.736L54.1998 219.378ZM54.1998 202.078L53.851 202.437L53.8562 202.441L54.1998 202.078ZM43.9998 239.778C38.3288 239.778 33.3735 238.723 29.1206 236.63L28.6789 237.527C33.0927 239.7 38.204 240.778 43.9998 240.778V239.778ZM29.1261 236.632C24.8652 234.469 21.604 231.561 19.3238 227.913L18.4758 228.443C20.8622 232.261 24.2676 235.287 28.6734 237.524L29.1261 236.632ZM19.3238 227.913C17.0424 224.263 15.8998 220.189 15.8998 215.678H14.8998C14.8998 220.367 16.0905 224.627 18.4758 228.443L19.3238 227.913ZM15.8998 215.678C15.8998 211.814 16.6853 208.465 18.2387 205.618L17.3608 205.139C15.7142 208.158 14.8998 211.676 14.8998 215.678H15.8998ZM18.2409 205.613C19.804 202.683 21.8457 200.452 24.3618 198.904L23.8377 198.052C21.1538 199.704 18.9955 202.074 17.3586 205.143L18.2409 205.613ZM24.0998 197.978H16.1998V198.978H24.0998V197.978ZM16.6998 198.478L16.6998 181.378H15.6998L15.6998 198.478H16.6998ZM16.1998 181.878L71.9998 181.878V180.878L16.1998 180.878V181.878ZM71.4998 181.378L71.4998 198.478H72.4998L72.4998 181.378H71.4998ZM71.9998 197.978H64.0998V198.978H71.9998V197.978ZM63.8299 198.899C66.3508 200.515 68.3947 202.781 69.9586 205.713L70.8409 205.243C69.2048 202.175 67.0488 199.775 64.3696 198.057L63.8299 198.899ZM69.9608 205.718C71.5142 208.565 72.2998 211.914 72.2998 215.778H73.2998C73.2998 211.776 72.4853 208.257 70.8387 205.239L69.9608 205.718ZM72.2998 215.778C72.2998 220.221 71.1579 224.262 68.8758 227.913L69.7238 228.443C72.1083 224.628 73.2998 220.402 73.2998 215.778H72.2998ZM68.8792 227.908C66.5317 231.559 63.2353 234.469 58.9734 236.632L59.4261 237.524C63.8309 235.288 67.2678 232.264 69.7203 228.449L68.8792 227.908ZM58.9816 236.628C54.6604 238.723 49.6705 239.778 43.9998 239.778V240.778C49.7957 240.778 54.9391 239.7 59.4179 237.528L58.9816 236.628ZM44.0998 197.978C39.7358 197.978 36.2323 199.208 33.6511 201.72L34.3484 202.436C36.7006 200.148 39.9304 198.978 44.0998 198.978V197.978ZM33.6562 201.715C31.0895 204.143 29.7998 207.141 29.7998 210.678H30.7998C30.7998 207.415 31.9767 204.68 34.3434 202.441L33.6562 201.715ZM29.7998 210.678C29.7998 214.215 31.089 217.244 33.6511 219.736L34.3484 219.02C31.9772 216.713 30.7998 213.941 30.7998 210.678H29.7998ZM33.6512 219.737C36.1683 222.184 39.6403 223.378 43.9998 223.378V222.378C39.8259 222.378 36.6312 221.239 34.3483 219.02L33.6512 219.737ZM43.9998 223.378C48.3606 223.378 51.8921 222.183 54.5385 219.746L53.861 219.01C51.4407 221.24 48.1723 222.378 43.9998 222.378V223.378ZM54.5484 219.736C57.1105 217.244 58.3998 214.215 58.3998 210.678H57.3998C57.3998 213.941 56.2223 216.713 53.8511 219.02L54.5484 219.736ZM58.3998 210.678C58.3998 207.141 57.11 204.143 54.5434 201.715L53.8562 202.441C56.2228 204.68 57.3998 207.415 57.3998 210.678H58.3998ZM54.5484 201.72C51.9672 199.208 48.4637 197.978 44.0998 197.978V198.978C48.2691 198.978 51.499 200.148 53.8511 202.436L54.5484 201.72ZM16.1998 113.907V113.407H15.6998V113.907H16.1998ZM71.9998 113.907H72.4998V113.407H71.9998V113.907ZM71.9998 131.007V131.507H72.4998V131.007H71.9998ZM64.3998 131.007V130.507H62.8186L64.1123 131.416L64.3998 131.007ZM70.3998 138.107L70.847 137.883L70.845 137.879L70.3998 138.107ZM69.7998 159.207L70.2301 159.462L70.2339 159.455L69.7998 159.207ZM61.4998 166.807L61.7234 167.254L61.4998 166.807ZM16.1998 169.507H15.6998V170.007H16.1998V169.507ZM16.1998 152.507V152.007H15.6998V152.507H16.1998ZM55.1998 149.607L55.5413 149.972L55.1998 149.607ZM55.1998 133.907L54.8582 134.272L55.1998 133.907ZM16.1998 131.007H15.6998V131.507H16.1998V131.007ZM16.1998 114.407H71.9998V113.407H16.1998V114.407ZM71.4998 113.907V131.007H72.4998V113.907H71.4998ZM71.9998 130.507H64.3998V131.507H71.9998V130.507ZM64.1123 131.416C66.5049 133.097 68.4538 135.398 69.9545 138.335L70.845 137.879C69.279 134.816 67.228 132.383 64.6872 130.598L64.1123 131.416ZM69.9525 138.331C71.3812 141.188 72.0998 144.377 72.0998 147.907H73.0998C73.0998 144.237 72.3516 140.893 70.847 137.883L69.9525 138.331ZM72.0998 147.907C72.0998 152.099 71.1836 155.778 69.3656 158.959L70.2339 159.455C72.1492 156.103 73.0998 152.249 73.0998 147.907H72.0998ZM69.3695 158.952C67.4881 162.131 64.7956 164.6 61.2761 166.36L61.7234 167.254C65.4039 165.414 68.2448 162.816 70.23 159.462L69.3695 158.952ZM61.2761 166.36C57.7586 168.119 53.6048 169.007 48.7998 169.007V170.007C53.728 170.007 58.0409 169.095 61.7234 167.254L61.2761 166.36ZM48.7998 169.007L16.1998 169.007V170.007L48.7998 170.007V169.007ZM16.6998 169.507L16.6998 152.507H15.6998L15.6998 169.507H16.6998ZM16.1998 153.007L46.4998 153.007V152.007L16.1998 152.007V153.007ZM46.4998 153.007C50.3184 153.007 53.3556 152.017 55.5413 149.972L54.8582 149.242C52.9106 151.064 50.1478 152.007 46.4998 152.007V153.007ZM55.5413 149.972C57.725 147.929 58.7998 145.189 58.7998 141.807H57.7998C57.7998 144.959 56.8079 147.418 54.8582 149.242L55.5413 149.972ZM58.7998 141.807C58.7998 138.362 57.7271 135.587 55.5413 133.542L54.8582 134.272C56.8058 136.094 57.7998 138.585 57.7998 141.807H58.7998ZM55.5413 133.542C53.3556 131.497 50.3184 130.507 46.4998 130.507V131.507C50.1478 131.507 52.9106 132.45 54.8582 134.272L55.5413 133.542ZM46.4998 130.507H16.1998L16.1998 131.507H46.4998V130.507ZM16.6998 131.007L16.6998 113.907H15.6998L15.6998 131.007H16.6998ZM70.2998 91.9242L69.8419 91.7234L70.2998 91.9242ZM63.4998 100.924L63.7998 101.324L63.8042 101.321L63.4998 100.924ZM53.6998 104.624H53.1998V105.163L53.7367 105.123L53.6998 104.624ZM53.6998 87.7242L53.6483 87.2269L53.1998 87.2733V87.7242H53.6998ZM58.3998 85.0242L57.9998 84.7242L58.3998 85.0242ZM58.9998 74.2242L59.4083 73.9359L59.4051 73.9315L58.9998 74.2242ZM52.1998 74.9242L52.6505 75.1406L52.6541 75.1331L52.6574 75.1256L52.1998 74.9242ZM49.5998 83.0242L49.1146 82.9029L49.1128 82.9106L49.5998 83.0242ZM46.6998 93.0242L47.1641 93.21L47.1679 93.1998L46.6998 93.0242ZM41.7998 99.9242L42.1243 100.305L42.1298 100.3L41.7998 99.9242ZM23.9998 100.224L23.72 100.639L23.7224 100.64L23.9998 100.224ZM17.6998 92.4242L17.2425 92.6265L17.244 92.6298L17.6998 92.4242ZM20.5998 63.6242L20.9776 63.9517L20.9803 63.9486L20.5998 63.6242ZM34.3998 56.6242H34.8998V56.0692L34.3477 56.1269L34.3998 56.6242ZM34.3998 72.4242L34.4681 72.9195L34.8998 72.86V72.4242H34.3998ZM29.7998 75.0242L30.1885 75.3389L30.1954 75.33L29.7998 75.0242ZM29.2998 85.2242L29.7118 84.9409L29.7059 84.9325L29.6998 84.9242L29.2998 85.2242ZM35.9998 84.3242L36.4506 84.5406L36.4537 84.5338L35.9998 84.3242ZM38.3998 76.3242L37.9156 76.1993L37.9135 76.2075L37.9117 76.2158L38.3998 76.3242ZM41.5998 66.2242L42.0625 66.414L42.0664 66.4037L41.5998 66.2242ZM46.5998 59.4242L46.9188 59.8092L46.9247 59.8043L46.9306 59.7991L46.5998 59.4242ZM55.7998 56.3242V55.8241L55.7911 55.8243L55.7998 56.3242ZM64.5998 59.1242L64.3082 59.5304L64.3102 59.5318L64.5998 59.1242ZM70.5998 67.0242L70.1393 67.2191L70.1406 67.2223L70.5998 67.0242ZM72.2998 78.9242C72.2998 83.7336 71.4764 87.9967 69.8419 91.7234L70.7577 92.1251C72.4565 88.2517 73.2998 83.8482 73.2998 78.9242H72.2998ZM69.8419 91.7234C68.204 95.4578 65.9858 98.386 63.1953 100.528L63.8042 101.321C66.747 99.0624 69.0622 95.9907 70.7577 92.1251L69.8419 91.7234ZM63.1998 100.524C60.3416 102.668 57.1659 103.866 53.6628 104.126L53.7367 105.123C57.4336 104.849 60.7912 103.581 63.7998 101.324L63.1998 100.524ZM54.1998 104.624V87.7242H53.1998V104.624H54.1998ZM53.7512 88.2216C55.8276 88.0068 57.5189 87.032 58.7998 85.3242L57.9998 84.7242C56.8806 86.2164 55.4385 87.0417 53.6483 87.2269L53.7512 88.2216ZM58.7998 85.3242C60.0751 83.6238 60.6998 81.547 60.6998 79.1242H59.6998C59.6998 81.3681 59.1245 83.2246 57.9998 84.7242L58.7998 85.3242ZM60.6998 79.1242C60.6998 76.9395 60.292 75.1879 59.4082 73.9359L58.5913 74.5125C59.3075 75.5273 59.6998 77.0422 59.6998 79.1242H60.6998ZM59.4051 73.9315C58.4564 72.618 57.2131 71.9242 55.6998 71.9242V72.9242C56.8531 72.9242 57.8097 73.4305 58.5944 74.517L59.4051 73.9315ZM55.6998 71.9242C54.8082 71.9242 54.012 72.1582 53.3341 72.6424C52.6604 73.1236 52.1353 73.8291 51.7421 74.7228L52.6574 75.1256C52.9975 74.3526 53.4225 73.8082 53.9154 73.4561C54.4042 73.1069 54.9913 72.9242 55.6998 72.9242V71.9242ZM51.749 74.7079C50.9258 76.4227 50.0494 79.1641 49.1147 82.903L50.0848 83.1455C51.0168 79.4177 51.8737 76.759 52.6505 75.1406L51.749 74.7079ZM49.1128 82.9106C48.1825 86.8979 47.2215 90.2089 46.2316 92.8487L47.1679 93.1998C48.178 90.5062 49.1504 87.1505 50.0867 83.1378L49.1128 82.9106ZM46.2355 92.8385C45.1986 95.4308 43.6119 97.6661 41.4697 99.5486L42.1298 100.3C44.3876 98.3156 46.0676 95.951 47.164 93.2099L46.2355 92.8385ZM41.4753 99.5438C39.3217 101.381 36.4144 102.324 32.6998 102.324V103.324C36.5851 103.324 39.7444 102.334 42.1242 100.305L41.4753 99.5438ZM32.6998 102.324C29.5959 102.324 26.7929 101.485 24.2771 99.8082L23.7224 100.64C26.4066 102.43 29.4036 103.324 32.6998 103.324V102.324ZM24.2795 99.8098C21.7013 98.0695 19.6569 95.5478 18.1555 92.2187L17.244 92.6298C18.8093 96.1007 20.9648 98.7789 23.72 100.639L24.2795 99.8098ZM18.157 92.222C16.6579 88.8328 15.8998 84.8047 15.8998 80.1242H14.8998C14.8998 84.9104 15.6749 89.0823 17.2425 92.6265L18.157 92.222ZM15.8998 80.1242C15.8998 73.2052 17.6121 67.8349 20.9776 63.9517L20.2219 63.2968C16.654 67.4135 14.8998 73.0433 14.8998 80.1242H15.8998ZM20.9803 63.9486C24.3568 59.9877 28.8351 57.7093 34.4518 57.1215L34.3477 56.1269C28.4978 56.7391 23.7761 59.1274 20.2192 63.2998L20.9803 63.9486ZM33.8998 56.6242L33.8998 72.4242H34.8998L34.8998 56.6242H33.8998ZM34.3314 71.9289C32.276 72.2124 30.6221 73.1423 29.4041 74.7185L30.1954 75.33C31.2441 73.9728 32.6568 73.1693 34.4681 72.9195L34.3314 71.9289ZM29.4111 74.7096C28.1868 76.222 27.5998 78.2106 27.5998 80.6242H28.5998C28.5998 78.3712 29.1461 76.6264 30.1884 75.3388L29.4111 74.7096ZM27.5998 80.6242C27.5998 82.681 28.0096 84.3373 28.8998 85.5242L29.6998 84.9242C28.9899 83.9778 28.5998 82.5674 28.5998 80.6242H27.5998ZM28.8877 85.5075C29.7176 86.7146 30.9077 87.3242 32.3998 87.3242V86.3242C31.2252 86.3242 30.3485 85.8672 29.7118 84.9409L28.8877 85.5075ZM32.3998 87.3242C33.2915 87.3242 34.0932 87.0903 34.785 86.6099C35.4725 86.1324 36.0228 85.4316 36.4505 84.5406L35.549 84.1078C35.1767 84.8835 34.727 85.4327 34.2146 85.7885C33.7063 86.1415 33.108 86.3242 32.3998 86.3242V87.3242ZM36.4537 84.5338C37.2767 82.7506 38.0859 80.0417 38.8878 76.4327L37.9117 76.2158C37.1137 79.8068 36.3228 82.4312 35.5458 84.1147L36.4537 84.5338ZM38.8839 76.4492C39.9475 72.3278 41.0075 68.9851 42.0623 66.414L41.1372 66.0345C40.0586 68.6634 38.9854 72.0539 37.9156 76.1993L38.8839 76.4492ZM42.0664 66.4037C43.033 63.8907 44.6455 61.6928 46.9188 59.8092L46.2807 59.0392C43.8873 61.0223 42.1665 63.3578 41.1331 66.0447L42.0664 66.4037ZM46.9306 59.7991C49.0856 57.8977 52.0266 56.8893 55.8084 56.8241L55.7911 55.8243C51.8396 55.8924 48.6473 56.9508 46.2689 59.0493L46.9306 59.7991ZM55.7998 56.8242C58.9641 56.8242 61.795 57.7261 64.3082 59.5304L64.8914 58.718C62.2045 56.789 59.1687 55.8242 55.7998 55.8242V56.8242ZM64.3102 59.5318C66.7533 61.2678 68.7011 63.8196 70.1393 67.219L71.0602 66.8294C69.5651 63.2954 67.5128 60.5807 64.8894 58.7166L64.3102 59.5318ZM70.1406 67.2223C71.575 70.5474 72.2998 74.4441 72.2998 78.9242H73.2998C73.2998 74.3376 72.5578 70.3011 71.0589 66.8262L70.1406 67.2223ZM70.2998 36.1625L69.8419 35.9617L70.2998 36.1625ZM63.4998 45.1625L63.7998 45.5625L63.8042 45.5591L63.4998 45.1625ZM53.6998 48.8625H53.1998V49.4009L53.7367 49.3611L53.6998 48.8625ZM53.6998 31.9625L53.6483 31.4651L53.1998 31.5116V31.9625H53.6998ZM58.3998 29.2625L57.9998 28.9625L58.3998 29.2625ZM58.9998 18.4625L59.4083 18.1741L59.4051 18.1697L58.9998 18.4625ZM52.1998 19.1625L52.6505 19.3789L52.6541 19.3714L52.6574 19.3639L52.1998 19.1625ZM49.5998 27.2625L49.1146 27.1412L49.1128 27.1489L49.5998 27.2625ZM46.6998 37.2625L47.1641 37.4482L47.1679 37.438L46.6998 37.2625ZM41.7998 44.1625L42.1243 44.543L42.1298 44.5381L41.7998 44.1625ZM23.9998 44.4625L23.72 44.8769L23.7224 44.8785L23.9998 44.4625ZM17.6998 36.6625L17.2425 36.8647L17.244 36.868L17.6998 36.6625ZM20.5998 7.86249L20.9776 8.18997L20.9803 8.18686L20.5998 7.86249ZM34.3998 0.862488H34.8998V0.307434L34.3477 0.365204L34.3998 0.862488ZM34.3998 16.6625L34.4681 17.1578L34.8998 17.0983V16.6625H34.3998ZM29.7998 19.2625L30.1885 19.5772L30.1954 19.5682L29.7998 19.2625ZM29.2998 29.4625L29.7118 29.1792L29.7059 29.1707L29.6998 29.1625L29.2998 29.4625ZM35.9998 28.5625L36.4506 28.7789L36.4537 28.772L35.9998 28.5625ZM38.3998 20.5625L37.9156 20.4376L37.9135 20.4458L37.9117 20.454L38.3998 20.5625ZM41.5998 10.4625L42.0625 10.6523L42.0664 10.642L41.5998 10.4625ZM46.5998 3.66251L46.9188 4.04752L46.9247 4.04254L46.9306 4.03741L46.5998 3.66251ZM55.7998 0.5625V0.0624084L55.7911 0.062561L55.7998 0.5625ZM64.5998 3.36249L64.3082 3.76868L64.3102 3.77008L64.5998 3.36249ZM70.5998 11.2625L70.1393 11.4573L70.1406 11.4605L70.5998 11.2625ZM72.2998 23.1625C72.2998 27.9718 71.4764 32.235 69.8419 35.9617L70.7577 36.3633C72.4565 32.49 73.2998 28.0865 73.2998 23.1625H72.2998ZM69.8419 35.9617C68.204 39.6961 65.9858 42.6243 63.1953 44.7658L63.8042 45.5591C66.747 43.3007 69.0622 40.2289 70.7577 36.3633L69.8419 35.9617ZM63.1998 44.7625C60.3416 46.9061 57.1659 48.1044 53.6628 48.3639L53.7367 49.3611C57.4336 49.0873 60.7912 47.8189 63.7998 45.5625L63.1998 44.7625ZM54.1998 48.8625V31.9625H53.1998V48.8625H54.1998ZM53.7512 32.4598C55.8276 32.2451 57.5189 31.2703 58.7998 29.5625L57.9998 28.9625C56.8806 30.4547 55.4385 31.28 53.6483 31.4651L53.7512 32.4598ZM58.7998 29.5625C60.0751 27.8621 60.6998 25.7853 60.6998 23.3625H59.6998C59.6998 25.6064 59.1245 27.4629 57.9998 28.9625L58.7998 29.5625ZM60.6998 23.3625C60.6998 21.1778 60.292 19.4261 59.4082 18.1742L58.5913 18.7508C59.3075 19.7655 59.6998 21.2805 59.6998 23.3625H60.6998ZM59.4051 18.1697C58.4564 16.8562 57.2131 16.1625 55.6998 16.1625V17.1625C56.8531 17.1625 57.8097 17.6688 58.5944 18.7552L59.4051 18.1697ZM55.6998 16.1625C54.8082 16.1625 54.012 16.3965 53.3341 16.8806C52.6604 17.3619 52.1353 18.0674 51.7421 18.9611L52.6574 19.3639C52.9975 18.5909 53.4225 18.0464 53.9154 17.6944C54.4042 17.3452 54.9913 17.1625 55.6998 17.1625V16.1625ZM51.749 18.9461C50.9258 20.661 50.0494 23.4023 49.1147 27.1412L50.0848 27.3838C51.0168 23.656 51.8737 20.9973 52.6505 19.3789L51.749 18.9461ZM49.1128 27.1489C48.1825 31.1362 47.2215 34.4472 46.2316 37.0869L47.1679 37.438C48.178 34.7445 49.1504 31.3888 50.0867 27.3761L49.1128 27.1489ZM46.2355 37.0768C45.1986 39.669 43.6119 41.9044 41.4697 43.7869L42.1298 44.5381C44.3876 42.5539 46.0676 40.1893 47.164 37.4482L46.2355 37.0768ZM41.4753 43.7821C39.3217 45.6189 36.4144 46.5625 32.6998 46.5625V47.5625C36.5851 47.5625 39.7444 46.5728 42.1242 44.5429L41.4753 43.7821ZM32.6998 46.5625C29.5959 46.5625 26.7929 45.7237 24.2771 44.0465L23.7224 44.8785C26.4066 46.668 29.4036 47.5625 32.6998 47.5625V46.5625ZM24.2795 44.0481C21.7013 42.3078 19.6569 39.786 18.1555 36.4569L17.244 36.868C18.8093 40.339 20.9648 43.0172 23.72 44.8769L24.2795 44.0481ZM18.157 36.4602C16.6579 33.071 15.8998 29.043 15.8998 24.3625H14.8998C14.8998 29.1487 15.6749 33.3206 17.2425 36.8647L18.157 36.4602ZM15.8998 24.3625C15.8998 17.4435 17.6121 12.0732 20.9776 8.18997L20.2219 7.53503C16.654 11.6518 14.8998 17.2816 14.8998 24.3625H15.8998ZM20.9803 8.18686C24.3568 4.22598 28.8351 1.94757 34.4518 1.35977L34.3477 0.365204C28.4978 0.977417 23.7761 3.36569 20.2192 7.53812L20.9803 8.18686ZM33.8998 0.862488L33.8998 16.6625H34.8998L34.8998 0.862488H33.8998ZM34.3314 16.1672C32.276 16.4507 30.6221 17.3806 29.4041 18.9568L30.1954 19.5682C31.2441 18.2111 32.6568 17.4076 34.4681 17.1578L34.3314 16.1672ZM29.4111 18.9479C28.1868 20.4603 27.5998 22.4489 27.5998 24.8625H28.5998C28.5998 22.6094 29.1461 20.8647 30.1884 19.5771L29.4111 18.9479ZM27.5998 24.8625C27.5998 26.9193 28.0096 28.5756 28.8998 29.7625L29.6998 29.1625C28.9899 28.216 28.5998 26.8057 28.5998 24.8625H27.5998ZM28.8877 29.7458C29.7176 30.9529 30.9077 31.5625 32.3998 31.5625V30.5625C31.2252 30.5625 30.3485 30.1054 29.7118 29.1792L28.8877 29.7458ZM32.3998 31.5625C33.2915 31.5625 34.0932 31.3286 34.785 30.8482C35.4725 30.3707 36.0228 29.6699 36.4505 28.7789L35.549 28.3461C35.1767 29.1218 34.727 29.671 34.2146 30.0268C33.7063 30.3798 33.108 30.5625 32.3998 30.5625V31.5625ZM36.4537 28.772C37.2767 26.9889 38.0859 24.2799 38.8878 20.671L37.9117 20.454C37.1137 24.0451 36.3228 26.6695 35.5458 28.353L36.4537 28.772ZM38.8839 20.6874C39.9475 16.5661 41.0075 13.2234 42.0623 10.6523L41.1372 10.2727C40.0586 12.9016 38.9854 16.2922 37.9156 20.4376L38.8839 20.6874ZM42.0664 10.642C43.033 8.12894 44.6455 5.93106 46.9188 4.04752L46.2807 3.2775C43.8873 5.26059 42.1665 7.59604 41.1331 10.283L42.0664 10.642ZM46.9306 4.03741C49.0856 2.13596 52.0266 1.12762 55.8084 1.06241L55.7911 0.062561C51.8396 0.130707 48.6473 1.18906 46.2689 3.28757L46.9306 4.03741ZM55.7998 1.0625C58.9641 1.0625 61.795 1.96436 64.3082 3.76865L64.8914 2.95633C62.2045 1.02731 59.1687 0.0625 55.7998 0.0625V1.0625ZM64.3102 3.77008C66.7533 5.50604 68.7011 8.05792 70.1393 11.4573L71.0602 11.0677C69.5651 7.53372 67.5128 4.81897 64.8894 2.9549L64.3102 3.77008ZM70.1406 11.4605C71.575 14.7856 72.2998 18.6824 72.2998 23.1625H73.2998C73.2998 18.5759 72.5578 14.5393 71.0589 11.0645L70.1406 11.4605Z" fill="#FFEBEC"/>
</svg>