              <svg width="37" height="385" viewBox="0 0 37 385" fill="#f7afaf" xmlns="http://www.w3.org/2000/svg">
              <path className='going-up' d="M35.7 356.4C35.7 361.533 34.8667 366.133 33.2 370.2C31.5333 374.267 29.0667 377.533 25.8 380C22.5333 382.4 18.6 383.667 14 383.8V365.6C16.6 365.333 18.6 364.433 20 362.9C21.3333 361.367 22 359.367 22 356.9C22 354.367 21.4333 352.367 20.3 350.9C19.1 349.433 17.4667 348.7 15.4 348.7C13.6667 348.7 12.2333 349.3 11.1 350.5C9.96667 351.633 9.03333 353.067 8.3 354.8C7.56666 356.467 6.73333 358.867 5.8 362C4.4 366.533 3 370.233 1.6 373.1C0.199998 375.967 -1.86667 378.433 -4.6 380.5C-7.33333 382.567 -10.9 383.6 -15.3 383.6C-21.8333 383.6 -26.9333 381.233 -30.6 376.5C-34.3333 371.767 -36.2 365.6 -36.2 358C-36.2 350.267 -34.3333 344.033 -30.6 339.3C-26.9333 334.567 -21.8 332.033 -15.2 331.7V350.2C-17.4667 350.333 -19.2333 351.167 -20.5 352.7C-21.8333 354.233 -22.5 356.2 -22.5 358.6C-22.5 360.667 -21.9333 362.333 -20.8 363.6C-19.7333 364.867 -18.1667 365.5 -16.1 365.5C-13.8333 365.5 -12.0667 364.433 -10.8 362.3C-9.53334 360.167 -8.16667 356.833 -6.7 352.3C-5.16667 347.767 -3.7 344.1 -2.3 341.3C-0.900003 338.433 1.13333 335.967 3.8 333.9C6.46667 331.833 9.9 330.8 14.1 330.8C18.1 330.8 21.7333 331.833 25 333.9C28.2667 335.9 30.8667 338.833 32.8 342.7C34.7333 346.567 35.7 351.133 35.7 356.4ZM20.5 289.177H35V297.877C35 304.077 33.5 308.91 30.5 312.377C27.4333 315.843 22.4667 317.577 15.6 317.577H-6.6V324.377H-20.8V317.577H-34.4L-34.4 300.477H-20.8V289.277H-6.6V300.477H15.8C17.4667 300.477 18.6667 300.077 19.4 299.277C20.1333 298.477 20.5 297.143 20.5 295.277V289.177ZM-11.5 262.552C-14.5667 260.552 -16.9667 258.052 -18.7 255.052C-20.5 252.052 -21.4 248.718 -21.4 245.052H-3.3V249.752C-3.3 254.018 -2.36667 257.218 -0.500002 259.352C1.3 261.485 4.5 262.552 9.1 262.552H35L35 279.652H-20.8V262.552H-11.5ZM7 240.278C1.26666 240.278 -3.76667 239.211 -8.1 237.078C-12.4333 234.878 -15.7667 231.911 -18.1 228.178C-20.4333 224.445 -21.6 220.278 -21.6 215.678C-21.6 211.745 -20.8 208.311 -19.2 205.378C-17.6 202.378 -15.5 200.078 -12.9 198.478H-20.8L-20.8 181.378H35V198.478H27.1C29.7 200.145 31.8 202.478 33.4 205.478C35 208.411 35.8 211.845 35.8 215.778C35.8 220.311 34.6333 224.445 32.3 228.178C29.9 231.911 26.5333 234.878 22.2 237.078C17.8 239.211 12.7333 240.278 7 240.278ZM7.1 198.478C2.83333 198.478 -0.533336 199.678 -3 202.078C-5.46667 204.411 -6.7 207.278 -6.7 210.678C-6.7 214.078 -5.46667 216.978 -3 219.378C-0.600002 221.711 2.73333 222.878 7 222.878C11.2667 222.878 14.6667 221.711 17.2 219.378C19.6667 216.978 20.9 214.078 20.9 210.678C20.9 207.278 19.6667 204.411 17.2 202.078C14.7333 199.678 11.3667 198.478 7.1 198.478ZM-20.8 113.907H35V131.007H27.4C29.8667 132.74 31.8667 135.107 33.4 138.107C34.8667 141.04 35.6 144.307 35.6 147.907C35.6 152.174 34.6667 155.94 32.8 159.207C30.8667 162.474 28.1 165.007 24.5 166.807C20.9 168.607 16.6667 169.507 11.8 169.507H-20.8V152.507H9.5C13.2333 152.507 16.1333 151.54 18.2 149.607C20.2667 147.674 21.3 145.074 21.3 141.807C21.3 138.474 20.2667 135.84 18.2 133.907C16.1333 131.974 13.2333 131.007 9.5 131.007H-20.8L-20.8 113.907ZM35.8 78.9242C35.8 83.7909 34.9667 88.1242 33.3 91.9242C31.6333 95.7242 29.3667 98.7242 26.5 100.924C23.5667 103.124 20.3 104.358 16.7 104.624V87.7242C18.6333 87.5242 20.2 86.6242 21.4 85.0242C22.6 83.4242 23.2 81.4576 23.2 79.1242C23.2 76.9909 22.8 75.3576 22 74.2242C21.1333 73.0242 20.0333 72.4242 18.7 72.4242C17.1 72.4242 15.9333 73.2576 15.2 74.9242C14.4 76.5909 13.5333 79.2909 12.6 83.0242C11.6667 87.0242 10.7 90.3576 9.7 93.0242C8.63333 95.6909 7 97.9909 4.8 99.9242C2.53333 101.858 -0.500002 102.824 -4.3 102.824C-7.5 102.824 -10.4 101.958 -13 100.224C-15.6667 98.4242 -17.7667 95.8242 -19.3 92.4242C-20.8333 88.9576 -21.6 84.8576 -21.6 80.1242C-21.6 73.1242 -19.8667 67.6242 -16.4 63.6242C-12.9333 59.5575 -8.33333 57.2242 -2.6 56.6242V72.4242C-4.53334 72.6909 -6.06667 73.5576 -7.2 75.0242C-8.33333 76.4242 -8.9 78.2909 -8.9 80.6242C-8.9 82.6242 -8.5 84.1576 -7.7 85.2242C-6.96667 86.2909 -5.93333 86.8242 -4.6 86.8242C-3 86.8242 -1.8 85.9909 -1 84.3242C-0.200002 82.5909 0.599998 79.9242 1.4 76.3242C2.46666 72.1909 3.53333 68.8242 4.6 66.2242C5.6 63.6242 7.26667 61.3576 9.6 59.4242C11.8667 57.4242 14.9333 56.3909 18.8 56.3242C22.0667 56.3242 25 57.2575 27.6 59.1242C30.1333 60.9242 32.1333 63.5576 33.6 67.0242C35.0667 70.4242 35.8 74.3909 35.8 78.9242ZM35.8 23.1625C35.8 28.0292 34.9667 32.3625 33.3 36.1625C31.6333 39.9625 29.3667 42.9625 26.5 45.1625C23.5667 47.3625 20.3 48.5958 16.7 48.8625L16.7 31.9625C18.6333 31.7625 20.2 30.8625 21.4 29.2625C22.6 27.6625 23.2 25.6958 23.2 23.3625C23.2 21.2292 22.8 19.5958 22 18.4625C21.1333 17.2625 20.0333 16.6625 18.7 16.6625C17.1 16.6625 15.9333 17.4958 15.2 19.1625C14.4 20.8292 13.5333 23.5292 12.6 27.2625C11.6667 31.2625 10.7 34.5958 9.7 37.2625C8.63333 39.9292 7 42.2292 4.8 44.1625C2.53333 46.0958 -0.500002 47.0625 -4.3 47.0625C-7.5 47.0625 -10.4 46.1958 -13 44.4625C-15.6667 42.6625 -17.7667 40.0625 -19.3 36.6625C-20.8333 33.1958 -21.6 29.0958 -21.6 24.3625C-21.6 17.3625 -19.8667 11.8625 -16.4 7.8625C-12.9333 3.79583 -8.33333 1.4625 -2.6 0.862498V16.6625C-4.53334 16.9292 -6.06667 17.7958 -7.2 19.2625C-8.33333 20.6625 -8.9 22.5292 -8.9 24.8625C-8.9 26.8625 -8.5 28.3958 -7.7 29.4625C-6.96667 30.5292 -5.93333 31.0625 -4.6 31.0625C-3 31.0625 -1.8 30.2292 -1 28.5625C-0.200002 26.8292 0.599998 24.1625 1.4 20.5625C2.46666 16.4292 3.53333 13.0625 4.6 10.4625C5.6 7.8625 7.26667 5.59583 9.6 3.6625C11.8667 1.6625 14.9333 0.629165 18.8 0.562495C22.0667 0.562495 25 1.49583 27.6 3.3625C30.1333 5.1625 32.1333 7.79583 33.6 11.2625C35.0667 14.6625 35.8 18.6292 35.8 23.1625Z" fill="#D8D8D8" fill-opacity="0.01"/>
              <path className='going-up' d="M33.2 370.2L33.6627 370.39L33.2 370.2ZM25.8 380L26.0961 380.403L26.1013 380.399L25.8 380ZM14 383.8H13.5V384.315L14.0145 384.3L14 383.8ZM14 365.6L13.949 365.103L13.5 365.149V365.6H14ZM20 362.9L20.3694 363.237L20.3773 363.228L20 362.9ZM20.3 350.9L20.6958 350.594L20.687 350.583L20.3 350.9ZM11.1 350.5L11.4536 350.854L11.4586 350.848L11.4635 350.843L11.1 350.5ZM8.3 354.8L8.7577 355.001L8.76048 354.995L8.3 354.8ZM5.8 362L6.27776 362.148L6.27919 362.143L5.8 362ZM1.6 373.1L2.04928 373.319L1.6 373.1ZM-4.6 380.5L-4.90156 380.101L-4.6 380.5ZM-30.6 376.5L-30.2047 376.194L-30.2074 376.19L-30.6 376.5ZM-30.6 339.3L-30.2074 339.61L-30.2047 339.606L-30.6 339.3ZM-15.2 331.7H-14.7V331.174L-15.2252 331.201L-15.2 331.7ZM-15.2 350.2L-15.1706 350.699L-14.7 350.671V350.2H-15.2ZM-20.5 352.7L-20.1226 353.028L-20.1145 353.018L-20.5 352.7ZM-20.8 363.6L-20.4175 363.278L-20.4224 363.272L-20.4274 363.267L-20.8 363.6ZM-10.8 362.3L-11.2299 362.045L-10.8 362.3ZM-6.7 352.3L-7.17368 352.14L-7.17572 352.146L-6.7 352.3ZM-2.3 341.3L-1.85277 341.524L-1.85072 341.519L-2.3 341.3ZM3.8 333.9L4.10629 334.295L3.8 333.9ZM25 333.9L24.7327 334.323L24.7389 334.326L25 333.9ZM32.8 342.7L32.3528 342.924L32.8 342.7ZM35.2 356.4C35.2 361.479 34.3756 366.013 32.7374 370.01L33.6627 370.39C35.3578 366.254 36.2 361.588 36.2 356.4H35.2ZM32.7374 370.01C31.1021 374 28.6885 377.192 25.4987 379.601L26.1013 380.399C29.4448 377.874 31.9646 374.533 33.6627 370.39L32.7374 370.01ZM25.504 379.597C22.3299 381.929 18.4982 383.169 13.9855 383.3L14.0145 384.3C18.7018 384.164 22.7368 382.871 26.096 380.403L25.504 379.597ZM14.5 383.8V365.6H13.5V383.8H14.5ZM14.051 366.097C16.7404 365.822 18.8666 364.883 20.3692 363.237L19.6308 362.563C18.3334 363.984 16.4596 364.845 13.949 365.103L14.051 366.097ZM20.3773 363.228C21.8058 361.585 22.5 359.46 22.5 356.9H21.5C21.5 359.273 20.8609 361.148 19.6227 362.572L20.3773 363.228ZM22.5 356.9C22.5 354.296 21.9176 352.176 20.6956 350.594L19.9044 351.206C20.949 352.558 21.5 354.437 21.5 356.9H22.5ZM20.687 350.583C19.3826 348.989 17.6012 348.2 15.4 348.2V349.2C17.3322 349.2 18.8174 349.877 19.913 351.217L20.687 350.583ZM15.4 348.2C13.5368 348.2 11.9695 348.851 10.7365 350.157L11.4635 350.843C12.4972 349.749 13.7965 349.2 15.4 349.2V348.2ZM10.7464 350.146C9.56038 351.333 8.59364 352.823 7.83952 354.605L8.76048 354.995C9.47303 353.311 10.373 351.934 11.4536 350.854L10.7464 350.146ZM7.84234 354.599C7.0965 356.294 6.25621 358.717 5.3208 361.857L6.27919 362.143C7.21045 359.016 8.03682 356.64 8.75766 355.001L7.84234 354.599ZM5.32226 361.852C3.92659 366.372 2.53537 370.045 1.15071 372.881L2.04928 373.319C3.46463 370.421 4.87341 366.695 6.27774 362.148L5.32226 361.852ZM1.15071 372.881C-0.212296 375.672 -2.22612 378.078 -4.90156 380.101L-4.29845 380.899C-1.50721 378.788 0.612293 376.262 2.04928 373.319L1.15071 372.881ZM-4.90156 380.101C-7.52613 382.086 -10.9777 383.1 -15.3 383.1V384.1C-10.8223 384.1 -7.14053 383.048 -4.29845 380.899L-4.90156 380.101ZM-15.3 383.1C-21.6949 383.1 -26.6423 380.793 -30.2047 376.194L-30.9953 376.806C-27.2244 381.674 -21.9718 384.1 -15.3 384.1V383.1ZM-30.2074 376.19C-33.8547 371.566 -35.7 365.517 -35.7 358H-36.7C-36.7 365.683 -34.812 371.967 -30.9926 376.81L-30.2074 376.19ZM-35.7 358C-35.7 350.347 -33.8536 344.232 -30.2074 339.61L-30.9926 338.99C-34.8131 343.834 -36.7 350.186 -36.7 358H-35.7ZM-30.2047 339.606C-26.6373 335.001 -21.6462 332.526 -15.1748 332.199L-15.2252 331.201C-21.9538 331.54 -27.2294 334.132 -30.9953 338.994L-30.2047 339.606ZM-15.7 331.7V350.2H-14.7V331.7H-15.7ZM-15.2294 349.701C-17.6131 349.841 -19.5175 350.726 -20.8855 352.382L-20.1145 353.018C-18.9492 351.608 -17.3203 350.826 -15.1706 350.699L-15.2294 349.701ZM-20.8773 352.372C-22.3037 354.012 -23 356.102 -23 358.6H-22C-22 356.298 -21.363 354.454 -20.1227 353.028L-20.8773 352.372ZM-23 358.6C-23 360.762 -22.4048 362.556 -21.1726 363.933L-20.4274 363.267C-21.4618 362.11 -22 360.571 -22 358.6H-23ZM-21.1825 363.922C-19.9979 365.329 -18.2744 366 -16.1 366V365C-18.059 365 -19.4688 364.405 -20.4175 363.278L-21.1825 363.922ZM-16.1 366C-13.6376 366 -11.7165 364.823 -10.3701 362.555L-11.2299 362.045C-12.4168 364.044 -14.0291 365 -16.1 365V366ZM-10.3701 362.555C-9.07425 360.373 -7.69397 356.997 -6.22428 352.454L-7.17572 352.146C-8.63937 356.67 -9.99242 359.961 -11.2299 362.045L-10.3701 362.555ZM-6.22636 352.46C-4.69697 347.939 -3.23869 344.295 -1.85279 341.524L-2.74722 341.076C-4.16132 343.905 -5.63637 347.595 -7.17364 352.14L-6.22636 352.46ZM-1.85072 341.519C-0.486229 338.725 1.49654 336.318 4.10629 334.295L3.49371 333.505C0.770123 335.616 -1.31377 338.141 -2.74929 341.081L-1.85072 341.519ZM4.10629 334.295C6.66566 332.312 9.98318 331.3 14.1 331.3V330.3C9.81682 330.3 6.26767 331.355 3.49371 333.505L4.10629 334.295ZM14.1 331.3C18.0088 331.3 21.5489 332.308 24.7327 334.323L25.2673 333.477C21.9178 331.358 18.1912 330.3 14.1 330.3V331.3ZM24.7389 334.326C27.9159 336.271 30.4558 339.13 32.3528 342.924L33.2472 342.476C31.2776 338.537 28.6175 335.529 25.2611 333.474L24.7389 334.326ZM32.3528 342.924C34.2446 346.707 35.2 351.194 35.2 356.4H36.2C36.2 351.072 35.222 346.426 33.2472 342.476L32.3528 342.924ZM20.5 289.177V288.677H20V289.177H20.5ZM35 289.177H35.5V288.677H35V289.177ZM30.5 312.377L30.8745 312.708L30.8781 312.704L30.5 312.377ZM-6.6 317.577V317.077H-7.1V317.577H-6.6ZM-6.6 324.377V324.877H-6.1V324.377H-6.6ZM-20.8 324.377H-21.3V324.877H-20.8V324.377ZM-20.8 317.577H-20.3V317.077H-20.8V317.577ZM-34.4 317.577H-34.9V318.077H-34.4V317.577ZM-34.4 300.477V299.977H-34.9V300.477H-34.4ZM-20.8 300.477L-20.8 300.977H-20.3L-20.3 300.477H-20.8ZM-20.8 289.277V288.777H-21.3V289.277H-20.8ZM-6.6 289.277H-6.1V288.777H-6.6V289.277ZM-6.6 300.477H-7.1V300.977H-6.6V300.477ZM19.4 299.277L19.7686 299.614L19.4 299.277ZM20.5 289.677H35V288.677H20.5V289.677ZM34.5 289.177V297.877H35.5V289.177H34.5ZM34.5 297.877C34.5 303.999 33.0193 308.701 30.1219 312.049L30.8781 312.704C33.9807 309.118 35.5 304.154 35.5 297.877H34.5ZM30.1255 312.045C27.192 315.361 22.3935 317.077 15.6 317.077V318.077C22.5398 318.077 27.6747 316.325 30.8745 312.708L30.1255 312.045ZM15.6 317.077H-6.6V318.077H15.6V317.077ZM-7.1 317.577V324.377H-6.1V317.577H-7.1ZM-6.6 323.877H-20.8V324.877H-6.6V323.877ZM-20.3 324.377V317.577H-21.3V324.377H-20.3ZM-20.8 317.077H-34.4V318.077H-20.8V317.077ZM-33.9 317.577L-33.9 300.477H-34.9L-34.9 317.577H-33.9ZM-34.4 300.977H-20.8L-20.8 299.977H-34.4V300.977ZM-20.3 300.477V289.277H-21.3V300.477H-20.3ZM-20.8 289.777H-6.6V288.777H-20.8V289.777ZM-7.1 289.277V300.477H-6.1V289.277H-7.1ZM-6.6 300.977H15.8V299.977H-6.6V300.977ZM15.8 300.977C17.5323 300.977 18.8998 300.562 19.7686 299.614L19.0314 298.939C18.4335 299.591 17.401 299.977 15.8 299.977V300.977ZM19.7686 299.614C20.6294 298.675 21 297.185 21 295.277H20C20 297.101 19.6373 298.278 19.0314 298.939L19.7686 299.614ZM21 295.277V289.177H20V295.277H21ZM-11.5 262.552V263.052H-9.81804L-11.2269 262.133L-11.5 262.552ZM-18.7 255.052L-18.267 254.801L-18.2713 254.794L-18.7 255.052ZM-21.4 245.052V244.552H-21.9V245.052H-21.4ZM-3.3 245.052H-2.8V244.552H-3.3V245.052ZM-0.5 259.352L-0.117794 259.029L-0.123714 259.022L-0.5 259.352ZM35 262.552H35.5V262.052H35V262.552ZM35 279.652V280.152H35.5V279.652H35ZM-20.8 279.652H-21.3V280.152H-20.8V279.652ZM-20.8 262.552V262.052H-21.3V262.552H-20.8ZM-11.2269 262.133C-14.2316 260.173 -16.5752 257.73 -18.2671 254.801L-19.1329 255.302C-17.3581 258.374 -14.9017 260.93 -11.7731 262.97L-11.2269 262.133ZM-18.2713 254.794C-20.0223 251.876 -20.9 248.632 -20.9 245.052H-21.9C-21.9 248.804 -20.9777 252.227 -19.1287 255.309L-18.2713 254.794ZM-21.4 245.552H-3.3V244.552H-21.4V245.552ZM-3.8 245.052V249.752H-2.8V245.052H-3.8ZM-3.8 249.752C-3.8 254.08 -2.85457 257.42 -0.876289 259.681L-0.123714 259.022C-1.87877 257.017 -2.8 253.956 -2.8 249.752H-3.8ZM-0.882149 259.674C1.05988 261.976 4.44586 263.052 9.1 263.052V262.052C4.55414 262.052 1.54012 260.994 -0.117855 259.029L-0.882149 259.674ZM9.1 263.052H35V262.052H9.1V263.052ZM34.5 262.552L34.5 279.652H35.5L35.5 262.552H34.5ZM35 279.152H-20.8V280.152H35V279.152ZM-20.3 279.652V262.552H-21.3V279.652H-20.3ZM-20.8 263.052H-11.5V262.052H-20.8V263.052ZM-8.1 237.078L-8.32637 237.524L-8.32084 237.527L-8.1 237.078ZM-18.1 228.178L-17.676 227.913L-18.1 228.178ZM-19.2 205.378L-18.761 205.618L-18.7588 205.613L-19.2 205.378ZM-12.9 198.478L-12.638 198.904L-11.1335 197.978H-12.9V198.478ZM-20.8 198.478H-21.3V198.978H-20.8V198.478ZM-20.8 181.378V180.878H-21.3V181.378H-20.8ZM35 181.378H35.5V180.878H35V181.378ZM35 198.478V198.978H35.5V198.478H35ZM27.1 198.478V197.978H25.3935L26.8302 198.899L27.1 198.478ZM33.4 205.478L32.9588 205.713L32.9611 205.718L33.4 205.478ZM32.3 228.178L32.7206 228.449L32.724 228.443L32.3 228.178ZM22.2 237.078L22.4182 237.528L22.4263 237.524L22.2 237.078ZM-3 202.078L-2.65637 202.441L-2.65133 202.436L-3 202.078ZM-3 219.378L-3.34868 219.736L-3.34854 219.737L-3 219.378ZM17.2 219.378L17.5389 219.746L17.5487 219.736L17.2 219.378ZM17.2 202.078L16.8513 202.437L16.8564 202.441L17.2 202.078ZM7 239.778C1.32904 239.778 -3.62623 238.723 -7.87916 236.63L-8.32084 237.527C-3.9071 239.7 1.20429 240.778 7 240.778V239.778ZM-7.87366 236.632C-12.1346 234.469 -15.3958 231.561 -17.676 227.913L-18.524 228.443C-16.1376 232.261 -12.7321 235.287 -8.32635 237.524L-7.87366 236.632ZM-17.676 227.913C-19.9574 224.263 -21.1 220.189 -21.1 215.678H-22.1C-22.1 220.367 -20.9093 224.627 -18.524 228.443L-17.676 227.913ZM-21.1 215.678C-21.1 211.814 -20.3144 208.465 -18.7611 205.618L-19.639 205.139C-21.2856 208.158 -22.1 211.676 -22.1 215.678H-21.1ZM-18.7588 205.613C-17.1957 202.683 -15.1541 200.452 -12.638 198.904L-13.1621 198.052C-15.8459 199.704 -18.0043 202.074 -19.6412 205.143L-18.7588 205.613ZM-12.9 197.978H-20.8V198.978H-12.9V197.978ZM-20.3 198.478L-20.3 181.378H-21.3L-21.3 198.478H-20.3ZM-20.8 181.878H35V180.878H-20.8V181.878ZM34.5 181.378V198.478H35.5V181.378H34.5ZM35 197.978H27.1V198.978H35V197.978ZM26.8302 198.899C29.351 200.515 31.3949 202.781 32.9588 205.713L33.8412 205.243C32.2051 202.175 30.049 199.775 27.3698 198.057L26.8302 198.899ZM32.9611 205.718C34.5144 208.565 35.3 211.914 35.3 215.778H36.3C36.3 211.776 35.4856 208.257 33.839 205.239L32.9611 205.718ZM35.3 215.778C35.3 220.221 34.1581 224.262 31.876 227.913L32.724 228.443C35.1085 224.628 36.3 220.402 36.3 215.778H35.3ZM31.8794 227.908C29.5319 231.559 26.2355 234.469 21.9737 236.632L22.4263 237.524C26.8311 235.288 30.2681 232.264 32.7206 228.449L31.8794 227.908ZM21.9819 236.628C17.6606 238.723 12.6707 239.778 7 239.778V240.778C12.7959 240.778 17.9394 239.7 22.4181 237.528L21.9819 236.628ZM7.1 197.978C2.73603 197.978 -0.767464 199.208 -3.34868 201.72L-2.65133 202.436C-0.299206 200.148 2.93064 198.978 7.1 198.978V197.978ZM-3.3436 201.715C-5.91026 204.143 -7.2 207.141 -7.2 210.678H-6.2C-6.2 207.415 -5.02308 204.68 -2.6564 202.441L-3.3436 201.715ZM-7.2 210.678C-7.2 214.215 -5.91076 217.244 -3.34868 219.736L-2.65133 219.02C-5.02258 216.713 -6.2 213.941 -6.2 210.678H-7.2ZM-3.34854 219.737C-0.831474 222.184 2.64052 223.378 7 223.378V222.378C2.82615 222.378 -0.36853 221.239 -2.65146 219.02L-3.34854 219.737ZM7 223.378C11.3608 223.378 14.8924 222.183 17.5387 219.746L16.8613 219.01C14.441 221.24 11.1725 222.378 7 222.378V223.378ZM17.5487 219.736C20.1108 217.244 21.4 214.215 21.4 210.678H20.4C20.4 213.941 19.2226 216.713 16.8513 219.02L17.5487 219.736ZM21.4 210.678C21.4 207.141 20.1103 204.143 17.5436 201.715L16.8564 202.441C19.2231 204.68 20.4 207.415 20.4 210.678H21.4ZM17.5487 201.72C14.9675 199.208 11.464 197.978 7.1 197.978V198.978C11.2694 198.978 14.4992 200.148 16.8513 202.436L17.5487 201.72ZM-20.8 113.907V113.407H-21.3V113.907H-20.8ZM35 113.907H35.5V113.407H35V113.907ZM35 131.007V131.507H35.5V131.007H35ZM27.4 131.007V130.507H25.8188L27.1125 131.416L27.4 131.007ZM33.4 138.107L33.8472 137.883L33.8452 137.879L33.4 138.107ZM32.8 159.207L33.2303 159.462L33.2341 159.455L32.8 159.207ZM24.5 166.807L24.7236 167.254L24.5 166.807ZM-20.8 169.507H-21.3V170.007H-20.8V169.507ZM-20.8 152.507V152.007H-21.3V152.507H-20.8ZM18.2 149.607L18.5416 149.972L18.2 149.607ZM18.2 133.907L17.8584 134.272L18.2 133.907ZM-20.8 131.007H-21.3V131.507H-20.8V131.007ZM-20.8 114.407H35V113.407H-20.8V114.407ZM34.5 113.907V131.007H35.5V113.907H34.5ZM35 130.507H27.4V131.507H35V130.507ZM27.1125 131.416C29.5051 133.097 31.4541 135.398 32.9548 138.335L33.8452 137.879C32.2793 134.816 30.2282 132.383 27.6875 130.598L27.1125 131.416ZM32.9528 138.331C34.3814 141.188 35.1 144.377 35.1 147.907H36.1C36.1 144.237 35.3519 140.893 33.8472 137.883L32.9528 138.331ZM35.1 147.907C35.1 152.099 34.1838 155.778 32.3659 158.959L33.2341 159.455C35.1495 156.103 36.1 152.249 36.1 147.907H35.1ZM32.3697 158.952C30.4883 162.131 27.7959 164.6 24.2764 166.36L24.7236 167.254C28.4041 165.414 31.245 162.816 33.2303 159.462L32.3697 158.952ZM24.2764 166.36C20.7589 168.119 16.6051 169.007 11.8 169.007V170.007C16.7283 170.007 21.0411 169.095 24.7236 167.254L24.2764 166.36ZM11.8 169.007H-20.8V170.007H11.8V169.007ZM-20.3 169.507V152.507H-21.3V169.507H-20.3ZM-20.8 153.007H9.5V152.007H-20.8V153.007ZM9.5 153.007C13.3186 153.007 16.3558 152.017 18.5416 149.972L17.8584 149.242C15.9108 151.064 13.1481 152.007 9.5 152.007V153.007ZM18.5416 149.972C20.7252 147.929 21.8 145.189 21.8 141.807H20.8C20.8 144.959 19.8081 147.418 17.8584 149.242L18.5416 149.972ZM21.8 141.807C21.8 138.362 20.7273 135.587 18.5416 133.542L17.8584 134.272C19.806 136.094 20.8 138.585 20.8 141.807H21.8ZM18.5416 133.542C16.3558 131.497 13.3186 130.507 9.5 130.507V131.507C13.1481 131.507 15.9108 132.45 17.8584 134.272L18.5416 133.542ZM9.5 130.507H-20.8V131.507H9.5V130.507ZM-20.3 131.007L-20.3 113.907H-21.3L-21.3 131.007H-20.3ZM33.3 91.9242L32.8421 91.7234L33.3 91.9242ZM26.5 100.924L26.8 101.324L26.8044 101.321L26.5 100.924ZM16.7 104.624H16.2V105.163L16.7369 105.123L16.7 104.624ZM16.7 87.7242L16.6486 87.2269L16.2 87.2733V87.7242H16.7ZM21.4 85.0242L21 84.7242L21.4 85.0242ZM22 74.2242L22.4085 73.9359L22.4053 73.9315L22 74.2242ZM15.2 74.9242L15.6508 75.1406L15.6543 75.1331L15.6577 75.1256L15.2 74.9242ZM12.6 83.0242L12.1149 82.9029L12.1131 82.9106L12.6 83.0242ZM9.7 93.0242L10.1643 93.21L10.1682 93.1998L9.7 93.0242ZM4.8 99.9242L5.12451 100.305L5.13005 100.3L4.8 99.9242ZM-13 100.224L-13.2797 100.639L-13.2774 100.64L-13 100.224ZM-19.3 92.4242L-19.7573 92.6265L-19.7558 92.6298L-19.3 92.4242ZM-16.4 63.6242L-16.0221 63.9517L-16.0195 63.9486L-16.4 63.6242ZM-2.6 56.6242H-2.1V56.0692L-2.65204 56.1269L-2.6 56.6242ZM-2.6 72.4242L-2.53168 72.9195L-2.1 72.86V72.4242H-2.6ZM-7.2 75.0242L-6.81128 75.3389L-6.80436 75.33L-7.2 75.0242ZM-7.7 85.2242L-7.28798 84.9409L-7.29382 84.9325L-7.3 84.9242L-7.7 85.2242ZM-1 84.3242L-0.549187 84.5406L-0.546021 84.5338L-1 84.3242ZM1.4 76.3242L0.915859 76.1993L0.913742 76.2075L0.911903 76.2158L1.4 76.3242ZM4.6 66.2242L5.06269 66.414L5.06667 66.4037L4.6 66.2242ZM9.6 59.4242L9.91901 59.8092L9.92499 59.8043L9.93081 59.7991L9.6 59.4242ZM18.8 56.3242V55.8241L18.7914 55.8243L18.8 56.3242ZM27.6 59.1242L27.3084 59.5304L27.3104 59.5318L27.6 59.1242ZM33.6 67.0242L33.1395 67.2191L33.1409 67.2223L33.6 67.0242ZM35.3 78.9242C35.3 83.7336 34.4766 87.9967 32.8421 91.7234L33.7579 92.1251C35.4567 88.2517 36.3 83.8482 36.3 78.9242H35.3ZM32.8421 91.7234C31.2042 95.4578 28.9861 98.386 26.1956 100.528L26.8044 101.321C29.7473 99.0624 32.0625 95.9907 33.7579 92.1251L32.8421 91.7234ZM26.2 100.524C23.3419 102.668 20.1662 103.866 16.6631 104.126L16.7369 105.123C20.4338 104.849 23.7915 103.581 26.8 101.324L26.2 100.524ZM17.2 104.624V87.7242H16.2V104.624H17.2ZM16.7514 88.2216C18.8279 88.0068 20.5191 87.032 21.8 85.3242L21 84.7242C19.8809 86.2164 18.4388 87.0417 16.6486 87.2269L16.7514 88.2216ZM21.8 85.3242C23.0753 83.6238 23.7 81.547 23.7 79.1242H22.7C22.7 81.3681 22.1247 83.2246 21 84.7242L21.8 85.3242ZM23.7 79.1242C23.7 76.9395 23.2922 75.1879 22.4085 73.9359L21.5915 74.5125C22.3078 75.5273 22.7 77.0422 22.7 79.1242H23.7ZM22.4053 73.9315C21.4567 72.618 20.2133 71.9242 18.7 71.9242V72.9242C19.8533 72.9242 20.81 73.4305 21.5947 74.517L22.4053 73.9315ZM18.7 71.9242C17.8084 71.9242 17.0122 72.1582 16.3344 72.6424C15.6606 73.1236 15.1356 73.8291 14.7423 74.7228L15.6577 75.1256C15.9978 74.3526 16.4227 73.8082 16.9156 73.4561C17.4044 73.1069 17.9916 72.9242 18.7 72.9242V71.9242ZM14.7492 74.7079C13.9261 76.4227 13.0496 79.1641 12.1149 82.903L13.0851 83.1455C14.017 79.4177 14.8739 76.759 15.6508 75.1406L14.7492 74.7079ZM12.1131 82.9106C11.1827 86.8979 10.2217 90.2089 9.23183 92.8487L10.1682 93.1998C11.1783 90.5062 12.1506 87.1505 13.0869 83.1378L12.1131 82.9106ZM9.23576 92.8385C8.19887 95.4308 6.61212 97.6661 4.46994 99.5486L5.13005 100.3C7.38787 98.3156 9.06779 95.951 10.1642 93.2099L9.23576 92.8385ZM4.47552 99.5438C2.32199 101.381 -0.58535 102.324 -4.3 102.324V103.324C-0.414654 103.324 2.74467 102.334 5.12447 100.305L4.47552 99.5438ZM-4.3 102.324C-7.40381 102.324 -10.2069 101.485 -12.7227 99.8082L-13.2774 100.64C-10.5931 102.43 -7.59619 103.324 -4.3 103.324V102.324ZM-12.7203 99.8098C-15.2984 98.0695 -17.3428 95.5478 -18.8442 92.2187L-19.7558 92.6298C-18.1905 96.1007 -16.0349 98.7789 -13.2797 100.639L-12.7203 99.8098ZM-18.8427 92.222C-20.3418 88.8328 -21.1 84.8047 -21.1 80.1242H-22.1C-22.1 84.9104 -21.3249 89.0823 -19.7573 92.6265L-18.8427 92.222ZM-21.1 80.1242C-21.1 73.2052 -19.3876 67.8349 -16.0222 63.9517L-16.7778 63.2968C-20.3457 67.4135 -22.1 73.0433 -22.1 80.1242H-21.1ZM-16.0195 63.9486C-12.643 59.9877 -8.16469 57.7093 -2.54796 57.1215L-2.65204 56.1269C-8.50198 56.7391 -13.2237 59.1274 -16.7805 63.2998L-16.0195 63.9486ZM-3.1 56.6242V72.4242H-2.1V56.6242H-3.1ZM-2.66832 71.9289C-4.72377 72.2124 -6.37766 73.1423 -7.59565 74.7185L-6.80436 75.33C-5.75568 73.9728 -4.34291 73.1693 -2.53168 72.9195L-2.66832 71.9289ZM-7.58862 74.7096C-8.81297 76.222 -9.4 78.2106 -9.4 80.6242H-8.4C-8.4 78.3712 -7.8537 76.6264 -6.81138 75.3388L-7.58862 74.7096ZM-9.4 80.6242C-9.4 82.681 -8.99016 84.3373 -8.1 85.5242L-7.3 84.9242C-8.00985 83.9778 -8.4 82.5674 -8.4 80.6242H-9.4ZM-8.11202 85.5075C-7.28211 86.7146 -6.09208 87.3242 -4.6 87.3242V86.3242C-5.7746 86.3242 -6.65122 85.8672 -7.28798 84.9409L-8.11202 85.5075ZM-4.6 87.3242C-3.70821 87.3242 -2.90652 87.0903 -2.2148 86.6099C-1.52724 86.1324 -0.976917 85.4316 -0.54924 84.5406L-1.45076 84.1078C-1.82309 84.8835 -2.27276 85.4327 -2.7852 85.7885C-3.29349 86.1415 -3.89179 86.3242 -4.6 86.3242V87.3242ZM-0.546021 84.5338C0.276974 82.7506 1.0861 80.0417 1.88809 76.4327L0.911903 76.2158C0.113895 79.8068 -0.676975 82.4312 -1.45398 84.1147L-0.546021 84.5338ZM1.88414 76.4492C2.9477 72.3278 4.00778 68.9851 5.06258 66.414L4.13741 66.0345C3.05888 68.6634 1.98563 72.0539 0.915859 76.1993L1.88414 76.4492ZM5.06667 66.4037C6.03323 63.8907 7.64575 61.6928 9.91901 59.8092L9.28099 59.0392C6.88758 61.0223 5.16677 63.3578 4.13332 66.0447L5.06667 66.4037ZM9.93081 59.7991C12.0858 57.8977 15.0268 56.8893 18.8086 56.8241L18.7914 55.8243C14.8399 55.8924 11.6475 56.9508 9.26919 59.0493L9.93081 59.7991ZM18.8 56.8242C21.9644 56.8242 24.7952 57.7261 27.3084 59.5304L27.8916 58.718C25.2048 56.789 22.169 55.8242 18.8 55.8242V56.8242ZM27.3104 59.5318C29.7536 61.2678 31.7013 63.8196 33.1395 67.219L34.0605 66.8294C32.5654 63.2954 30.5131 60.5807 27.8896 58.7166L27.3104 59.5318ZM33.1409 67.2223C34.5753 70.5474 35.3 74.4441 35.3 78.9242H36.3C36.3 74.3376 35.5581 70.3011 34.0591 66.8262L33.1409 67.2223ZM33.3 36.1625L32.8421 35.9617L33.3 36.1625ZM26.5 45.1625L26.8 45.5625L26.8044 45.5591L26.5 45.1625ZM16.7 48.8625H16.2V49.4009L16.7369 49.3611L16.7 48.8625ZM16.7 31.9625L16.6486 31.4651L16.2 31.5116V31.9625H16.7ZM21.4 29.2625L21 28.9625L21.4 29.2625ZM22 18.4625L22.4085 18.1741L22.4053 18.1697L22 18.4625ZM15.2 19.1625L15.6508 19.3789L15.6543 19.3714L15.6577 19.3639L15.2 19.1625ZM12.6 27.2625L12.1149 27.1412L12.1131 27.1489L12.6 27.2625ZM9.7 37.2625L10.1643 37.4482L10.1682 37.438L9.7 37.2625ZM4.8 44.1625L5.12451 44.543L5.13005 44.5381L4.8 44.1625ZM-13 44.4625L-13.2797 44.8769L-13.2774 44.8785L-13 44.4625ZM-19.3 36.6625L-19.7573 36.8647L-19.7558 36.868L-19.3 36.6625ZM-16.4 7.86249L-16.0221 8.18997L-16.0195 8.18686L-16.4 7.86249ZM-2.6 0.862488H-2.1V0.307434L-2.65204 0.365204L-2.6 0.862488ZM-2.6 16.6625L-2.53168 17.1578L-2.1 17.0983V16.6625H-2.6ZM-7.2 19.2625L-6.81128 19.5772L-6.80436 19.5682L-7.2 19.2625ZM-7.7 29.4625L-7.28798 29.1792L-7.29382 29.1707L-7.3 29.1625L-7.7 29.4625ZM-1 28.5625L-0.549187 28.7789L-0.546021 28.772L-1 28.5625ZM1.4 20.5625L0.915859 20.4376L0.913742 20.4458L0.911903 20.454L1.4 20.5625ZM4.6 10.4625L5.06269 10.6523L5.06667 10.642L4.6 10.4625ZM9.6 3.66251L9.91901 4.04752L9.92499 4.04254L9.93081 4.03741L9.6 3.66251ZM18.8 0.5625V0.0624084L18.7914 0.062561L18.8 0.5625ZM27.6 3.36249L27.3084 3.76868L27.3104 3.77008L27.6 3.36249ZM33.6 11.2625L33.1395 11.4573L33.1409 11.4605L33.6 11.2625ZM35.3 23.1625C35.3 27.9718 34.4766 32.235 32.8421 35.9617L33.7579 36.3633C35.4567 32.49 36.3 28.0865 36.3 23.1625H35.3ZM32.8421 35.9617C31.2042 39.6961 28.9861 42.6243 26.1956 44.7658L26.8044 45.5591C29.7473 43.3007 32.0625 40.2289 33.7579 36.3633L32.8421 35.9617ZM26.2 44.7625C23.3419 46.9061 20.1662 48.1044 16.6631 48.3639L16.7369 49.3611C20.4338 49.0873 23.7915 47.8189 26.8 45.5625L26.2 44.7625ZM17.2 48.8625L17.2 31.9625H16.2L16.2 48.8625H17.2ZM16.7514 32.4598C18.8279 32.2451 20.5191 31.2703 21.8 29.5625L21 28.9625C19.8809 30.4547 18.4388 31.28 16.6486 31.4651L16.7514 32.4598ZM21.8 29.5625C23.0753 27.8621 23.7 25.7853 23.7 23.3625H22.7C22.7 25.6064 22.1247 27.4629 21 28.9625L21.8 29.5625ZM23.7 23.3625C23.7 21.1778 23.2922 19.4261 22.4085 18.1742L21.5915 18.7508C22.3078 19.7655 22.7 21.2805 22.7 23.3625H23.7ZM22.4053 18.1697C21.4567 16.8562 20.2133 16.1625 18.7 16.1625V17.1625C19.8533 17.1625 20.81 17.6688 21.5947 18.7552L22.4053 18.1697ZM18.7 16.1625C17.8084 16.1625 17.0122 16.3965 16.3344 16.8806C15.6606 17.3619 15.1356 18.0674 14.7423 18.9611L15.6577 19.3639C15.9978 18.5909 16.4227 18.0464 16.9156 17.6944C17.4044 17.3452 17.9916 17.1625 18.7 17.1625V16.1625ZM14.7492 18.9461C13.9261 20.661 13.0496 23.4023 12.1149 27.1412L13.0851 27.3838C14.017 23.656 14.8739 20.9973 15.6508 19.3789L14.7492 18.9461ZM12.1131 27.1489C11.1827 31.1362 10.2217 34.4472 9.23183 37.0869L10.1682 37.438C11.1783 34.7445 12.1506 31.3888 13.0869 27.3761L12.1131 27.1489ZM9.23576 37.0768C8.19887 39.669 6.61212 41.9044 4.46994 43.7869L5.13005 44.5381C7.38787 42.5539 9.06779 40.1893 10.1642 37.4482L9.23576 37.0768ZM4.47552 43.7821C2.32199 45.6189 -0.58535 46.5625 -4.3 46.5625V47.5625C-0.414654 47.5625 2.74467 46.5728 5.12447 44.5429L4.47552 43.7821ZM-4.3 46.5625C-7.40381 46.5625 -10.2069 45.7237 -12.7227 44.0465L-13.2774 44.8785C-10.5931 46.668 -7.59619 47.5625 -4.3 47.5625V46.5625ZM-12.7203 44.0481C-15.2984 42.3078 -17.3428 39.786 -18.8442 36.4569L-19.7558 36.868C-18.1905 40.339 -16.0349 43.0172 -13.2797 44.8769L-12.7203 44.0481ZM-18.8427 36.4602C-20.3418 33.071 -21.1 29.043 -21.1 24.3625H-22.1C-22.1 29.1487 -21.3249 33.3206 -19.7573 36.8647L-18.8427 36.4602ZM-21.1 24.3625C-21.1 17.4435 -19.3876 12.0732 -16.0222 8.18997L-16.7778 7.53503C-20.3457 11.6518 -22.1 17.2816 -22.1 24.3625H-21.1ZM-16.0195 8.18686C-12.643 4.22598 -8.16469 1.94757 -2.54796 1.35977L-2.65204 0.365204C-8.50198 0.977417 -13.2237 3.36569 -16.7805 7.53812L-16.0195 8.18686ZM-3.1 0.862488V16.6625H-2.1V0.862488H-3.1ZM-2.66832 16.1672C-4.72377 16.4507 -6.37766 17.3806 -7.59565 18.9568L-6.80436 19.5682C-5.75568 18.2111 -4.34291 17.4076 -2.53168 17.1578L-2.66832 16.1672ZM-7.58862 18.9479C-8.81297 20.4603 -9.4 22.4489 -9.4 24.8625H-8.4C-8.4 22.6094 -7.8537 20.8647 -6.81138 19.5771L-7.58862 18.9479ZM-9.4 24.8625C-9.4 26.9193 -8.99016 28.5756 -8.1 29.7625L-7.3 29.1625C-8.00985 28.216 -8.4 26.8057 -8.4 24.8625H-9.4ZM-8.11202 29.7458C-7.28211 30.9529 -6.09208 31.5625 -4.6 31.5625V30.5625C-5.7746 30.5625 -6.65122 30.1054 -7.28798 29.1792L-8.11202 29.7458ZM-4.6 31.5625C-3.70821 31.5625 -2.90652 31.3286 -2.2148 30.8482C-1.52724 30.3707 -0.976917 29.6699 -0.54924 28.7789L-1.45076 28.3461C-1.82309 29.1218 -2.27276 29.671 -2.7852 30.0268C-3.29349 30.3798 -3.89179 30.5625 -4.6 30.5625V31.5625ZM-0.546021 28.772C0.276974 26.9889 1.0861 24.2799 1.88809 20.671L0.911903 20.454C0.113895 24.0451 -0.676975 26.6695 -1.45398 28.353L-0.546021 28.772ZM1.88414 20.6874C2.9477 16.5661 4.00778 13.2234 5.06258 10.6523L4.13741 10.2727C3.05888 12.9016 1.98563 16.2922 0.915859 20.4376L1.88414 20.6874ZM5.06667 10.642C6.03323 8.12894 7.64575 5.93106 9.91901 4.04752L9.28099 3.2775C6.88758 5.26059 5.16677 7.59604 4.13332 10.283L5.06667 10.642ZM9.93081 4.03741C12.0858 2.13596 15.0268 1.12762 18.8086 1.06241L18.7914 0.062561C14.8399 0.130707 11.6475 1.18906 9.26919 3.28757L9.93081 4.03741ZM18.8 1.0625C21.9644 1.0625 24.7952 1.96436 27.3084 3.76865L27.8916 2.95633C25.2048 1.02731 22.169 0.0625 18.8 0.0625V1.0625ZM27.3104 3.77008C29.7536 5.50604 31.7013 8.05792 33.1395 11.4573L34.0605 11.0677C32.5654 7.53372 30.5131 4.81897 27.8896 2.9549L27.3104 3.77008ZM33.1409 11.4605C34.5753 14.7856 35.3 18.6824 35.3 23.1625H36.3C36.3 18.5759 35.5581 14.5393 34.0591 11.0645L33.1409 11.4605Z" fill="#EEE1E1"/>
              </svg>