      <svg width="40" height="471" viewBox="0 0 40 471" fill="none" xmlns="http://www.w3.org/2000/svg">
<path d="M1.00049 43.2416C0.133822 47.3083 -1.89951 50.575 -5.09951 53.0416C-8.23284 55.5083 -11.8328 56.7416 -15.8995 56.7416C-21.7662 56.7416 -26.4328 54.675 -29.8995 50.5416C-33.2995 46.475 -34.9995 40.775 -34.9995 33.4416V0.741626L35.2005 0.741626V32.3416C35.2005 39.475 33.5672 45.0416 30.3005 49.0416C27.0338 53.1083 22.6005 55.1416 17.0005 55.1416C12.8672 55.1416 9.43382 54.0416 6.70049 51.8416C3.96716 49.7083 2.06716 46.8416 1.00049 43.2416ZM6.80049 17.8416V29.0416C6.80049 31.8416 7.40049 33.975 8.60049 35.4416C9.86716 36.975 11.7005 37.7416 14.1005 37.7416C16.5005 37.7416 18.3338 36.975 19.6005 35.4416C20.8672 33.975 21.5005 31.8416 21.5005 29.0416V17.8416H6.80049ZM-21.1995 30.4416C-21.1995 33.3083 -20.5662 35.5083 -19.2995 37.0416C-17.9662 38.6416 -16.0662 39.4416 -13.5995 39.4416C-11.1328 39.4416 -9.19951 38.6083 -7.79951 36.9416C-6.39951 35.3416 -5.69951 33.1083 -5.69951 30.2416V17.8416H-21.1995V30.4416ZM39.0005 83.7596H-34.9995V66.6596H39.0005V83.7596ZM-35.7995 121.552C-35.7995 116.085 -34.6328 111.152 -32.2995 106.752C-29.9662 102.418 -26.6328 98.9851 -22.2995 96.4518C-17.9662 93.9851 -12.8995 92.7518 -7.09951 92.7518C-1.36618 92.7518 3.66716 94.0184 8.00049 96.5518C12.4005 99.0851 15.7672 102.552 18.1005 106.952C20.4338 111.352 21.6005 116.285 21.6005 121.752C21.6005 127.218 20.4338 132.152 18.1005 136.552C15.7672 140.952 12.4005 144.418 8.00049 146.952C3.66716 149.485 -1.36618 150.752 -7.09951 150.752C-12.8328 150.752 -17.8995 149.452 -22.2995 146.852C-26.6328 144.318 -29.9662 140.818 -32.2995 136.352C-34.6328 131.952 -35.7995 127.018 -35.7995 121.552ZM-20.9995 121.552C-20.9995 124.818 -19.7995 127.585 -17.3995 129.852C-14.9995 132.185 -11.5662 133.352 -7.09951 133.352C-2.63284 133.352 0.80049 132.218 3.20049 129.952C5.60049 127.752 6.80049 125.018 6.80049 121.752C6.80049 118.418 5.60049 115.652 3.20049 113.452C0.867156 111.252 -2.56618 110.152 -7.09951 110.152C-11.5662 110.152 -14.9995 111.218 -17.3995 113.352C-19.7995 115.552 -20.9995 118.285 -20.9995 121.552ZM21.4005 231.024C21.4005 237.957 19.3005 243.457 15.1005 247.524C10.9005 251.657 5.06716 253.724 -2.39951 253.724H-34.9995V236.724H-4.69951C-1.09951 236.724 1.66716 235.757 3.60049 233.824C5.60049 231.957 6.60049 229.357 6.60049 226.024C6.60049 222.69 5.60049 220.057 3.60049 218.124C1.66716 216.257 -1.09951 215.324 -4.69951 215.324H-34.9995V198.324H-4.69951C-1.09951 198.324 1.66716 197.357 3.60049 195.424C5.60049 193.557 6.60049 190.957 6.60049 187.624C6.60049 184.29 5.60049 181.657 3.60049 179.724C1.66716 177.857 -1.09951 176.924 -4.69951 176.924H-34.9995V159.824H20.8005V176.924H13.8005C16.1338 178.657 17.9672 180.924 19.3005 183.724C20.7005 186.524 21.4005 189.69 21.4005 193.224C21.4005 197.424 20.5005 201.157 18.7005 204.424C16.9005 207.757 14.3338 210.357 11.0005 212.224C14.0672 214.157 16.5672 216.79 18.5005 220.124C20.4338 223.457 21.4005 227.09 21.4005 231.024ZM21.4005 336.883C21.4005 343.816 19.3005 349.316 15.1005 353.383C10.9005 357.516 5.06716 359.583 -2.39951 359.583H-34.9995V342.583H-4.69951C-1.09951 342.583 1.66716 341.616 3.60049 339.683C5.60049 337.816 6.60049 335.216 6.60049 331.883C6.60049 328.55 5.60049 325.916 3.60049 323.983C1.66716 322.116 -1.09951 321.183 -4.69951 321.183H-34.9995V304.183H-4.69951C-1.09951 304.183 1.66716 303.216 3.60049 301.283C5.60049 299.416 6.60049 296.816 6.60049 293.483C6.60049 290.15 5.60049 287.516 3.60049 285.583C1.66716 283.716 -1.09951 282.783 -4.69951 282.783H-34.9995V265.683H20.8005V282.783H13.8005C16.1338 284.516 17.9672 286.783 19.3005 289.583C20.7005 292.383 21.4005 295.55 21.4005 299.083C21.4005 303.283 20.5005 307.016 18.7005 310.283C16.9005 313.616 14.3338 316.216 11.0005 318.083C14.0672 320.016 16.5672 322.65 18.5005 325.983C20.4338 329.316 21.4005 332.95 21.4005 336.883ZM-35.7995 396.942C-35.7995 391.476 -34.6328 386.542 -32.2995 382.142C-29.9662 377.809 -26.6328 374.376 -22.2995 371.842C-17.9662 369.376 -12.8995 368.142 -7.09951 368.142C-1.36618 368.142 3.66716 369.409 8.00049 371.942C12.4005 374.476 15.7672 377.942 18.1005 382.342C20.4338 386.742 21.6005 391.676 21.6005 397.142C21.6005 402.609 20.4338 407.542 18.1005 411.942C15.7672 416.342 12.4005 419.809 8.00049 422.342C3.66716 424.876 -1.36618 426.142 -7.09951 426.142C-12.8328 426.142 -17.8995 424.842 -22.2995 422.242C-26.6328 419.709 -29.9662 416.209 -32.2995 411.742C-34.6328 407.342 -35.7995 402.409 -35.7995 396.942ZM-20.9995 396.942C-20.9995 400.209 -19.7995 402.976 -17.3995 405.242C-14.9995 407.576 -11.5662 408.742 -7.09951 408.742C-2.63284 408.742 0.80049 407.609 3.20049 405.342C5.60049 403.142 6.80049 400.409 6.80049 397.142C6.80049 393.809 5.60049 391.042 3.20049 388.842C0.867156 386.642 -2.56618 385.542 -7.09951 385.542C-11.5662 385.542 -14.9995 386.609 -17.3995 388.742C-19.7995 390.942 -20.9995 393.676 -20.9995 396.942ZM11.5005 452.314C14.5672 454.314 16.9672 456.814 18.7005 459.814C20.5005 462.814 21.4005 466.148 21.4005 469.814H3.30049V465.114C3.30049 460.848 2.36716 457.648 0.50049 455.514C-1.29951 453.381 -4.49951 452.314 -9.09951 452.314H-34.9995V435.214H20.8005V452.314H11.5005Z" fill="#D8D8D8" fill-opacity="0.01"/>
<path d="M1.00049 43.2416L1.47989 43.0996L0.511471 43.1374L1.00049 43.2416ZM-5.09951 53.0416L-5.40478 52.6456L-5.40879 52.6488L-5.09951 53.0416ZM-29.8995 50.5416L-30.2831 50.8623L-30.2826 50.8629L-29.8995 50.5416ZM-34.9995 0.741626V0.241626H-35.4995V0.741626H-34.9995ZM35.2005 0.741626H35.7005V0.241626H35.2005V0.741626ZM30.3005 49.0416L29.9132 48.7253L29.9107 48.7285L30.3005 49.0416ZM6.70049 51.8416L7.01403 51.4521L7.00813 51.4475L6.70049 51.8416ZM6.80049 17.8416V17.3416H6.30049V17.8416H6.80049ZM8.60049 35.4416L8.21351 35.7583L8.21501 35.7601L8.60049 35.4416ZM19.6005 35.4416L19.222 35.1147L19.215 35.1232L19.6005 35.4416ZM21.5005 17.8416H22.0005V17.3416H21.5005V17.8416ZM-19.2995 37.0416L-19.685 37.3601L-19.6836 37.3617L-19.2995 37.0416ZM-7.79951 36.9416L-8.17588 36.6123L-8.18236 36.62L-7.79951 36.9416ZM-5.69951 17.8416H-5.19951V17.3416H-5.69951V17.8416ZM-21.1995 17.8416V17.3416H-21.6995V17.8416H-21.1995ZM0.511471 43.1374C-0.331264 47.0918 -2.30162 50.2536 -5.40476 52.6456L-4.79425 53.4376C-1.49739 50.8963 0.598911 47.5248 1.48951 43.3458L0.511471 43.1374ZM-5.40879 52.6488C-8.4521 55.0446 -11.9426 56.2416 -15.8995 56.2416V57.2416C-11.7231 57.2416 -8.01359 55.972 -4.79023 53.4345L-5.40879 52.6488ZM-15.8995 56.2416C-21.633 56.2416 -26.1538 54.2296 -29.5164 50.2203L-30.2826 50.8629C-26.7119 55.1203 -21.8993 57.2416 -15.8995 57.2416V56.2416ZM-29.5159 50.2209C-32.8163 46.2734 -34.4995 40.7024 -34.4995 33.4416H-35.4995C-35.4995 40.8475 -33.7827 46.6766 -30.2831 50.8623L-29.5159 50.2209ZM-34.4995 33.4416V0.741626H-35.4995V33.4416H-34.4995ZM-34.9995 1.24163L35.2005 1.24163V0.241626L-34.9995 0.241626V1.24163ZM34.7005 0.741626V32.3416H35.7005V0.741626H34.7005ZM34.7005 32.3416C34.7005 39.4032 33.0835 44.8434 29.9132 48.7254L30.6878 49.3579C34.0508 45.2399 35.7005 39.5467 35.7005 32.3416H34.7005ZM29.9107 48.7285C26.7467 52.6674 22.4617 54.6416 17.0005 54.6416V55.6416C22.7392 55.6416 27.321 53.5492 30.6903 49.3548L29.9107 48.7285ZM17.0005 54.6416C12.96 54.6416 9.64328 53.5684 7.014 51.4521L6.38699 52.2311C9.22437 54.5149 12.7743 55.6416 17.0005 55.6416V54.6416ZM7.00813 51.4475C4.36381 49.3836 2.51955 46.6084 1.47989 43.0996L0.521091 43.3837C1.61477 47.0748 3.57051 50.033 6.39286 52.2358L7.00813 51.4475ZM6.30049 17.8416V29.0416H7.30049V17.8416H6.30049ZM6.30049 29.0416C6.30049 31.9038 6.91261 34.1683 8.21351 35.7582L8.98747 35.125C7.88837 33.7817 7.30049 31.7795 7.30049 29.0416H6.30049ZM8.21501 35.7601C9.59638 37.4323 11.5854 38.2416 14.1005 38.2416V37.2416C11.8156 37.2416 10.1379 36.5177 8.98597 35.1232L8.21501 35.7601ZM14.1005 38.2416C16.6156 38.2416 18.6046 37.4323 19.986 35.7601L19.215 35.1232C18.063 36.5177 16.3854 37.2416 14.1005 37.2416V38.2416ZM19.9789 35.7684C21.3525 34.1779 22.0005 31.9092 22.0005 29.0416H21.0005C21.0005 31.774 20.3818 33.772 19.2221 35.1148L19.9789 35.7684ZM22.0005 29.0416V17.8416H21.0005V29.0416H22.0005ZM21.5005 17.3416H6.80049V18.3416H21.5005V17.3416ZM-21.6995 30.4416C-21.6995 33.3744 -21.0523 35.7049 -19.685 37.3601L-18.914 36.7232C-20.08 35.3117 -20.6995 33.2422 -20.6995 30.4416H-21.6995ZM-19.6836 37.3617C-18.2375 39.0971 -16.1843 39.9416 -13.5995 39.9416V38.9416C-15.9481 38.9416 -17.6949 38.1861 -18.9154 36.7215L-19.6836 37.3617ZM-13.5995 39.9416C-11.0072 39.9416 -8.92499 39.0589 -7.41666 37.2632L-8.18236 36.62C-9.47403 38.1577 -11.2585 38.9416 -13.5995 38.9416V39.9416ZM-7.42322 37.2709C-5.9193 35.5521 -5.19951 33.1868 -5.19951 30.2416H-6.19951C-6.19951 33.0298 -6.87971 35.1311 -8.1758 36.6124L-7.42322 37.2709ZM-5.19951 30.2416V17.8416H-6.19951V30.2416H-5.19951ZM-5.69951 17.3416H-21.1995V18.3416H-5.69951V17.3416ZM-21.6995 17.8416V30.4416H-20.6995V17.8416H-21.6995ZM39.0005 83.7596V84.2596H39.5005V83.7596H39.0005ZM-34.9995 83.7596H-35.4995V84.2596H-34.9995V83.7596ZM-34.9995 66.6596V66.1596H-35.4995V66.6596H-34.9995ZM39.0005 66.6596H39.5005V66.1596H39.0005V66.6596ZM39.0005 83.2596H-34.9995V84.2596H39.0005V83.2596ZM-34.4995 83.7596V66.6596H-35.4995V83.7596H-34.4995ZM-34.9995 67.1596H39.0005V66.1596H-34.9995V67.1596ZM38.5005 66.6596V83.7596H39.5005V66.6596H38.5005ZM-32.2995 106.752L-32.7398 106.515L-32.7412 106.518L-32.2995 106.752ZM-22.2995 96.4518L-22.5469 96.0172L-22.5519 96.0201L-22.2995 96.4518ZM8.00049 96.5518L7.74813 96.9834L7.75101 96.9851L8.00049 96.5518ZM18.1005 106.952L17.6588 107.186L18.1005 106.952ZM18.1005 136.552L17.6588 136.318L18.1005 136.552ZM8.00049 146.952L7.751 146.518L7.74814 146.52L8.00049 146.952ZM-22.2995 146.852L-22.0451 146.421L-22.0472 146.42L-22.2995 146.852ZM-32.2995 136.352L-31.8563 136.12L-31.8578 136.118L-32.2995 136.352ZM-17.3995 129.852L-17.0509 129.493L-17.0562 129.488L-17.3995 129.852ZM3.20049 129.952L2.86259 129.583L2.85718 129.588L3.20049 129.952ZM3.20049 113.452L2.85745 113.816L2.86263 113.82L3.20049 113.452ZM-17.3995 113.352L-17.7317 112.978L-17.7374 112.983L-17.3995 113.352ZM-35.2995 121.552C-35.2995 116.159 -34.1492 111.307 -31.8578 106.986L-32.7412 106.518C-35.1165 110.997 -36.2995 116.012 -36.2995 121.552H-35.2995ZM-31.8593 106.989C-29.5704 102.738 -26.3028 99.3714 -22.0472 96.8834L-22.5519 96.0201C-26.9629 98.5989 -30.3619 102.099 -32.7397 106.515L-31.8593 106.989ZM-22.0522 96.8863C-17.8057 94.4691 -12.8271 93.2518 -7.09951 93.2518V92.2518C-12.972 92.2518 -18.1266 93.5011 -22.5469 96.0173L-22.0522 96.8863ZM-7.09951 93.2518C-1.44204 93.2518 3.50174 94.5009 7.74814 96.9834L8.25284 96.1201C3.83257 93.536 -1.29032 92.2518 -7.09951 92.2518V93.2518ZM7.75101 96.9851C12.0711 99.4725 15.3704 102.871 17.6588 107.186L18.5422 106.718C16.1639 102.233 12.7298 98.6978 8.24997 96.1185L7.75101 96.9851ZM17.6588 107.186C19.9502 111.507 21.1005 116.359 21.1005 121.752H22.1005C22.1005 116.212 20.9175 111.197 18.5422 106.718L17.6588 107.186ZM21.1005 121.752C21.1005 127.145 19.9502 131.997 17.6588 136.318L18.5422 136.786C20.9175 132.307 22.1005 127.292 22.1005 121.752H21.1005ZM17.6588 136.318C15.3704 140.633 12.0711 144.031 7.75101 146.518L8.24997 147.385C12.7298 144.806 16.1639 141.271 18.5422 136.786L17.6588 136.318ZM7.74814 146.52C3.50174 149.003 -1.44204 150.252 -7.09951 150.252V151.252C-1.29032 151.252 3.83257 149.968 8.25284 147.383L7.74814 146.52ZM-7.09951 150.252C-12.7545 150.252 -17.7313 148.97 -22.0451 146.421L-22.5539 147.282C-18.0678 149.933 -12.9112 151.252 -7.09951 151.252V150.252ZM-22.0472 146.42C-26.299 143.934 -29.5664 140.504 -31.8563 136.12L-32.7427 136.583C-30.366 141.133 -26.9667 144.702 -22.5519 147.283L-22.0472 146.42ZM-31.8578 136.118C-34.1492 131.797 -35.2995 126.945 -35.2995 121.552H-36.2995C-36.2995 127.092 -35.1165 132.107 -32.7412 136.586L-31.8578 136.118ZM-21.4995 121.552C-21.4995 124.958 -20.2416 127.855 -17.7428 130.215L-17.0562 129.488C-19.3574 127.315 -20.4995 124.679 -20.4995 121.552H-21.4995ZM-17.748 130.21C-15.2269 132.661 -11.6516 133.852 -7.09951 133.852V132.852C-11.4808 132.852 -14.7721 131.709 -17.051 129.493L-17.748 130.21ZM-7.09951 133.852C-2.5511 133.852 1.02225 132.697 3.5438 130.315L2.85718 129.588C0.578724 131.74 -2.71459 132.852 -7.09951 132.852V133.852ZM3.53835 130.32C6.04206 128.025 7.30049 125.158 7.30049 121.752H6.30049C6.30049 124.879 5.15892 127.478 2.86263 129.583L3.53835 130.32ZM7.30049 121.752C7.30049 118.282 6.04443 115.38 3.53835 113.083L2.86263 113.82C5.15655 115.923 6.30049 118.555 6.30049 121.752H7.30049ZM3.5435 113.088C1.08498 110.77 -2.49152 109.652 -7.09951 109.652V110.652C-2.64083 110.652 0.649334 111.734 2.85749 113.816L3.5435 113.088ZM-7.09951 109.652C-11.6408 109.652 -15.2098 110.736 -17.7317 112.978L-17.0673 113.725C-14.7892 111.701 -11.4916 110.652 -7.09951 110.652V109.652ZM-17.7374 112.983C-20.2411 115.278 -21.4995 118.146 -21.4995 121.552H-20.4995C-20.4995 118.425 -19.3579 115.825 -17.0616 113.72L-17.7374 112.983ZM15.1005 247.524L14.7527 247.164L14.7498 247.167L15.1005 247.524ZM-34.9995 253.724H-35.4995V254.224H-34.9995V253.724ZM-34.9995 236.724V236.224H-35.4995V236.724H-34.9995ZM3.60049 233.824L3.25933 233.458L3.25303 233.464L3.24694 233.47L3.60049 233.824ZM3.60049 218.124L3.948 217.764L3.94779 217.764L3.60049 218.124ZM-34.9995 215.324H-35.4995V215.824H-34.9995V215.324ZM-34.9995 198.324V197.824H-35.4995V198.324H-34.9995ZM3.60049 195.424L3.25933 195.058L3.25303 195.064L3.24694 195.07L3.60049 195.424ZM3.60049 179.724L3.948 179.364L3.94779 179.364L3.60049 179.724ZM-34.9995 176.924H-35.4995V177.424H-34.9995V176.924ZM-34.9995 159.824V159.324H-35.4995V159.824H-34.9995ZM20.8005 159.824H21.3005V159.324H20.8005V159.824ZM20.8005 176.924V177.424H21.3005V176.924H20.8005ZM13.8005 176.924V176.424H12.2889L13.5023 177.325L13.8005 176.924ZM19.3005 183.724L18.849 183.939L18.8533 183.947L19.3005 183.724ZM18.7005 204.424L18.2626 204.182L18.2605 204.186L18.7005 204.424ZM11.0005 212.224L10.7562 211.787L10.0226 212.198L10.7338 212.647L11.0005 212.224ZM18.5005 220.124L18.068 220.375L18.5005 220.124ZM20.9005 231.024C20.9005 237.849 18.8375 243.209 14.7527 247.164L15.4483 247.883C19.7635 243.705 21.9005 238.065 21.9005 231.024H20.9005ZM14.7498 247.167C10.6666 251.186 4.9727 253.224 -2.39951 253.224V254.224C5.16162 254.224 11.1344 252.128 15.4512 247.88L14.7498 247.167ZM-2.39951 253.224H-34.9995V254.224H-2.39951V253.224ZM-34.4995 253.724V236.724H-35.4995V253.724H-34.4995ZM-34.9995 237.224H-4.69951V236.224H-34.9995V237.224ZM-4.69951 237.224C-1.01048 237.224 1.90007 236.231 3.95404 234.177L3.24694 233.47C1.43425 235.283 -1.18854 236.224 -4.69951 236.224V237.224ZM3.94165 234.189C6.06456 232.208 7.10049 229.463 7.10049 226.024H6.10049C6.10049 229.251 5.13641 231.706 3.25933 233.458L3.94165 234.189ZM7.10049 226.024C7.10049 222.584 6.06447 219.81 3.948 217.764L3.25298 218.483C5.13651 220.304 6.10049 222.797 6.10049 226.024H7.10049ZM3.94779 217.764C1.89316 215.78 -1.01508 214.824 -4.69951 214.824V215.824C-1.18394 215.824 1.44115 216.734 3.25319 218.483L3.94779 217.764ZM-4.69951 214.824H-34.9995V215.824H-4.69951V214.824ZM-34.4995 215.324V198.324H-35.4995V215.324H-34.4995ZM-34.9995 198.824H-4.69951V197.824H-34.9995V198.824ZM-4.69951 198.824C-1.01048 198.824 1.90007 197.831 3.95404 195.777L3.24694 195.07C1.43425 196.883 -1.18854 197.824 -4.69951 197.824V198.824ZM3.94165 195.789C6.06456 193.808 7.10049 191.063 7.10049 187.624H6.10049C6.10049 190.851 5.13641 193.306 3.25933 195.058L3.94165 195.789ZM7.10049 187.624C7.10049 184.184 6.06447 181.41 3.948 179.364L3.25298 180.083C5.13651 181.904 6.10049 184.397 6.10049 187.624H7.10049ZM3.94779 179.364C1.89316 177.38 -1.01508 176.424 -4.69951 176.424V177.424C-1.18394 177.424 1.44115 178.334 3.25319 180.083L3.94779 179.364ZM-4.69951 176.424H-34.9995V177.424H-4.69951V176.424ZM-34.4995 176.924V159.824H-35.4995V176.924H-34.4995ZM-34.9995 160.324H20.8005V159.324H-34.9995V160.324ZM20.3005 159.824V176.924H21.3005V159.824H20.3005ZM20.8005 176.424H13.8005V177.424H20.8005V176.424ZM13.5023 177.325C15.7658 179.006 17.5484 181.207 18.8491 183.939L19.7519 183.509C18.3859 180.64 16.5019 178.308 14.0987 176.522L13.5023 177.325ZM18.8533 183.947C20.2143 186.669 20.9005 189.758 20.9005 193.224H21.9005C21.9005 189.623 21.1867 186.378 19.7477 183.5L18.8533 183.947ZM20.9005 193.224C20.9005 197.35 20.0169 200.999 18.2626 204.182L19.1384 204.665C20.9841 201.315 21.9005 197.497 21.9005 193.224H20.9005ZM18.2605 204.186C16.506 207.435 14.0075 209.967 10.7562 211.787L11.2448 212.66C14.6601 210.747 17.295 208.079 19.1404 204.661L18.2605 204.186ZM10.7338 212.647C13.7278 214.534 16.1726 217.107 18.068 220.375L18.933 219.873C16.9617 216.474 14.4065 213.78 11.2671 211.801L10.7338 212.647ZM18.068 220.375C19.9562 223.63 20.9005 227.177 20.9005 231.024H21.9005C21.9005 227.004 20.9115 223.284 18.933 219.873L18.068 220.375ZM15.1005 353.383L14.7527 353.024L14.7498 353.027L15.1005 353.383ZM-34.9995 359.583H-35.4995V360.083H-34.9995V359.583ZM-34.9995 342.583V342.083H-35.4995V342.583H-34.9995ZM3.60049 339.683L3.25933 339.318L3.25303 339.323L3.24694 339.329L3.60049 339.683ZM3.60049 323.983L3.948 323.624L3.94779 323.623L3.60049 323.983ZM-34.9995 321.183H-35.4995V321.683H-34.9995V321.183ZM-34.9995 304.183V303.683H-35.4995V304.183H-34.9995ZM3.60049 301.283L3.25933 300.918L3.25303 300.923L3.24694 300.929L3.60049 301.283ZM3.60049 285.583L3.948 285.224L3.94779 285.223L3.60049 285.583ZM-34.9995 282.783H-35.4995V283.283H-34.9995V282.783ZM-34.9995 265.683V265.183H-35.4995V265.683H-34.9995ZM20.8005 265.683H21.3005V265.183H20.8005V265.683ZM20.8005 282.783V283.283H21.3005V282.783H20.8005ZM13.8005 282.783V282.283H12.2889L13.5023 283.184L13.8005 282.783ZM19.3005 289.583L18.849 289.798L18.8533 289.807L19.3005 289.583ZM18.7005 310.283L18.2626 310.042L18.2605 310.045L18.7005 310.283ZM11.0005 318.083L10.7562 317.647L10.0226 318.058L10.7338 318.506L11.0005 318.083ZM18.5005 325.983L18.068 326.234L18.5005 325.983ZM20.9005 336.883C20.9005 343.708 18.8375 349.069 14.7527 353.024L15.4483 353.742C19.7635 349.564 21.9005 343.925 21.9005 336.883H20.9005ZM14.7498 353.027C10.6666 357.045 4.9727 359.083 -2.39951 359.083V360.083C5.16162 360.083 11.1344 357.988 15.4512 353.739L14.7498 353.027ZM-2.39951 359.083H-34.9995V360.083H-2.39951V359.083ZM-34.4995 359.583V342.583H-35.4995V359.583H-34.4995ZM-34.9995 343.083H-4.69951V342.083H-34.9995V343.083ZM-4.69951 343.083C-1.01048 343.083 1.90007 342.091 3.95404 340.037L3.24694 339.329C1.43425 341.142 -1.18854 342.083 -4.69951 342.083V343.083ZM3.94165 340.049C6.06456 338.067 7.10049 335.322 7.10049 331.883H6.10049C6.10049 335.11 5.13641 337.566 3.25933 339.318L3.94165 340.049ZM7.10049 331.883C7.10049 328.443 6.06447 325.669 3.948 323.624L3.25298 324.343C5.13651 326.163 6.10049 328.656 6.10049 331.883H7.10049ZM3.94779 323.623C1.89316 321.64 -1.01508 320.683 -4.69951 320.683V321.683C-1.18394 321.683 1.44115 322.593 3.25319 324.343L3.94779 323.623ZM-4.69951 320.683H-34.9995V321.683H-4.69951V320.683ZM-34.4995 321.183V304.183H-35.4995V321.183H-34.4995ZM-34.9995 304.683H-4.69951V303.683H-34.9995V304.683ZM-4.69951 304.683C-1.01048 304.683 1.90007 303.691 3.95404 301.637L3.24694 300.929C1.43425 302.742 -1.18854 303.683 -4.69951 303.683V304.683ZM3.94165 301.649C6.06456 299.667 7.10049 296.922 7.10049 293.483H6.10049C6.10049 296.71 5.13641 299.166 3.25933 300.918L3.94165 301.649ZM7.10049 293.483C7.10049 290.043 6.06447 287.269 3.948 285.224L3.25298 285.943C5.13651 287.763 6.10049 290.256 6.10049 293.483H7.10049ZM3.94779 285.223C1.89316 283.24 -1.01508 282.283 -4.69951 282.283V283.283C-1.18394 283.283 1.44115 284.193 3.25319 285.943L3.94779 285.223ZM-4.69951 282.283H-34.9995V283.283H-4.69951V282.283ZM-34.4995 282.783V265.683H-35.4995V282.783H-34.4995ZM-34.9995 266.183H20.8005V265.183H-34.9995V266.183ZM20.3005 265.683V282.783H21.3005V265.683H20.3005ZM20.8005 282.283H13.8005V283.283H20.8005V282.283ZM13.5023 283.184C15.7658 284.866 17.5484 287.067 18.8491 289.798L19.7519 289.368C18.3859 286.499 16.5019 284.167 14.0987 282.382L13.5023 283.184ZM18.8533 289.807C20.2143 292.529 20.9005 295.617 20.9005 299.083H21.9005C21.9005 295.482 21.1867 292.237 19.7477 289.359L18.8533 289.807ZM20.9005 299.083C20.9005 303.209 20.0169 306.858 18.2626 310.042L19.1384 310.524C20.9841 307.175 21.9005 303.357 21.9005 299.083H20.9005ZM18.2605 310.045C16.506 313.295 14.0075 315.826 10.7562 317.647L11.2448 318.519C14.6601 316.607 17.295 313.938 19.1404 310.521L18.2605 310.045ZM10.7338 318.506C13.7278 320.393 16.1726 322.966 18.068 326.234L18.933 325.732C16.9617 322.333 14.4065 319.639 11.2671 317.66L10.7338 318.506ZM18.068 326.234C19.9562 329.489 20.9005 333.036 20.9005 336.883H21.9005C21.9005 332.864 20.9115 329.143 18.933 325.732L18.068 326.234ZM-32.2995 382.142L-32.7398 381.905L-32.7412 381.908L-32.2995 382.142ZM-22.2995 371.842L-22.5469 371.408L-22.5519 371.411L-22.2995 371.842ZM8.00049 371.942L7.74813 372.374L7.75101 372.376L8.00049 371.942ZM18.1005 382.342L17.6588 382.577L18.1005 382.342ZM18.1005 411.942L17.6588 411.708L18.1005 411.942ZM8.00049 422.342L7.751 421.909L7.74814 421.911L8.00049 422.342ZM-22.2995 422.242L-22.0451 421.812L-22.0472 421.811L-22.2995 422.242ZM-32.2995 411.742L-31.8563 411.511L-31.8578 411.508L-32.2995 411.742ZM-17.3995 405.242L-17.0509 404.884L-17.0562 404.879L-17.3995 405.242ZM3.20049 405.342L2.86259 404.974L2.85718 404.979L3.20049 405.342ZM3.20049 388.842L2.85745 389.206L2.86263 389.211L3.20049 388.842ZM-17.3995 388.742L-17.7317 388.369L-17.7374 388.374L-17.3995 388.742ZM-35.2995 396.942C-35.2995 391.549 -34.1492 386.698 -31.8578 382.377L-32.7412 381.908C-35.1165 386.387 -36.2995 391.402 -36.2995 396.942H-35.2995ZM-31.8593 382.379C-29.5704 378.129 -26.3028 374.762 -22.0472 372.274L-22.5519 371.411C-26.9629 373.99 -30.3619 377.489 -32.7397 381.905L-31.8593 382.379ZM-22.0522 372.277C-17.8057 369.86 -12.8271 368.642 -7.09951 368.642V367.642C-12.972 367.642 -18.1266 368.892 -22.5469 371.408L-22.0522 372.277ZM-7.09951 368.642C-1.44204 368.642 3.50174 369.892 7.74814 372.374L8.25284 371.511C3.83257 368.927 -1.29032 367.642 -7.09951 367.642V368.642ZM7.75101 372.376C12.0711 374.863 15.3704 378.261 17.6588 382.577L18.5422 382.108C16.1639 377.623 12.7298 374.088 8.24997 371.509L7.75101 372.376ZM17.6588 382.577C19.9502 386.898 21.1005 391.749 21.1005 397.142H22.1005C22.1005 391.602 20.9175 386.587 18.5422 382.108L17.6588 382.577ZM21.1005 397.142C21.1005 402.536 19.9502 407.387 17.6588 411.708L18.5422 412.177C20.9175 407.698 22.1005 402.683 22.1005 397.142H21.1005ZM17.6588 411.708C15.3704 416.023 12.0711 419.422 7.75101 421.909L8.24997 422.776C12.7298 420.196 16.1639 416.661 18.5422 412.177L17.6588 411.708ZM7.74814 421.911C3.50174 424.393 -1.44204 425.642 -7.09951 425.642V426.642C-1.29032 426.642 3.83257 425.358 8.25284 422.774L7.74814 421.911ZM-7.09951 425.642C-12.7545 425.642 -17.7313 424.361 -22.0451 421.812L-22.5539 422.673C-18.0678 425.324 -12.9112 426.642 -7.09951 426.642V425.642ZM-22.0472 421.811C-26.299 419.325 -29.5664 415.895 -31.8563 411.511L-32.7427 411.974C-30.366 416.524 -26.9667 420.093 -22.5519 422.674L-22.0472 421.811ZM-31.8578 411.508C-34.1492 407.187 -35.2995 402.336 -35.2995 396.942H-36.2995C-36.2995 402.483 -35.1165 407.498 -32.7412 411.977L-31.8578 411.508ZM-21.4995 396.942C-21.4995 400.348 -20.2416 403.246 -17.7428 405.606L-17.0562 404.879C-19.3574 402.706 -20.4995 400.07 -20.4995 396.942H-21.4995ZM-17.748 405.601C-15.2269 408.052 -11.6516 409.242 -7.09951 409.242V408.242C-11.4808 408.242 -14.7721 407.099 -17.051 404.884L-17.748 405.601ZM-7.09951 409.242C-2.5511 409.242 1.02225 408.087 3.5438 405.706L2.85718 404.979C0.578724 407.131 -2.71459 408.242 -7.09951 408.242V409.242ZM3.53835 405.711C6.04206 403.416 7.30049 400.549 7.30049 397.142H6.30049C6.30049 400.269 5.15892 402.869 2.86263 404.974L3.53835 405.711ZM7.30049 397.142C7.30049 393.673 6.04443 390.771 3.53835 388.474L2.86263 389.211C5.15655 391.314 6.30049 393.945 6.30049 397.142H7.30049ZM3.5435 388.479C1.08498 386.161 -2.49152 385.042 -7.09951 385.042V386.042C-2.64083 386.042 0.649334 387.124 2.85749 389.206L3.5435 388.479ZM-7.09951 385.042C-11.6408 385.042 -15.2098 386.127 -17.7317 388.369L-17.0673 389.116C-14.7892 387.091 -11.4916 386.042 -7.09951 386.042V385.042ZM-17.7374 388.374C-20.2411 390.669 -21.4995 393.536 -21.4995 396.942H-20.4995C-20.4995 393.815 -19.3579 391.216 -17.0616 389.111L-17.7374 388.374ZM11.5005 452.314V451.814H9.81852L11.2274 452.733L11.5005 452.314ZM18.7005 459.814L18.2675 460.064L18.2717 460.072L18.7005 459.814ZM21.4005 469.814V470.314H21.9005V469.814H21.4005ZM3.30049 469.814H2.80049V470.314H3.30049V469.814ZM0.500488 455.514L0.118282 455.837L0.124203 455.844L0.500488 455.514ZM-34.9995 452.314H-35.4995V452.814H-34.9995V452.314ZM-34.9995 435.214V434.714H-35.4995V435.214H-34.9995ZM20.8005 435.214H21.3005V434.714H20.8005V435.214ZM20.8005 452.314V452.814H21.3005V452.314H20.8005ZM11.2274 452.733C14.2321 454.693 16.5757 457.136 18.2676 460.064L19.1334 459.564C17.3586 456.492 14.9022 453.936 11.7736 451.895L11.2274 452.733ZM18.2717 460.072C20.0228 462.99 20.9005 466.234 20.9005 469.814H21.9005C21.9005 466.062 20.9781 462.639 19.1292 459.557L18.2717 460.072ZM21.4005 469.314H3.30049V470.314H21.4005V469.314ZM3.80049 469.814V465.114H2.80049V469.814H3.80049ZM3.80049 465.114C3.80049 460.786 2.85506 457.446 0.876778 455.185L0.124203 455.844C1.87925 457.849 2.80049 460.91 2.80049 465.114H3.80049ZM0.882637 455.192C-1.05939 452.89 -4.44537 451.814 -9.09951 451.814V452.814C-4.55365 452.814 -1.53963 453.872 0.118343 455.837L0.882637 455.192ZM-9.09951 451.814H-34.9995V452.814H-9.09951V451.814ZM-34.4995 452.314V435.214H-35.4995V452.314H-34.4995ZM-34.9995 435.714H20.8005V434.714H-34.9995V435.714ZM20.3005 435.214V452.314H21.3005V435.214H20.3005ZM20.8005 451.814H11.5005V452.814H20.8005V451.814Z" fill="#FFEBEC"/>
</svg>